<mxfile host="app.diagrams.net" modified="2023-09-26T08:21:06.087Z" agent="Mozilla/5.0 (Windows NT 10.0; Win64; x64; rv:109.0) Gecko/20100101 Firefox/117.0" etag="Di_mwHhLQuU-CCGFy45N" version="21.8.2" type="github">
  <diagram id="R2lEEEUBdFMjLlhIrx00" name="Page-1">
    <mxGraphModel dx="1050" dy="530" grid="1" gridSize="10" guides="1" tooltips="1" connect="1" arrows="1" fold="1" page="1" pageScale="1" pageWidth="827" pageHeight="1169" math="0" shadow="0" extFonts="Permanent Marker^https://fonts.googleapis.com/css?family=Permanent+Marker">
      <root>
        <mxCell id="0" />
        <mxCell id="1" parent="0" />
        <mxCell id="K3FvabAAw62_PkR94jD6-9" style="edgeStyle=orthogonalEdgeStyle;rounded=0;orthogonalLoop=1;jettySize=auto;html=1;exitX=1;exitY=0.5;exitDx=0;exitDy=0;endArrow=none;endFill=0;" parent="1" source="K3FvabAAw62_PkR94jD6-1" target="K3FvabAAw62_PkR94jD6-5" edge="1">
          <mxGeometry relative="1" as="geometry" />
        </mxCell>
        <mxCell id="K3FvabAAw62_PkR94jD6-31" value="n" style="edgeLabel;html=1;align=center;verticalAlign=middle;resizable=0;points=[];" parent="K3FvabAAw62_PkR94jD6-9" vertex="1" connectable="0">
          <mxGeometry x="-0.7455" y="-3" relative="1" as="geometry">
            <mxPoint as="offset" />
          </mxGeometry>
        </mxCell>
        <mxCell id="K3FvabAAw62_PkR94jD6-24" style="edgeStyle=orthogonalEdgeStyle;rounded=0;orthogonalLoop=1;jettySize=auto;html=1;entryX=0.5;entryY=1;entryDx=0;entryDy=0;endArrow=classic;endFill=1;" parent="1" source="K3FvabAAw62_PkR94jD6-1" target="K3FvabAAw62_PkR94jD6-20" edge="1">
          <mxGeometry relative="1" as="geometry" />
        </mxCell>
        <mxCell id="K3FvabAAw62_PkR94jD6-1" value="Studierender" style="whiteSpace=wrap;html=1;align=center;" parent="1" vertex="1">
          <mxGeometry x="168" y="403" width="100" height="40" as="geometry" />
        </mxCell>
        <mxCell id="K3FvabAAw62_PkR94jD6-16" style="edgeStyle=orthogonalEdgeStyle;rounded=0;orthogonalLoop=1;jettySize=auto;html=1;entryX=0.5;entryY=0;entryDx=0;entryDy=0;endArrow=none;endFill=0;" parent="1" source="K3FvabAAw62_PkR94jD6-2" target="K3FvabAAw62_PkR94jD6-14" edge="1">
          <mxGeometry relative="1" as="geometry" />
        </mxCell>
        <mxCell id="K3FvabAAw62_PkR94jD6-28" value="n" style="edgeLabel;html=1;align=center;verticalAlign=middle;resizable=0;points=[];" parent="K3FvabAAw62_PkR94jD6-16" vertex="1" connectable="0">
          <mxGeometry x="-0.8154" y="1" relative="1" as="geometry">
            <mxPoint as="offset" />
          </mxGeometry>
        </mxCell>
        <mxCell id="K3FvabAAw62_PkR94jD6-2" value="Kurs" style="whiteSpace=wrap;html=1;align=center;" parent="1" vertex="1">
          <mxGeometry x="648" y="403" width="100" height="40" as="geometry" />
        </mxCell>
        <mxCell id="K3FvabAAw62_PkR94jD6-12" style="edgeStyle=orthogonalEdgeStyle;rounded=0;orthogonalLoop=1;jettySize=auto;html=1;entryX=0;entryY=0.5;entryDx=0;entryDy=0;endArrow=none;endFill=0;" parent="1" source="K3FvabAAw62_PkR94jD6-3" target="K3FvabAAw62_PkR94jD6-11" edge="1">
          <mxGeometry relative="1" as="geometry" />
        </mxCell>
        <mxCell id="K3FvabAAw62_PkR94jD6-27" value="n" style="edgeLabel;html=1;align=center;verticalAlign=middle;resizable=0;points=[];" parent="K3FvabAAw62_PkR94jD6-12" vertex="1" connectable="0">
          <mxGeometry x="-0.7636" y="-1" relative="1" as="geometry">
            <mxPoint as="offset" />
          </mxGeometry>
        </mxCell>
        <mxCell id="K3FvabAAw62_PkR94jD6-25" style="edgeStyle=orthogonalEdgeStyle;rounded=0;orthogonalLoop=1;jettySize=auto;html=1;entryX=0.5;entryY=1;entryDx=0;entryDy=0;endArrow=classic;endFill=1;" parent="1" source="K3FvabAAw62_PkR94jD6-3" target="K3FvabAAw62_PkR94jD6-21" edge="1">
          <mxGeometry relative="1" as="geometry" />
        </mxCell>
        <mxCell id="K3FvabAAw62_PkR94jD6-3" value="Dozent" style="whiteSpace=wrap;html=1;align=center;" parent="1" vertex="1">
          <mxGeometry x="168" y="783" width="100" height="40" as="geometry" />
        </mxCell>
        <mxCell id="K3FvabAAw62_PkR94jD6-4" value="LVS" style="whiteSpace=wrap;html=1;align=center;" parent="1" vertex="1">
          <mxGeometry x="648" y="783" width="100" height="40" as="geometry" />
        </mxCell>
        <mxCell id="K3FvabAAw62_PkR94jD6-10" style="edgeStyle=orthogonalEdgeStyle;rounded=0;orthogonalLoop=1;jettySize=auto;html=1;entryX=0;entryY=0.5;entryDx=0;entryDy=0;endArrow=none;endFill=0;" parent="1" source="K3FvabAAw62_PkR94jD6-5" target="K3FvabAAw62_PkR94jD6-2" edge="1">
          <mxGeometry relative="1" as="geometry" />
        </mxCell>
        <mxCell id="K3FvabAAw62_PkR94jD6-30" value="1" style="edgeLabel;html=1;align=center;verticalAlign=middle;resizable=0;points=[];" parent="K3FvabAAw62_PkR94jD6-10" vertex="1" connectable="0">
          <mxGeometry x="0.6667" y="-2" relative="1" as="geometry">
            <mxPoint as="offset" />
          </mxGeometry>
        </mxCell>
        <mxCell id="K3FvabAAw62_PkR94jD6-5" value="mitglied" style="shape=rhombus;perimeter=rhombusPerimeter;whiteSpace=wrap;html=1;align=center;" parent="1" vertex="1">
          <mxGeometry x="378" y="393" width="120" height="60" as="geometry" />
        </mxCell>
        <mxCell id="K3FvabAAw62_PkR94jD6-13" style="edgeStyle=orthogonalEdgeStyle;rounded=0;orthogonalLoop=1;jettySize=auto;html=1;entryX=0;entryY=0.5;entryDx=0;entryDy=0;endArrow=none;endFill=0;" parent="1" source="K3FvabAAw62_PkR94jD6-11" target="K3FvabAAw62_PkR94jD6-4" edge="1">
          <mxGeometry relative="1" as="geometry" />
        </mxCell>
        <mxCell id="K3FvabAAw62_PkR94jD6-26" value="n" style="edgeLabel;html=1;align=center;verticalAlign=middle;resizable=0;points=[];" parent="K3FvabAAw62_PkR94jD6-13" vertex="1" connectable="0">
          <mxGeometry x="0.7467" y="-1" relative="1" as="geometry">
            <mxPoint as="offset" />
          </mxGeometry>
        </mxCell>
        <mxCell id="K3FvabAAw62_PkR94jD6-11" value="unterrichtet" style="shape=rhombus;perimeter=rhombusPerimeter;whiteSpace=wrap;html=1;align=center;" parent="1" vertex="1">
          <mxGeometry x="378" y="773" width="120" height="60" as="geometry" />
        </mxCell>
        <mxCell id="K3FvabAAw62_PkR94jD6-18" style="edgeStyle=orthogonalEdgeStyle;rounded=0;orthogonalLoop=1;jettySize=auto;html=1;entryX=0.5;entryY=0;entryDx=0;entryDy=0;endArrow=none;endFill=0;" parent="1" source="K3FvabAAw62_PkR94jD6-14" target="K3FvabAAw62_PkR94jD6-4" edge="1">
          <mxGeometry relative="1" as="geometry" />
        </mxCell>
        <mxCell id="K3FvabAAw62_PkR94jD6-29" value="n" style="edgeLabel;html=1;align=center;verticalAlign=middle;resizable=0;points=[];" parent="K3FvabAAw62_PkR94jD6-18" vertex="1" connectable="0">
          <mxGeometry x="0.7867" relative="1" as="geometry">
            <mxPoint as="offset" />
          </mxGeometry>
        </mxCell>
        <mxCell id="K3FvabAAw62_PkR94jD6-14" value="besucht" style="shape=rhombus;perimeter=rhombusPerimeter;whiteSpace=wrap;html=1;align=center;" parent="1" vertex="1">
          <mxGeometry x="638" y="573" width="120" height="60" as="geometry" />
        </mxCell>
        <mxCell id="K3FvabAAw62_PkR94jD6-20" value="&lt;u&gt;MatrikelNr&lt;/u&gt;" style="ellipse;whiteSpace=wrap;html=1;align=center;" parent="1" vertex="1">
          <mxGeometry x="38" y="363" width="100" height="40" as="geometry" />
        </mxCell>
        <mxCell id="K3FvabAAw62_PkR94jD6-21" value="&lt;u&gt;DozentenNr&lt;/u&gt;" style="ellipse;whiteSpace=wrap;html=1;align=center;" parent="1" vertex="1">
          <mxGeometry x="48" y="723" width="100" height="40" as="geometry" />
        </mxCell>
        <mxCell id="K3FvabAAw62_PkR94jD6-32" value="&lt;b&gt;&lt;font style=&quot;font-size: 20px;&quot;&gt;Folie 126&lt;/font&gt;&lt;/b&gt;" style="text;html=1;strokeColor=none;fillColor=none;align=center;verticalAlign=middle;whiteSpace=wrap;rounded=0;" parent="1" vertex="1">
          <mxGeometry y="10" width="820" height="30" as="geometry" />
        </mxCell>
        <mxCell id="K3FvabAAw62_PkR94jD6-33" value="" style="shape=image;verticalLabelPosition=bottom;labelBackgroundColor=default;verticalAlign=top;aspect=fixed;imageAspect=0;image=data:image/png,iVBORw0KGgoAAAANSUhEUgAABP0AAAHRCAYAAAAR9cyHAAAgAElEQVR4Xuy9CdRd1XXneaqS1ZUVhJ1UgRmcpJaDEKkYS0KQgAWWKTCSjBk1AMao0ICBEtLH1EU0AOUAGsxagJEEBdhIogA5IMRogxCG2ELIsMqSJRmnAwg7nVSMwOlOYsvupDu9uu9+n/fTfuc7wz7n3vvG/7eWV4LevWf47X3O2ed/z/Cv/r/iz+APBEAABEAABEAABEAABEAABEAABEAABEAABECgbwj8K4h+fWNLVAQEQAAEQAAEQAAEQAAEQAAEQAAEQAAEQAAEGgQg+sERQAAEQAAEQAAEQAAEQAAEQAAEQAAEQAAEQKDPCED06zODojogAAIgAAIgAAIgAAIgAAIgAAIgAAIgAAIgANEPPgACIAACIAACIAACIAACIAACIAACIAACIAACfUYAol+fGRTVAQEQAAEQAAEQAAEQAAEQAAEQAAEQAAEQAAGIfvABEAABEAABEAABEAABEAABEAABEAABEAABEOgzAhD9+sygqA4IgAAIgAAIgAAIgAAIgAAIgAAIgAAIgAAIQPSDD4AACIAACIAACIAACIAACIAACIAACIAACIBAnxGA6NdnBkV1QAAEQAAEQAAEQAAEQAAEQAAEQAAEQAAEQACiH3wABEAABEAABEAABEAABEAABEAABEAABEAABPqMAES/PjMoqgMCIAACIAACIAACIAACIAACIAACIAACIAACEP3gAyAAAiAAAiAAAiAAAiAAAiAAAiAAAiAAAiDQZwQg+vWZQVEdEAABEAABEAABEAABEAABEAABEAABEAABEIDoBx8AARAAARAAARAAARAAARAAARAAARAAARAAgT4jANGvzwyK6oAACIAACIAACIAACIAACIAACIAACIAACIAARD/4AAiAAAiAAAiAAAiAAAiAAAiAAAiAAAiAAAj0GQGIfn1mUFQHBEAABEAABEAABEAABEAABEAABEAABEAABDom+i0cusF8Z+v2hgXmzb3EXD10ZYs13np7rxka+hPz3r73zahRo8ziRdeas8+aAouBAAiAAAiAAAiAAAiAAAiAAAiAAAiAAAiAAAhECHRM9Bs7/pSWou3Zta3lv7/24MNm1er7m//2uTMnmxXLb4ZBQQAEQAAEQAAEQAAEQAAEQAAEQAAEQAAEQAAEIPrBB0AABEAABEAABEAABEAABEAABEAABEAABEBgsAh0bKVf6vbe5bfdaE49tXV14GCZCrUFARAAARAAARAAARAAARAAARAAARAAARAAAR2Bjol+uuLhKRAAARAAARAAARAAARAAARAAARAAARAAARAAgVQCfSn6LV5yi/nm81saLC684HyzdMn1qVzwPAiAAAiAQITA93bsMkNXLzL79+9vXLi0bu0ac8yY0eDWwwQwfvaw8VB0EAABEAABEAABEAABELAI9KXoN2feArOjmIzS3/HHjzfrHlwDw4MACPQRAft276GFl5uLLpzWRzXsjap8+9vbzNA1i5qFXfWVlV19DAP8Ju5XdY2fYD+SPZjE/RFPgAAIgAAIgAAIgAAIlCPQNtFPTiTmzb3EXD10ZXLJp0ydbt7b937jvSWLr/NO8uuatCQXGC+AQAcIPPeNF83SG2/Nynnj4+t7YqWWfbt3v4j7JALMmbugsXIu9Hf00UeZI484zJx88knm9NMmmUMPPSTL3mVf6jXRr1/9pqwd5ft1jZ+9xF7bDo84/DBz5EePMKOP+pgZO/ZYc/ZZU5JM0UtMkiqGh0EABEAABEAABEAABLqGQNtEv7HjD1zCkTtBl2mEhMO6Ji1dYzUUBAQCBOQlOamgun2lFtenXyfLdr009qNttYsXXZssOGjSjj0D0S9GqPd+r2v87KU2m9MOydIkAp555hnqj5q9xKT3PBklBgEQAAEQAAEQAAEQIAIQ/eAHINBnBOSkPbVqa4ut8CcUW+Lb+SfPEPvcmZPNiuU3R7NP2Rb3Z489aZavuLORJk3KX9y8KZp+px64e9V95sG1j2RlH1r9nJWg4qVOin45dk3xG0X1+/KRukS/XmJfph2SU9BKXBLiY31pLzHpS2dHpUAABEAABEAABEBgAAhA9BsAI6OKg0XAFv327NrW1QDqEhm40vYEvpt52GV1rbwkoeD7399jNj7xjHnnnXdbbNvulZqdFP16ya5d3QCtwtXdHnuBhaYdUj3I//e++2PzwuZvjWiLtAJ31d0ro8JfL/BAGUEABEAABEAABEAABHqXAES/3rUdSg4CTgIQ/Vqx9JI4pBUbuIb2Vu5PT5poVq+6vW0tA6Jf21C3LSOIfsaktkMWAJfceFvLeZwk/D3z1CMdO3OzbU6DjEAABEAABEAABEAABLqWAES/rjUNCgYCeQQg+g2O6PfTn/6dOf2M85oVJpFh+7bNeY6T8RZEvwxoXf4KRL880Y/MSu3xyvnXt6z60x5Z0OVugeKBAAiAAAiAAAiAAAj0KAGIfj1qOBQbBHwEIPoNjuhHNe2kvSH69V8/BNEvX/Qjb/jejl1m6OpFLSv+OnFWav95JmoEAiAAAiAAAiAAAiCQQ2CgRD86C2v9+g1m587d5r197zd40cH+EyaMM1Mmn2ZOPfXADcMumPT+nLkLmsG8JpCnCcDceQsaydEqnHVr15hjxowekbx8Tm7Ro5UDzzz7gnlt+xtmR5EWp3P8hLHm5JNPMhddOE1td0rr5Ve2mhe3vGLeemtvy6QklMjGx9c7y8zvPPeNF832onySK/1GtzSPH3esmTr1M8H3OR25VVGyJWGByizTp4PSJxw31syYca4q7RgkyT/2LNvAtW1r2fI7zGOPP9VIQrvVUtb7wgvON0uXXK8pgveZOkSgqm0z8ZSpav+jirra2pSp05vteNltN7XcXpt6g/HQwivMZfNmNSbs3F4pXzvdkGFknrmre3K2FebYm/qyV1/9bku/wv3hmDFHmcmTT1fdBpwj+tEFHLt3v2neLs4jlGcSUpseU/wv1Bfn2lXaLeQ3PvsSr83FuW27inLbfSf1c6OP+pi6L2pHX+/qM7V9sk/0c42fqf2whr3kY7cj8h0aC3gs5DqdPPFEc+45n61sG21OO5S+Y78f6g80TGTaZFuKB+gsQcmBYhlqu6lxgfRtmV6or3NdiOTzayrv6nu+2mzr5DMzi3HbFbv42hnFTsccM9po7SxvRea+neoT8uHLv3jpCP+hmGnD158wW4u+kvsqjhlnz75YFXvwWGevwrZ9mX6nuM7X9xLHTU8+a3bs3NMcO6nvof4yJQ6sOm4rFazgZRAAARAAARAAgbYQGBjRT3MbX0xwyZngat+Rz1Egt664RZXEtBUr7wqKIyQs3XzTDdHJDgXkS5fe2hRJUrzLdzkApUnlsy8TsNOmYHbunC80RJXQn5xsUp4f//gfmFtuvd18Z+t272uUNt2SePZZU1KqNOJZ206axFxcclbJ5Lyj5UjPVXFxRdW2GTs+LLDb9XOxlmnMm3uJuXroyuZrqTcY8/v2dlluizF/oMnkzAtmNx+L9SW+9HLEhukzL21pgzF7a/pCKh/VfdGfXBOc2Gr7N0qPJuJr1z2qEnt9IkmuXSXvkN/YdiF/eOCrDzWF/JgfULmvu3Z+sD+us6+n8t55173mm89viRXVKaTTS67+SH7McCWs7Yc17F18NOMXiTHLlt1UycUZOe1QcknZdq9hQmkTFxpv+YNlyMAkrN137x3RuICEp1WrH1C1STs/u59x2c3X19j9KvWfK7/8lRYR01c/zQUpMl/u22P9np2uJv7S3Jgu7UvMNHGT7P/Il2JxkNbexFSTPz2njduiHQ0eAAEQAAEQAAEQ6DiBvhf9KBj60IcOVgWTZI3QZD1lgsuW1b5jB8y0Qu7BtY+oHCS2qsi13YgmSEd+9IhG+q6v+xSU89/tK780YvLgSpO/xtN7P/nb90ZMTmJCiJxs0td5142Ivgln2VsSU1f6UTlcq89yBLycd0KOkbPyK+ZoVduGVmzt/8UvG9nKlVPSh2SZXD4YmizTBI9WZbl8Ufo253HprIuaK33t1WSxla6UhlxZQv+tecfFPFVssMXG2OrSxUtuGSEIcR/p6gtCq5PpeW3/5hKNZB+k7S/K2JV5a0UW1/lssXZCv8cm4HX29S77sr//7Gc/bxGHfR9zZFtPGT81YoyGvc2HVjItX3GnBn1wNb0qgV89lNoOXWnb/bBvZ4CGCQlQS2+8tSUb2VfatmU/3LTxIW+1SfCzubK9XenJ/A4/7CNmxfKbW9JOsZsU/ewdFJyo7KftGCXWL0n7Udyxr9jZEfp4yHlyurSqVxt/xW5Ml/alleOxD7lcFir3lCmnqz6s0juaD1R1xG0p7QrPggAIgAAIgAAIdIZA34t+EisFtLMvvdicdOLxDRGLgs01ax4YEQz6gjjtBFfmqX0ntNKMvlTzFlne/mIHpKGtxnLy4VqRwVtYZJqhL9j0/LnnX9JcHeD7Imxv6yEuoQDZt4qH7car+WgCtP6hDS0T2JjYUUXzktuwqEyuCVWOgJfzTqg+dYt+rjZVxja59ddMlqmsqbf32hNsuT3Mx12utvP5hsYHU8QGlygV2o5sp+1ayefqC0KTSW3/Jre4fe7MM5xbYSkt+/bTkHiaalfmr/Ubux2RSDmnWLF8XHGsAB/RQJPo1157vVgJ+HTLaqlQf1RXX29/uHCtOuRt3Rs3Pu1dFVdnP6xhL/nQ2LJ///5m06E6TZ9+TnM1H7VVGsPl6jeN+BFriynt0JeWnYavbWqY2EcHuLbAk22XFKv55cp73zhuj+HUZ9GK+RPExz5XfBRqjz67kQ2HFl7e2IJK+dIRIwcddFBzdb78YOLbrupawRr62Olb1cdtmLfDulbz2T4n4y9qY/fc+7UR28tpZ4bvz7eqncrPW4R527G9QleWRcZBxIOOfbFXTofiq7ritlhbwu8gAAIgAAIgAAKdJzAwol8oQLRXofgmbNoJblWiX2jlhL2yyLeKzp4IhsQ8uUrEdWYP18teTRISHG1hIjQhc002fXajdC+ZdUXLZO/ll56ObmfKbXLaSWCOgJXzTorop6lzTDSt0za59ddMlnNEP3pHnjkYE/Hs1XYakVArFLgmcdSmd+36wYgJX6iPS10RaK8CKvshhEQL+luw4PKk7cIhlnWKfnb9Y6v3XCtotMyISxV9veQR6r9j/UGdbV3TZl2iaIiPLWZQ/TTn7YY4aPv7UBr2GG0fQcDvaphQWrTyfeFVXwyePWyz8PXrKSuT5ceuUB+TajeuP7cdFga1Yxv5hO+mcpfo52vDvlX+IZ+zj1QIiaEu0c8Xh/nOLPVxtz9QhexTV9wW60/wOwiAAAiAAAiAQOcJDIToF9v+SmaQgS39t0tAaqfop9kqJcvsE9NkcB8KkqnOdv1cDGhScfoZ5zU91zeRka5tB6a+ANmebMbsphUmyjYze1IQ2qacI2DlvKOdGGnrHlsdU6dtcuuvmSxT/XPEIftDQEhESJlAx+wRO3fK935s67ysD/UDrkto7LTlxNbXFnP6xBgDrciQY1fKW+M3su6xrYRcH7s/0jKrqq+XPGLtOaX/qLIf1rC3fUrDx2Yfaw8xH6xC9LPrUUb0i5VX/q75eCfFpdgHH8ki9AHEJfrFtr6m1Iuete3siyVs+8VEe1sQi/mcXY7QCmtb9At9eLU/zlCdY+1PswOhzrgt1YZ4HgRAAARAAARAoP0E+l70i63SYeT2JN8VrOZMcLXv2M9pbg21A1XXAf4pE0FNWbVBt+3KMvD1Bb32WVKh84gofTtA1giQOU1MCgC0guaRh+/3rijMEbBy3kmZtGvqHJv41Wmb3PprBASqe444lCL0Sv+IcYzZIlX0s7c7+tLXCmnyfc3KMU2fEauz/bvWH3LsSnnF/MbuV2KTbll+ydn3kaUdfT2VKXe1W51tPcaeyp3Dx7ZrGdHT1WfkiFedEv007ULaODZuatJz2S2Wbmq/4MrDZxe7zLFdACkiXmrsIX1eI0ZrRDzJThMH1hm35dgR74AACIAACIAACLSXQN+LftrgXxOg50xwte9on/NNyunfY6JfbMuXvSLPFSjb4mjsplAur2ayp53sSwaadMs0qdQVHzl1yHknVKe6z/TTtimtbXLrr01fO2m1mdpi74ubN43AbgtEmtscQ7ZLFf3IFq5LTmQeOas8XMKHq63n9Fux9qj1h1y7xvwmVQAITcBdK5FymGnqavuiPEstxlz+ruWf0w/H2KcIO3adquz3Uvt9F19NTEHvaZik2E/jK5JVTNSWY37KSr8coTRWT23b0TCQeWnTrcvny7Q/TV3rjNtiNsPvIAACIAACIAACnScA0e9XNrBX9ri+UucEhtp3tM9Jl9EEeynpyi0/PoFQThZoUnnMMaNVXixv3/OtAKhzsqkqpPWQfatgbHJEr+fUIeedUH2qnPxyPjll1E5mc9JOmSxr2omLp71t1zWJzdk2G7JdTGwgYf7Jp55rOUg+tnXN7gPkbb2hstg36lYl+pEI+fobO8yPfvRjs3fvj5q3OHNZ5G3OIYE5164xv0xdJRTqk6taMa6tq++W5EmTJjovT3HZP6c9xphyPprnUsYsWX77PDTtBykXg1g71Iwndv/h+yCgYWLnR4x273mzuJX2A7Pv/Q9afta0W1m/0HZ/++zclDP9ckU/PrP0/aJee9/9cUvdtDdQa9sLJ57jc1q7aZ/LHWs1da0zbtO0BTwDAiAAAiAAAiDQWQIQ/QT/WHCWExhq39E+F5pg+iY59vlUy2+7seUwcNfNeBphLtd1NWlXvZosp6x2oKw5By1nwpzzDkQ//QoZzaTIxdNeIeea8OZsmy0j+vG79paulMl4Tlugd8qKfr4bKkPl6QbRL0U80pwzWmdfTyxDq0WJ56WzLgpeBpHTH8XGznaIfrntvC7RTyscatlRf7Th60+MuCk61p5d/mt/0KIPAcuX3dRyyY7rNuCQkJfj17Ls1HbWrXu05XKuWN2023tjbTin7Fq7aZ9rl+gXY+r7vY7t2rllwXsgAAIgAAIgAAJpBCD6DYDoZ09Eqcq0ku/Ijx7RqL1chUf/HVo5ZK8iS3O34VsqFy+61px91pQRr9Y52Uwtp71KQ3PGIuWRU4ecd0L1wUq/VjplxAC5esg+o81eHaz1kZDttEIBpaG9QdKe0Ka2BXreJ75pJ8uu22015eg10c8+IqHdK/2YKQk2TzzxjPnm8y+Z/fv3j0Bd9WVEWmFD85zWp+xKlWnnsbRyVq3Z/bDvXDkNExL8rpx/vXnnnXc1zablGZ/gZX844LH/Qx862Ngr6ui32Er3XLtR2q6yaCoK0U93Zm2dcZvGTngGBEAABEAABECgswTaJvppbpoNodBsv+X3c0QUzaUQOUGt9h3tc5KRZpKTOlmInRGWesh7invn2E0zYUopAz1rr4JIuZwhpw4574TqBNGvlY6mnfh42iKOFPbkVsrYeZlaH0wR/ew+Q3tbbBXiJNdH02/Z7YkFhIkTTzQnnXj8iEtxtO0h166xPqOXt/e6/Iw++ry45ZURH3d8wp+Wv8wrxpSf1Tyn8SlXPbtpe6+9Sjh0Fp6GiS3w0zg9ZfJp5rjjxrasziMumnaRKsJrLqDItZu9JZ360pkzzzPjx3/CnFDUU/5p89AwyEm3Lp+X6aa2P01d64zbtGMbngMBEAABEAABEOgcgbaJfmWFCM22qTKinz25d52/YwuPmkP7tUGq9rlU0U8GhCReTZ92TmMCuHPn7uY2GgqyJ0wY15hEnHrqKUFv1NwUl+vOqcEu5aOZMKWWx97Wu27tmhETK1+amnMR7Xdz6h2qU9m25ko7p4xa2+SknWJ7zaQoxHPiKVObq6WkACw/ZGgmxRo/TBH9KD1ZBvpv12oizQcNTdlcz2j6LXtSH+s3tf6Qa9eYX6baQHLR9I8aZjbr3LrKdCjfJTfe1rLyz+UvWv4y7RhTflbzXA4fSl9z8Y7Wz8v4AOVhvx/aGhljYscmsRV3Gl+RNh5aeEWxAv8g89prr5sdO/c0/YOEygmFqDhjxrmq8S/Hbi5x9L577xjxIYDtps1Dw8BuG0PXLGr+k2ZlZ8xuKT4vy5La/jR11fRL2raB50AABEAABEAABHqPQNtEPzswiU38bJTarTL0XmrQRO/YE9O1D64Z8ZWZntMGelx+zXYvelYbzEoummBPToQ0gWzMhe1tr67bKWNp+H7PsVuqPWJls+1FE6LL5s2Kvdb8XWMTOzFpI+1ZhqECQfRrpZNjE5mC3TeQUPK///X/NHPnLWg+5usv1I7zqwdTxQb7Y4hPXJDCZUw0SCmzpt9KXWWi7Qdy7RrrM+w6pQi6UoT1re7SMLNtkFtXOx3NeKTlL9OOMeVnNc/l8LGF7ZTV2S5/T22HMg0Sss49/5IWcTU0TsaYpK48jfmKLbTFzrvT9gc5drPfia1C1uYRY2DXSZtuXT4v001tf5q61hm3af0Dz4EACIAACIAACHSOQNtEPzsop9Vljzx8v/eLrkSi3cbG79iiR0xgtIN0++wuX6AX2rJD77i20PiEt5ygUxPsyQlFFaJfnauGUoNdYhybMKU0LdsPcgQ42yaxSYz9BT4nT7uOvSz6xdpUzqQrddJs83St8H23uFXyscefajyaUuaYP6aKDfYE3rfNWPpZ6LbOWPlyJsup7VorgufaVdNnSJFUy8sWYH0fDOrq67W2i40JqfZK6Yc17G0+sdupKf+yHxVtdqntkN93HacRE41jTDTjvCy//ZHCFvVsvt0k+sViFI1o7fKHWB1z2mTMbmwT7XOu+FUTD2j8o864Tdvv4DkQAAEQAAEQAIHOEWib6EdVtMUITTDvEs5iq2rsfCjv0PYaW3gJPWufGxQS8eytVFSOdot+srzEe+FVX4xu4Y25o803Zo9YernBbspkU1MG+9KGlG29nL4tEPmCdteNyZSGJsiP1aXXRD97kqpdPaqdTGm27seYSiGKVhG9/fa7ze3xqatBQ3nliA12/+USmu1JbdmVUFwHzWTZ3i4fugU7RQTPtavGb+xyEK+bb7rB+5HKHqdCQqGGme0jmol9zIfpd5uZq+/uNtGPyk1i9rLidln7jDf6LYW9hhE9k9MOqRwrVt7VctmGJsaJ+WNKWVyXdrkEL/vIggULLldt4Q3xy/Fr+51Q7JXyETW1veSUPWY3ZqV9LjcO0ta1rrhN26bwHAiAAAiAAAiAQOcItFX0cx3oTpOjCy84z5x88knNgJ4EkR/+8C8bZ8998/ktLXRCQaEraJIvk6Ay7fyzmzfHUhD50EMbzHe2bm8+FlvVYQfV9PzcOV8w557z2caEkNLctOnZEeXmDNot+sUO7KbyH3PM6Gb9Dz/sI2bcuGPNRRdO83qlLWyxDS/+/AznpJjs+fobO8z27W+Yww//iLl66Epn2nVONmNNLGXyEUvLPmeN/O6q+Zc1/JtYvPzKVrNu3aNN0cj20XXF1vIyf70m+tltingt+pNrGpNQ8rVdu35gPvWpT46YlGonU65VxnSDNJ1fSb99//t7DPl96DxLe3uUtI9WpNTYNGWCz+lpBT37gwVxvnTWRd56M/vXinbL9rDroJks2+xcAhqls/qer464nTQkgufaVeM3ri2aJDzNKfr600+b1OzniNGLL77cXPXJfEKryzXMbM6aiT0JOcdPGGsmTz7deUGKfaafb1Vonf2whr3Nh1nwODN16mcafQHZ6JlnXzBri75U3lCsiRFibVHbDqms+97/oHEenowjKH0q76q7VzqFSpl/jIk93pKQSP2XFECpLaxZ88CIMlA+LtHPJQ7KMpFvHPnRI5r/NPqoj5mTi4t3Qn1kjl9TBvaqWqrb2WdNaeZNdt7w9SfMg2sfGWE23N6ru7iFwNUVt8XaEn4HARAAARAAARDoPIG2in4ceAxdvaglSNdi0J5FZR9SbU8KQvnFtmPSu/ZNeqH0aPK3fMWdzUfaLfpRxvbqDg1vmrDYwbd8zzdpoAnJhz50cPPRt97a22Lr0CS+zslmrM72JC/2PP3u88cU3nxYOm8VrWOln6Yu/IzP/+u0jUtgscvsajexybJMw7X6V/4eEwrsbbT8blUr5jg9rdhg87GFZpcQ6bvJ2xb+f/azn48Q38r0W5TvJbOuGCFyk6/T30/+9r2W36hNvPPOu43fYu0hx65av4l9MPG1q5gv5YgjGtFP1ovKJvtiux+m3302rbOta9jbfMgHdhTiquavqq32OeOBLB+V+faVX1IdX6JhYgv20r52e5Xth57zbW21V1hr+dqCI7+X49f0ruuDihQdpe2przq4uHTkvX3vN7KF6KcX/YhXHXGbxm/wDAiAAAiAAAiAQGcJtF30o+rSV+mVX/6KOpCnAJC2n8ivvyFsctJCQeERRx5uliy9dcREVqYRE7nks77Js3xGbkeKnaFE7+UEzJqJoGvrk1zZ17CHJczJeoTO2CFxi1YXcACuceWQSFLnZDNWNtekKvZOSJCIraSgtPmsJ2nHmMgRKxP9nlMXTtcnWNRtmxivsqJfTMCJCTU+rrHzQjX2ks/kin72xNl3jphvW3msnL4t/Np+i/gvLfrgWF9B5aYVRXyTZqw95NhVI7IwD9eWTR8r7TilZRbyC5eQYwu/vnLGxro627qGvYsPraZbtfqB4MdC+ghz3bXzVUJbzN9DK3tD7/Jq0NBKeft9DRNqtzcs+lI0ZmKx8fQzzmtmo1npZ6/so5d9QqtvN0SOX3MhNQIkx1T33Pu1Ztkg+qWJfsS76rgt1pbwOwiAAAiAAAiAQOcJdET0kxMq2hq1tzgU37UijLbcTSwmgFqxj9Nl0cPeXkPCAm0ZlsEsBck0yeTtuSkm8aU3ZfJpLdtjeTJG5fGdEycnr6HnZPmkUOLbqiVXJbq2Bcn0XNtoNCsnqBy7d79p3i5W5/AKHU6X+I466DfN6NG/b8aNPTa4PUieoxU7/JzTlxPdMkjbZCIAACAASURBVAJMziQvtvKUxO316zeYnTt3N8UOstOECePM7NkXN7erSjtq6x3y05SVhnY6vpV+7bANTRo3Pfms2bFzT3NyT/43qdja69oSLm2vWaEbsodGLLAntbGjAFL6En72G9/cYu76yr2NrYuU/upVXy62bI6LJsWr6T4o3vs3/+Z/Mf/x1E+ZFctv9r5HLDZv/pbZ84O/MH/1V3/dyI/+fu3Xfs38+9/7XfPb//a3DG3pI/7HHfcJc/Too5xp7Sh8+4Y/+a/N8q5fd48ZU7zj+qM8/ryw8St//mpjqz/n94d/+AfmD//DGDNjxrmNNrGz2G49e878xu/nnD3V3HbrjcH6v7P3XbN27aONdsb1//CHPtRoZy67nlfcrPqjH/9VI83ly242Z31ucpQvtSkqM41Vf/M3/9P88pf/V+Od3/nokeY/FGX/oz+aEDwSQWZA9Vuw8IaGj3/4wx82ax9c5eXL73EfwfZ5+qmRWx2Z71/8xV+aH7z5vzX6Ynqe/OFf/+tfaxzj8KlTPtlgesgh/85b5y/96Urz5FPfaPz++YumFSu+r4vy4bZI+S1dcr2ZMf0c5ztnfu4C83/+/d83+Pna7KuvftdctfC/NP2DhB3a3k8++2TRP7zxxs6m/Yj/H//xBHPqp08pfVatLLDrKBJXhXg15fjiSAx5REkUmHggpR8jP9yy5eWWPpLHFIo7ePstb5l1xQV23WLnVbq2DrvGqZwYRnLio1HkeEl9IG1ZJ7YspPriO5mWHFM1MYxdds22bG3skWJfqoMca2MxBj2viQNd/lhV3Jbi63gWBEAABEAABECgMwQ6Kvp1psqDk6u9ekp74Ubs9r/BIYiagsABAvY2ZM2ETMXvX/7FmF//9eFH6f//p3+iA8Hw3+AxkP7w9+/tM5+9cI7553/+v83KW5aYPx77cfPbv/s7+e2B2tRv/IaqKQ7CQ1JUIlHwkYfvV62O1N6qPQgMUUcQAAEQAAEQAAEQ6CUCEP16yVqJZZXiXWybnExas204sSh4HAR6noC9GjS09T2psnPmGLN69bAwMWuWMf/wD8Zs3Ij/Bo+B9Ief/fXfmL/409vMP/7zP5uP/K/Xm6OKVacfenFzfnu46y5T3CCV1CT7+WEp3mmONWAWOdu++5kj6gYCIAACIAACIAACvUIAol+vWCqjnPYX/Rc3b4qmYp9XqNkaE00UD4BAHxCQ27R82+mzqrltmzHLlhnzW79V3BI0fVigwH+Dx4D6w/ff+8D8+pe/bP7l4IPNI//0/5pLrltojnv+uXx/mDEjq1n260uyH9OuVrbPzqziGIp+5Yt6gQAIgAAIgAAIgEC3EYDo120WqbA89vZeWu131fzLzAm/ujXTzorOC1r/0IaWc/nKnJNXYVWQFAh0lIB9TuLQwivMZfOKVXlV/ZHwt2+fKQ62G04R/w0eA+oPdHbmui/ON4f8y/9jXvrwvxu+oZV2v5fhUVU77YN05MdAqg4JeHyepl09+gj48itbR1yi4rodvA/QoAogAAIgAAIgAAIg0JcEIPr1pVmHKxW6ZZgEQPnnuqlPuwqgjxGiaiDQICC3ttF/v/zS06pzsIAPBEAgjUCZW2DTchrMp303XtOlGXTZC//97Gc/H3ExF/2GD4GD6TeoNQiAAAiAAAiAQO8SgOjXu7ZTlZyEvxsWfanlxuLYixT8z53zhWpXMsUyxe8g0KUE6PbKmRfMbpYOYniXGgrF6gsCEP3qNyMJf0uX3tq8VV6TIx1psHjRtZXekqzJF8+AAAiAAAiAAAiAAAiUIwDRrxy/nnmbgvzXXnvd7Nr9pvnJ3743ItinlX+HH/YRM27cseb00yZhFVPPWBYFrZuAvMCDJr7Llt3k3SJfd1mQPgj0OwG5Eo0+QK1bu8YcM+bACrR+r38760fHFuzZ86bZ++6PzVtv7TX79+9vZs8r/0Yf9TEzduyx5uyzprSzaMgLBEAABEAABEAABECgIgIQ/SoCiWRAAARAAARAAARAAARAAARAAARAAARAAARAoFsIQPTrFkugHCAAAiAAAiAAAiAAAiAAAiAAAiAAAiAAAiBQEQGIfhWBRDIgAAIgAAIgAAIgAAIgAAIgAAIgAAIgAAIg0C0EIPp1iyVQDhAAARAAARAAARAAARAAARAAARAAARAAARCoiABEv4pAIhkQAAEQAAEQAAEQAAEQAAEQAAEQAAEQAAEQ6BYCEP26xRIoBwiAAAiAAAiAAAiAAAiAAAiAAAiAAAiAAAhURACiX0UgkQwIgAAIgAAIgAAIgAAIgAAIgAAIgAAIgAAIdAsBiH7dYgmUAwRAAARAAARAAARAAARAAARAAARAAARAAAQqIgDRryKQSAYEQAAEQAAEQAAEQAAEQAAEQAAEQAAEQAAEuoUARL9usQTKAQIgAAIgAAIgAAIgAAIgAAIgAAIgAAIgAAIVEYDoVxFIJAMCIAACIAACIAACIAACIAACIAACIAACIAAC3UIAol+3WALlAAEQAAEQAAEQAAEQAAEQAAEQAAEQAAEQAIGKCED0qwgkkgEBEAABEAABEAABEAABEAABEAABEAABEACBbiEA0a9bLIFygAAIgAAIgAAIgAAIgAAIgAAIgAAIgAAIgEBFBCD6VQQSyYAACIAACIAACIAACIAACIAACIAACIAACIBAtxCA6NctlkA5QAAEQAAEQAAEQAAEQAAEQAAEQAAEQAAEQKAiAhD9KgKJZEAABEAABEAABEAABEAABEAABEAABEAABECgWwhA9OsWS6AcIAACIAACIAACIAACIAACIAACIAACIAACIFARAYh+FYFEMiAAAiAAAiAAAiAAAiAAAiAAAiAAAiAAAiDQLQQg+nWLJVAOEAABEAABEAABEAABEAABEAABEAABEAABEKiIAES/ikAiGRAAARAAARAAARAAARAAARAAARAAARAAARDoFgIQ/brFEigHCIAACIAACIAACIAACIAACIAACIAACIAACFREAKJfRSCRDAiAAAiAAAiAAAiAAAiAAAiAAAiAAAiAAAh0CwGIft1iCZQDBEAABEAABEAABEAABEAABEAABEAABEAABCoi0Jui311TjXnnVWN+Y5Qxd75fEQokU5oA7OJH+MQiY15ZPfz75V83Zvw5pXEjARAAARAAARAAARAAARAAARAAARAAARDwEahf9LvuMGP+aX+1At3KU4z56+8P1+neX8C63UIAdvFb4tEFxry2bvj3S/6bMRP/U7dYDeUAARAAARAAARAAARAAARAAARAAARDoQwL1i37zDzqArSqBDuJSda748ipjNi0eTu/M4v+edWN+2j67rJ1jzPceHxZ+/9NXB3OVG0S/fL/CmyAAAiAAAiAAAiAAAiAAAiAAAiAAAskEIPolI+uzF6QYdXIhzn1hTX4FfaKf/PdBXeUG0S/fr/AmCIAACIAACIAACIAACIAACIAACIBAMgGIfsnI+uwFiH7tMShEv/ZwRi4gAAIgAAIgAAIgAAIgAAIgAAIgAAINAt0l+tFW0/9RbAPl8/o+fIQxv3ecMTNvN+aQjx0wmVw5dt0WY176ijE/eH7498OONubcW1q3kO561pgHPj+8vXTJ68ZsvGH4ed5uSr/R3wkXGDP3V+eucW68NZX+m/IaffLwL9qy8uUWpy005rePNOZbRR3/8T1j6L9nrDRm+383Zvdzw3Wmf6c/qvexxWUlU65vrTefj0gXQfwff2XMtrXGvP/O8DtHf8qYWcVZcZIT/TuJTXu3tT73H+cP8+H0XI2Bt2Lvfc2YrV8z5m+K8nFexO3oScaccc0BHpSGvdKPubvSJ7suKspF6d87bfjcR6rDtZsPPC23HjMv+pUvxeA6kz3f2TqcBrE7efbIbcp/9+Nhu0vOslz03oq9w/9C5f7ze4frzGmSPeQqSGmLX/5DweiBA35L5WLGnIdP9KNyffv+YRux37M9T7y49ey/1Hq3i63Ny7b3J8405j9vdHkB/g0EQAAEQAAEQAAEQAAEQAAEQAAEQKAmAt0j+v23mQeEO7uyJORd9dQBQUuKSyRAkTAj/+jf5j95QJAiYe2R/zz8BIlNUly55U1jbj52+DfXbcCui0hyymrnS1tpPz55WIz0/dkiGJ+PaKfF7xOn/7rrQGpSsJR5sOCmEf1Cz5BQdv1LbruQaKgR/WzbkBDIf75ViPzvlD/9sVgq6zh9hTGnDw3/Cwlr95x/QLR08WbRTwpl9nNyazLbggQtFpxtHySBmUVYn+jHorDPB+RNv6n1bgdbsvF//+LINijrA9HP38bxCwiAAAiAAAiAAAiAAAiAAAiAAAjURKA7RD8pTpBAwCv7eGUTVV6uwpOiH4k1Z988vCJKinHyfDqZPqXFIgQJFrTiTQovUiySK834nTJl5ZWFv/MJY/7hJ8Z88K4xzxWrEmll2h/8x2GRkkSnBy89IGTJ1YXyUhQS7mZ82ZjfKlYPSkFLlp+f5xVxVPfXHy1WxRXCGq+oi23vJdHv+EKQJYGSWJGA9nAhoL7z6rBLyss/cs70KyNMUf7EdGIhoNKqyW/cZszzhdhHf1IAlf/O5ZVilRSlXOIcr2STK++kLSivL9wz0hbSB32iHzEjHx539oFVffJZX9k09W4HW25z8pIWF++aOjAkCwIgAAIgAAIgAAIgAAIgAAIgAAIg4CbQHaKfFOto5Z3covqn44dXaEkRR4pLciUUCWZ3FuIU/fFqNvr/pfhhr06j36VIIUUWuVKOxbQyZZVbVEMe6ROIWGiy6yDLL4UmW/Szt/5SGWKin6uckqfMrxOin8108egDgilvUZZ1lDdIc3mlr2jP3mO2vGWc2crVjdJntekyb7mqk1c/yjQ09S4r+mnycDGkOnD5y14Og54bBEAABEAABEAABEAABEAABEAABEAgi0B3iH5SqAlVgwUbn7gkxQaf6OcSIWj1Gm/xlWe7cbnktt8qy0rlJZHouw/7z5pzbSmVdbNFTVk/WVaqw7HFKspJl7WewxcT/YjNs8VqRHmmn7RRp0U/+zZgl2/IFaOulX5yG7UUUKmexJrO8zvrxlbPdIlytmBH/+0SHu0yU/nsM/04La0g6ap3WdFPw5ZXyfpW+mmF7qzuCy+BAAiAAAiAAAiAAAiAAAiAAAiAAAj4CHSH6Ce3SvpK6lvpJ1du5Yp+9J7c4kurB+mPz9uTq/+qLKu97dhV9zKiHwmKzxRbn/kCDk5fbpUOiX4k+C0/KXxeWy+IflSPO85wn/1HTGxxSzJhZiQGX3jngQtiqhL9pFjnsn+3i36hcxvtVZDoh0EABEAABEAABEAABEAABEAABEAABNpGoDtEP3lZhC3iuVBUvdKP8pArvEgU+1Bxlt0rq4dzl+fkVVlW3rpMecgVUbHtvdqVfsyOziZ8uziDT144wduiQ6Kf3N4sz1qscnuvb0s2lT12kYdLsAuteCMRisQ7eeOxfUMuM6Ny7SpuVd7xxAGxUK4IrEL0k2dG8rmAfDt0bHuvZhVeO9i6Lhfx3e7ctm4NGYEACIAACIAACIAACIAACIAACIAACHSH6Oc7o89nnzpEP3uLLwkXJA7ZN/rWUdbQrbtlVvrZ/OQ2V16hJ4Une+uzrKs8a9H3js8uUjy0xSoqo09Ak6svNZdiUFquMnA69i3QmvZvrxJkUdp3pp9kE1ulJ0VN+7Zh3m4eS4Pr4GNfN1sWwXFDr8ab8AwIgAAIgAAIgAAIgAAIgAAIgAAItI1Ad4h+9q2r5xZnyNFNsfRHIsr/eNyY3y0u9PjCmuF/q0P0o3SlyMQmsMWMKssqV/rxyjspzFEZckU/2nb52HXDNwPzeXTyEhIWmeSqPV7JxrcaS7GOVyLS80/8lwNbfjXbe10XUHAeVEe5epLrK/OmZ6oQ/exmRYLu7xZn9snVfuQDv3GwMWdcM3z2obzlV4qzmtt7Y6s3pUDI7Gl13qNXHViNWFb0q5utTF/ypRWVVHbm2LYuDRmBAAiAAAiAAAiAAAiAAAiAAAiAAAgQgfaKfi7mvHLKJbjJ56WAUpfoZ1/iQPnLFVhcnqrKagt8Lj5lRD8+k9BOV4pXvnP7yC6h89o4TY3o5zq70CdmybJSOXkrbhnRTwp3vnbPdg7ZVvqCXOn3T/tHpmqv3nRt2Y6dNUiplhX9XOcTUrpVsXW1GUmDhNX5T7ZeHoO+FwRAAARAAARAAARAAARAAARAAARAoHYC9Yt+cjVbSPSj30hAeHPz8E229McrsY4+pfX2VHlj6J3vt6bKK4/k+WtSvArdJmoLYPImX7vsVZSV0iThzz43bmxxy+6mxcM58gpA+v9ddaN/99XPLiPVh26inXK9MYd87ECN7As/7JuPXyousGDxjcSiU+Ya861iBeY/vtd6FmHILlSW19YfOB/P3kpM4hTZntLkctLKTq6ztJsUSyUfqpGrDPw8pXv9SwfqLtPhOtNKu5e+0nqbMvmSffaf3Db7R8UZkNvWHtgOfvQkY2be3srYV2bK77lbjXmnOHOR/rjuPyv8ms5glH6cWm+2cJ1smbcsJ7WjjTccOEPSdWN27V0bMgABEAABEAABEAABEAABEAABEACBwSZQv+g32HxR+04TkGc1usSn0IUcobLnvtdpHlXmL7cn22c1+i57qTJ/pAUCIAACIAACIAACIAACIAACIAACIOAlANEPztHfBKT4JG/ItVej0Y3Nc9fpWUD0a71dWd7ubJ9L6NoiryeNJ0EABEAABEAABEAABEAABEAABEAABDIIQPTLgIZXeoxAbIt5zq2+EP2MIXHv3mkHLnVxuQVu9e2xxoLiggAIgAAIgAAIgAAIgAAIgAAI9AsBiH79YknUw0+AVvW9eEchUm07cDYhPU1i38eLMw5PvaL1/D0NS9/5ipp3++kZ1xmIVD86488+i7Of6o26gAAIgAAIgAAIgAAIgAAIgAAIgECXE4Do1+UGQvFAAARAAARAAARAAARAAARAAARAAARAAARAIJUARL9UYngeBEAABEAABEAABEAABEAABEAABEAABEAABLqcAES/LjcQigcCIAACIAACIAACIAACIAACIAACIAACIAACqQQg+qUSw/MgAAIgAAIgAAIgAAIgAAIgAAIgAAIgAAIg0OUEIPp1uYFQPBAAARAAARAAARAAARAAARAAARAAARAAARBIJQDRL5UYngcBEAABEAABEAABEAABEAABEAABEAABEACBLicA0a/LDYTigQAIgAAIgAAIgAAIgAAIgAAIgAAIgAAIgEAqAYh+qcTwPAiAAAiAAAiAAAiAAAiAAAiAAAiAAAiAAAh0OQGIfl1uIBQPBEAABEAABEAABEAABEAABEAABEAABEAABFIJQPRLJYbnQQAEQAAEQAAEQAAEQAAEQAAEQAAEQAAEQKDLCUD063IDoXggAAIgAAIgAAIgAAIgAAIgAAIgAAIgAAIgkEoAol8qMTwPAiAAAiAAAiAAAiAAAiAAAiAAAiAAAiAAAl1OAKJflxsIxQMBEAABEAABEAABEAABEAABEAABEAABEACBVAIQ/VKJ4XkQAAEQAAEQAAEQAAEQAAEQAAEQAAEQAAEQ6HICEP263EAoHgiAAAiAAAiAAAiAAAiAAAiAAAiAAAiAAAikEoDol0oMz4MACIAACIAACIAACIAACIAACIAACIAACIBAlxOA6NflBkLxQAAEQAAEQAAEQAAEQAAEQAAEQAAEQAAEQCCVAES/VGJ4HgRAAARAAARAAARAAARAAARAAARAAARAAAS6nABEvy43EIoHAiAAAiAAAiAAAiAAAiAAAiAAAiAAAiAAAqkEIPqlEuvB57+3Y5eZO29Bo+RrH1xjTjh+fA/WoreKPPGUqWb//v1maOEV5rJ5s3qr8ChtLQQWDt1gvrN1u/n0pIlm9arba8kDiYKAi8DXHnzYrFp9vxk1apTZvm0zICUSAL9EYHg8iwBitSxseAkEQKAHCfRyTIw5XucdDjZIt0HbRL+33t5r1q/fYHbu3G3e2/d+o6RHH32U+ezUz5hzz/msOfTQQ1pK/9Of/p25ZNYVjWcvvOB8s3TJ9em16+I3nvvGi2bpjbeaIw4/zDzy8P2N+hOjOXMXNMSiZbfdZM4+a0olNfj2t7eZoWsWNdJa9ZWV5tRTT6kk3V5KZPrMS80777zbNsFl7PhhxvPmXmKuHrqyl1ChrDURmFMI7zsKAf74QnRfV4jv+OsdAqnjV7fV7O5V95kH1z7SKNaeXdtaiseBN43HmzY+1G1F74ryhPh1qoB/9tiTZvmKOxvZ+z7mURx15fzrG2MfBN9OWUqfb26sRnY+9/xLGrGj64/a9pjif+PGHWsuunCavkB4sqsJ9GLfLT+grFu7xhwzZnRXM04tHNqinlgvx8SY4+ntXNeTsEE62baIfjI4dRWRgtFVd69sWYEmg59+nCTLSQQLcbLOVYpFuYFkujt17xvcObTLl9AZda8vdKpkvRzgdIpZN+SbM351Q7llGUKiFfdVLkGw2+rRqfJ0o+jniiFsPouX3GK++fyWxj9j1XmnvEefb26sJt+L5UYfmhcvunYgP/7G2PTa773Yd3McRKz7cREC2qK+FfVyTIw5nt7OdT0JG6STrV30kx0giXtz53zBjD7qY42Svrb9jSIgfanxddIWufp9pR9PJHtlpR9/UfzcmZPNiuU3p3tah9+A6NdhA/RA9nX7eCjA4W1drg8gPYCub4uYO34REF7RQH38i5s3dZQRVvqVw9+Loh/7H9W8V8ftclbrvberEP3I1lMmn9as/M/3/8L86Ec/Ns8XsTbvsqEflyy+buBX/fX6uIuVft3XxmUb7mRb7Kb4w2cliH7d57+9VKKQ6NfrfXtddqhd9ONBiSrg2oJC4t4tt95ebDv4BM4+q8nKuYGkLE4vd85UD4h+NTlXHyVbt4+H0q+ijfaRKbqmKmXGr24SirqpLF1j3ISCdCO/0Eo/2Z9g23aCoTv8aO44oN0lIoVgqmo/rrRKMWEu75Q88OxgEeiWttiNY5btCXXH3HV6HlaZ1UlXl3bIBujb3QxrF/34oMV2bavUucpgPVWF8/dy5wzRb7D8Pbe2dfs4RL9cy3TuvTLjVzcF3d1Uls5ZMz/nbuTnE/3kmVK0cviZpx4ZcWZyPgm8WSeB3FhNKzRQ2eVxBYMuCOfyrtMHkHZvE+iWttiNYxZEv9727W4rPUS/dIvULvqxUQY9uEg3TXVvVBHY1C2IVFdbd0pY6Vc34d5Pv24fh+jXez5SZvzqpqC7m8rSe15gTDfy84l+fGkVjgroPU/LjdVShAai0u/nqmktn8tbmz6eGzwC3dIWu3HMgug3eO2hzhpD9EunW7voVya40FzHTF8tX9zySuNWTP6jVYV0pknOLWWcJ29Fpu0QL2z+VuP2O/qjtKedf3bzZl36qr7h60+0nJfy6UkTzaWXXtxyMYltGnrvmWdfaJxrKMtO4uikT33SXPz5GcGv85zv1le/2yyb7107sPn4x//AWebp085pOdyZ98SH3Mp1VpCrbDQBOX7CWGPnwWnL/ffbt202Pq6+92OuX0b0y/ExuzOiNDY+8UyLrWbOONfro7ytkA9fpwH8scefbpx/SXZevuwm82ph+1Wr729U3Xd7I/0mV364DnPPqZ+mfHQrG916urloP7t2v2neemtvy+2CsXZqt8VUhlR3u/3S+WoTJowzs2df3Lg1LtXHud3u3v0D8/bb77ackRRruy7RT24f9fnwxsfXN2+4kzffUTtx/ck62X7B71MftXrV7Q370K3q39m6vWEbaqf0G/Nxpe9q367nfGfZ5fhbFb4Q6yNcv+eMX1xWX342F804x37CdnOlbXOlfM4884zGWEJjVOz23lDartuL7bZkl8n2Nbqxfs2aBxptht5dsODyETfU5/iG3RfReLfpyWcbPk1/ksOhhx7idYNcfpxgDqMcn+R3XKKfvLgjdGZbqI+QZfL5pj1e03/fc+/XGrEM9SEXXnBey631sX7YxYHtuGPnnua4EetjQzw1bSjUv1bRd1L57HrJPve9n+wzQ9csalQjZettqtBAbXHpjbc28rnwgvPN0iXXj0CXE6PGLj2iTHwXyrSz7aeOuwwnxyer6p9cvh3y6TrzLdPntaONVTEHifVpvr6myraYE2+mxh9cj3a2P87TjontsTsWj+bOL6qYb4YEJ2K5avUDjXFLc54u2ywUgxEzHvOJix3/58Qf2nF8ytTpjbgtVD6ug288ofJzOvIOh1wbUnouG+T27Z3w/zLxX+67tYt+dhCQcoNcqFFRZ3jl/OubIooLAAWI9917R9LWFs5z2W03mfUPbfCmTwH16NG/b5YuvbVl4s/lCH1lp4Y2dPWiFgHELn/sfV++lI5dbzkIEX8pYtr5yolCqiBCaWnq5uoEZRlJqAjxyTmAOkf0K+NjnB91gPuKzpInoDZv34DAgyF1jvv2fdC8gZHfpwnBEUcebmZeMDsYuNOP8hwfKQKVqZ+mfKeeeoqJBSBUPh8DbVv0vc8rXlx9AwsvqT6uGVB8/U4Vop/m621o9QK/z4Lr8hV3OscOX/+j8RlO0Ba3NO/62JX1hdwBMmf8ivm8zUVzNkxsFaoUe+y6EtMjjzis2Qft2bWt5ZFY2pqJvKtPjvmaDPzK+EasL+LKhuKBMvwo/VxGuX5J79mi3773PzDcnu2L0ex8tCucfL4ZG6/lcS6aftguX8ge9GzOKsaYn9tM7XYS82dN7BfyE6rT5wqR/rHHn2okVafoR+3t9DPOa+TjOnpHE8e5bGCfGejyb9elfbmxfG7b14zj8mMb1SPXJ3PLqOkbQj5dZ75l+rxQDFNFG9P4bs4cRHtEVaroF2qLGj+1x7XU+KOTY6/03/Hjjm1+mLR939ffx+rqm1/Exi+Zv2++6Rsbpf9pNQjZt7z80tNezcInDubGHzEO7POyfPa4SKzkRyTfeTu5gAAAIABJREFUx3451yJ95eyzpjQw59qQ3q1C9Ouk/2v6+KqfqV30cw2W5BQzZ55nzj3ns0FBLjQZ4kCS0ppT3Ah8+mmTGmnxl5G16x5Vq+wSKudJnQyvqqIVWYcf9pHGqjwOyOh3+qNnePXfwaMOallh4BokSNWeM3dBU/CjwWfixBMNvUu3rG1v3Gi8pZE25bFu7ZrmKh/6N6rfJbOuaAqN8v3de95srgaT4qps2FxXWWa7Xq4zgDQBs6ybvSKSfnuiWOnG/OyOVJaR2aeWMdQ4ckS/Mj7G+XGZ2E/Jj/a++2PD/km/u4J75s0s5PtkrxmFT9JKNVlG3w2h/Iy9xb5M/bTloy87Y8YcZU4++SRz3HFjm75M9l59z1eborprpaLdFlMYysmHbAv8VYlWyG7a+FCLy2h8nAa/t4tVv5+d+hkzfvwnmqt5KV1axcTiruvjRhXbe6sS/divOCiildHU/2zZ8nKzDq7+iwd/en9o4eXNlarSnr6jHMr4WxlfKDto2pM97filsZUvcLHLHPId6euyjZAIJFcXc5opop8M5mismT79nKbPy5UQlLY9SZZfpXkVKa0AGzf22EYfeFjRF3LgV8Y37L6IfJPzsRm4xLCy/MowKuOb0r+ov0mJeaoU/bgv4Zsqifn+oi+5bN6slg9O2n542fI7GnEC23Fq0dfSWEd/9mrRlFuxNf27RpDI7TvlpEf6qN3vsk/UKfpRHjzZsidpZWJUik9/+MO/HOHWFJvySmM79utk29e2gzI+WbZ/CvURGtGP/TW1XwzlW6bPq7ONVT0HcfVpsT47VfQLtcUy8aY2/uhk+5M7KXjOy2O33S+6xKTc+UUV802XPpEj+PG4xiuvfSKjbHNSNCvTFl0cXD4vRUWZN7cF7h/5v13zOfmMFDZzbRiLnbV9eyf9P9aX1PF7W0Q/KrjcnsgV4UHo6qErnXXziX7sgC5RjBOSgbw9GQmBlGINOf91185vESbtCaDri5HsyGzVXrP9RpbdTt8O9Cmwln+sWtMWYeZqi34uQUKm62rUmoCZ6xY6v5G/XNkdeBVl1NhV+7WurI/F/EjW17UcWvpQ6GtRrDOmIIhXA0q7l62ftnwhm8iyuSbjZRhq/NUuW847dhq8fN3lZ90k+nGAtfy2G1u29NO/h/qv0IcYaU+7Dynrb2V8oYqBM2f80gbdZVf68eSdxkPXBxtZDmKRIvqxP4e2APJHqNBYFVqZVdY37L6Ijj5gkYjqS2Piuedf0vyIZ4v9ZfmVYVTGN6VdpRClEYu0AbFmpR/VwTdRSe1TQ30Is5LiWcqqf01ZNIJEbt8pV+24bESTtxUr72p+ENbYkZnkCA2y3cg+oWyMavu0/FBtj4udbvuadlDWJ8v2T6E+QiP60ft8JExKvxjKt0yfV2cbq3IOktK3SFZVtsXY+BCKNzXxR6fbn2YeIfvNFJuE5hdVzDftsTFX8GMbsy1982f5wV1u7S3TFm0OPr5yNapL8+AycF1c8aJmi7Dt79o5omv+qOnbO+3/sfZdx+9tE/04+KazhfhsMq5QbEuXbVDuKEJ75aWTukQsH0xuyL6969KRfM9IIUYGbqFl3HZ55GHcsoFrVnZRPvTH5xfZ23ttoZCejTUuTcDM7EIds/wqIQXRKsoYaiCpK/3K+ljMj6isGoEoNFnmNsXbdFztQQrIknfZ+smv16vuXhk8v1Jjl5DoFzpHwseQB0gSlx95+H7VFn+Nj8c6YU0Q7hIENQMU5a0J5DTbeykt3zmQvv6L3mG/9k1IfSJBWX8r255idtP8Tv1qyvilsZVkGtqS6fMrTb9JecivrFrRT6Yd+nDGadvBqqx/aEwo6xv8fqit+7anlOVXlpHG73zP2B8A+XxXTZ+n7W80ol8oDkvth7lOvi1CzILjoND5QTY3Tf+uFSTK9J2h8UzGR50Q/aqIUW3uPGl3faTvZNuncmraQVmfLNM/xfoHTbyR0y+G8i3b57WjjZWdg2jOYfMxaqfoF7K/Jv7odPvTtA05N021i2b88h05FpsTy7RpJxMfSaXd0mv7j4zRXPGW68y8sm1Rvh9jK/txqUlITjS20W4n1+pxXnySItzG4uPQB3NN395p/4/173X83lbRjyvgmjy51G2fQe2tkzEwsfNt5PuaVRexZ3zOJv895viyw5YBJuedEuxqnD/WuGIBs/3FIGYT+l0GtVWUMZRnquhX1sdiPkJl1QRsmpWJvi9AlIfv60rZ+sX8QWP/mM+VYSj9yT4CwFe2KuqUa1Ot/2sCOa3o5zqbIzYRCgn7oRURZf2tjC9ofVH7nHb80tgq1ga4TD6/8o0Tdl1CZdGkrWUjfSq1/to8fB8BQ32lryxl+dmrKDV18LU7zbvyGZk3jaW0ZZqFv9iB4Nr+RjNpColTqf2wXPmh4aEZH2NtyMfUd6YfPZ/ad2rFZa1dbDY5QoMrJqoiRpVlkyKma3JddlzQjNmhfkjDu6xPli1jqB3kxhucpraP9rURTRu124tW9CvTxrTlypmDxNKuqi3G8qHfy4p+nW5/mrZB9WTBK6W/D8VWmnYfi82YHYllfBFeruBHefl2ZdFv8kO81APKxh9aDnYZ5EIqXlhCdZ9dXGDK25RdFxBSOqEzC10+H4r9y4p+nfZ/TRuv+pmOiH5cCfvAVVsIq0r0y1npFxIKYxNQX0MKraCxDWsH9HQpQuzLg885tA07VK9Y55wq+tlffasoY6hx1C362T4W85HYgB3j7QusfRex+Mqn7VDs91PKx+c50qTUvsGX8w+t9MtZAcWDFN+gxfnweRXUnuw/bZ1I9OGbt3/yt+85L/Lphe29qUE18dKc6efaZpo6uFbdnrR+nvJcbPzSTqjK9BXaPNoh+oVW+oWErrK+oWm3GtEvVEbN+xrfCR19oXlfPuOKEbRbocqOt9r3U/vhVIEl5eNnGT+hemjamuaDr1YkrXOln29FX9kYVfqnPF/NJ0J3su1TWTV+XNYny/pdqF/oBdEvZVyoqo1p+tLcOUgs7VTRL7a6Njfe1LDsdPvTtI3YXClnfqFp95SvRnCiWJ9urae/suO7bycfj+uhthTzS1f5tBzoXemnctzlstE87eLPz2heECU/8nC9fONAjg1j9tHUrdP+r7FZ1c90VPSjysgvgfbkPib6pazg04LTTMBiz/icTW61jAV0roBenmWTUneN88caUKxz1ubhs4P2/Rh7X/q5ol8KZ5m3ppxlAzaZn+tWJ3n4tH29u6Z8ucGmfE9zqxQ9X4foxwMVCXQbNz7dIs6FzlEMfU3U3AxH+far6Cf7a59/uFYxl/U3zfuxPko7BqQ8Fxq/NEF3rN/lsmhW4+WIVpR+2bR9vKqsf9m+SCPa5fDT1jHFp7TPumIEeX5h6GiIsuOt9n2uC09cY/1wnW1Yk3Y7ViF1g+jn67fKxqjSd5m376xRbd9XV9undDV+rPGbOsuYm7am3Dn9V847sg6dbmNl5yCx/jlV9AvFEGXiTY2dNHFVrv/xezkfHO08fb6cO7/QtPtY/yTZHXTQQc1V9rFtsiGesv/lFX1SbLNXS2tsHMpPy4HTcJ3Jzxx4XLMFSll+19wg14Yx+2jq1mn/j/UldfzecdEvZLiY6BfbwpIDTOMEsWc0X3tTtvfK5bCcd8oXbo3zxxpQLICQefjOSKii84mx9+WRK/rl+pimnFWKfq6bkUIHvHL5cusX8wc7oOal3yedeHzL+XqaL2m5K/1sXyAflTcGp65etCfUdHutvJGY8su1qbaNagb5UFpl32efIpvs2v1m8wsnbaGeMGGcmT374pZLFNgGZf2tbHvKGQu07/jKpmEd63e5DBphznfOGKWRE3jLd0Jp+zil1r/Ovkgj+uXwK8tI62Ou51yin6vfve/eO0acaartb3y+rX3fVe5QPyyFIvtDVRlWsb5ZM0HV+LMm9gvFR7lcU4UGuXpN+r1MJzdGJZZy8hraaVN2XNDEISG7aXiX9cmyZQz5fW68ofF3Tb9e9bjQjjbmq5fGFzR9UFVtsWy8qWHZ6fanaRvE3LW9V3JOnV9obZ0yP9Gusg/5kGs1nRTF7K2xZeMPLQcusy1Kvvfe+43tvPRhh8dr+xLV739/j1m+4s5GEnb5y9gwFjtr6tZp/9f0J1U/03HRL9RB+hqc5jKLXFCayWXsGZ+zpRxIypNr+0BM37/b9aW8+KYujfPHGlCsc47d7hOzRxVlDOWRKvqV9bGYj8QmITHedl3tGw1Hj/59M3fegsZjrsCsbP005ZMDku8ch5RB1WVfTTnkezKQSj0bTPqobyKTG4Rr/V8y9V2uEDoMXhMI+srC6eZsYSjrb2XbU6z/yf09NH5pWMt+N/SFmPnZK0ilrUOTdBmQai/y0KatmRyGVtGV9Q1NH+CzhbaOPn7a93P9K/SeT/Sjd+RvLr/SiDtyTLf7Sm1/5Su/rx+OHWZehiP7SeiSkNCFN5r27OOijY9SVtpJFilCg/RZuz+pIkaVq5Niq1462faJn8aPy/pkmf4p5u+58Qanq/Fpuwxl+7y6Vvpp25iPqcYXYvawfSq2UyjUFsvGmxrbdrr9sf+GYko5t5GLXcrML7S2TpmfkP9dOf96884773rnXRr/sVfT8X+7PoqWbYtaDlxuOT6QLejvscefMrJs8hmKSV977fXGmYeu3U9lbChj59zbezvt/xp/qPqZWkU/Uqg3PvGMWXjVF43rDC2qjO+LY8ig0lFyVpWFIGoml7FnQg1J1te3zUMGfrYzy1sIXXXnjmfSpz5prh66slFVbcMO1UvTOYdsGXPcKsqosav2INiyPhbzEen7qVtBffXkDowG0DHF/775/BbvGRNl61dFIBvbrl6WoY+TXK3GbUTawxeAxHyU2t4ls65obCNOtakmwKMyhraC8O8rVt5l9u/f36i+3cdoAkFfPUMiQ6x9l/W3unwhVO6y45cmoKH85U3tzzz1SMuqLPKpW269vRE00Z/tV3Ki47ulUY4ZlIZW9JPCjOZGWJulxtfonbK+UaYvKsuvLKNYuwn9HmuP7FeUhi0Ix86Ror6Z+hGewFQt+lGZXP2w7HtyV376mEnxxhV7SZ6udqLx59AYIe3h+hBnb3OKHQEj66kV/Wj8kOODqxxlY1Q5kXrk4ftHrDKV5e5k26dyaMbdsj5Zpn+K9Q+dEP3K9nl1iX4yhqP/P3UVYiy+i9mCf6+qLcbKE4s3NfFHp9uf7Gsotrl95ZdG9Be+eWWsPw7NL2Js2ZYpoh+9Iz94hI41CPmSffkRX87lWmhQti1qOcjyynnm/p/vb8x37PhCfqTm8w5dekUZG1KZQvbR9O2d9n+2NfnK8ttu9Opk2r5H81ytop8Ur6hBnzzxRDP6qI81ykWH+svzXVxfBH0GlY5OaVFASldmn1DkQX+kNNOSUlKY9//il2bdg2s0LBrPaCaXsWdCDUn+RvlRvScWXA4edZDZ9/4H5sUtr7QcCmpvzZGHI9vvE9O16x5tTPhlkK5t2KF6yYkjpT1u7LGN8u7f/wtz2bxZDXYyH3Jie/sjdYi7dv3AvLD5W0aKkva7oWA3xt5naH6PBB0SoX1/LE6X9TFNOcsGbHYdZHsj/uQHPlG8bP00gaycxJCf89ZP8uHNhQ889vjTTXGq6jP9aEJJ202nTD6t2ZFSvuvXb2iIofRn+1nMx+UXLPKjxYuubfQ5xPLlV7aadUXbowGQ/lJFPzttugWL+gTqD667dn4zELLtxheT/Lxoh1u2vNwUh9g3qhT97L5L+h+JQkd+9Agz6qDfbPTFF104rcU9y/pb2fYkB9dVd69sjhWhgaHs+CX9nwSM6dPOMWSnPXveNEuXXN/MWgYefNP04Yd9pDFGcn/OD7v8SooZ5JczZ5xr6H3qn9knuT+gdLSiHz0ry+baQkM+8dr2N8zWQpSk9iA/7sUCOq5TWd/Q9EWhspTlV4YRMeAAObYqyvbVmOgnYwWyv+339oRr2vlnN/ocsid9vZd/uaJfTj8sy8XtRo7Lr7+xw2wvykhCeMoWYDs+ufCC85pxDH2cZoGT613l7b2UppzMkT3mzvlCIx6mPuHJp55rxH2yneaKfjwmSPvtLvqcra9+t6WOvpXBZWJU2edxnGj77aiDRzX73063fe24W8Yny/ZPoTGqbAyp7aNDfU+V44KmPNr5VV1zkJA96DdZvjJtsWy8qYk/Ot3+ZLsidr5+0RVTl5lfVDEn9sWksp/P2RVDdeXtzDwe0P/1jXVl4g8tB+nzMi7mf7d3Hdkf0Og5186kMjakNEPzAk3f3k3+H1sVHOt3tL/XKvoR9CVLbx0RTNmFo45RTmz595BBSUBaWqTNk2xfhbUruzR5ap+JNSTNwZWhq7/pfftWUll/+91YeTT18k347a/xsbJxXrmTCM3k3+UL/F6sYchAu4yPacpZNmCz6yJXb/g6Y/lOmfppAlnKS65usMtLA9nxE8Y2Jm9Vi34xe8e2vMmySh+XAoHLlyhdEhVTRT9Kyw6AOH37i3Wo/+AvRkPXLGq8XqXoR+nZq8ZS+t0y/la2PcUEElc9yo5fdkDBedgBHD0nt4W4xsdRhRhDQozLr2Lv0zsk6NDZK/SXIvrR8zGf5/Lm+Bq/W8Y3NH1RaDJZll8ZRvRu6tETzEzj06EJSOyQePpgRAIgiVFlx2tfP+Hqh8keNyz6UvPjp+9dly+Hno31XyyY8/lDVYt+sfxJ8F+27KbmsRy5ol+MAefDH8ldz+fGqL4xzM5Dsu1k29eOu2V8smz/FLJn2RhSI7L58q9jXNCUJzafqXsOEmtfoY+j9ruxthhjHIo3tfFHJ9sf+y9tFaUFJPxB3ubkmw/nzi9iPsT5p670c43NqR/zXPFELI2Yn/hiNC0HaQ8pptG/u4RNucrS9wynmWtDGTv5BDPNnKob/J/q0heiHxuVOmFadff22+82RTo++F2uxLEbOqvdodVKdDMnB6b8PqU9ZsxRZty4T5hzz/lscHtBap70fKxc0uF9S8x51dHbxf5//sJMk8FjjhndWJ1kr5Sxy8nv79y5u8mUg1b7XU15NPWiCcT6hzY0y8ur5uyt23z99s5itaX8es7bTseNO3ZE/aoqo29A1gajtr1o4MzxsZiPUDlDZzWEfgsFHbLzjw0UlE5u/bTlo/Q3fP2JllUG1D7PPPOMxvXuxJaWr7vaeBmGNJjRKjm7fZHIOHny6ebss6Y4MWp8nPozuSKX2i0Jg7SS8efFcnc6S9G1NS3GjFjdede9DRGUVmlyuiuW3zyirFS/TU8+21zZJ5keeughzT7K9mf+Shf6chhqiyz62b5FZf/hD/+ypUyuQSzX38r4AsHTCCS+dpU7flF6xPKhos/k7blkp5kzz2uujuY8uZ08//xLzf5crnJiu4W2PFId5WoeOR6wTV12j/kllZHbkxxv6N9JUKTVSrSK3x4HNL4mmef6hqb8mrLk8uM65DCSgWvqB0op6IW2skmh3n6O4wi7z+FV2czW7p+143VuP0xcuN3t2LmnuSKcY6TxRQwxdepnnJcGhcZHTleu7NO2E40PabiQ3XhlH5VH23eH6uWb4PM75Fu0+pd2lfjGPl+MmRKjaiafrj6ok20/ZdzN8cmq+ieX/cvGkBqfDvldTp8XylNTHk0bq3MOEutfqm6LufFmavyRM88p69v2+MJHqvC8kfpm2hVGcwWKa+2/3PmFxocor1DcGYtJ5bjrO3/b50uxVfqu93LaopaDnZ+cT/vEKinmhY5hy7VhzD70u7Zv79T403fbe2OdI34HARAAARDoDQIckIcOwqea+C6d6GQtOQALiZ2dLB/yHkwC8qt51ecTDyZR1BoEQAAEQAAEQAAEQMAmUOv2XuAGARAAARDoDwK+C1Ds2mm2M7WTiBRWfLcut7M8yAsEmACL0bln/4AkCIAACIAACIAACIAACMQIQPSLEcLvIAACIAACzbPHQtvG5dYWOqdFXljRKYQsrKRun+xUeZHvYBCQYnTK+W2DQQe1BAEQAAEQAAEQAAEQqIoARL+qSCIdEAABEOhjAnz+ClWRhL/p089puYVR3mBM22jXrV2TdeZWlQhJhDz9jPMa5yN2Q3mqrBvS6m0CfP5Zt4jjvU0TpQcBEAABEAABEAABEPARgOgH3wABEAABEIgSiN32yQmQwLZ40bXqA+OjGZd4gM8hXLL4uujlSCWywasgkEyADgI/4ojDzH333pF02VhyRngBBEAABEAABEAABEBgoAlA9Bto86PyIAACIKAnIG+5euutvc1bNSkF2j5Lt7im3piuzx1PggAIgAAIgAAIgAAIgAAIgAAIpBCA6JdCC8+CAAiAAAiAAAiAAAiAAAiAAAiAAAiAAAiAQA8QgOjXA0ZCEUEABEAABEAABEAABEAABEAABEAABEAABEAghQBEvxRaeBYEQAAEQAAEQAAEQAAEQAAEQAAEQAAEQAAEeoAARL8eMBKKCAIgAAIgAAIgAAIgAAIgAAIgAAIgAAIgAAIpBCD6pdDCsyAAAiAAAiAAAiAAAiAAAiAAAiAAAiAAAiDQAwQg+vWAkVBEEAABEAABEAABEAABEAABEAABEAABEAABEEghANEvhRaeBQEQAAEQAAEQAAEQAAEQAAEQAAEQAAEQAIEeIADRrweMhCKCAAiAAAiAAAiAAAiAAAiAAAiAAAiAAAiAQAoBiH4ptBKfnXjKVLN//34ztPAKc9m8WS1vh35LzAaPgwAIdIhAv7fj7+3YZebOW9Cgu/bBNeaE48d3iDSyBQEQAAEQAIH2E1g4dIP5ztbt5tOTJprVq25vfwGQY1sI9GI8B99si2sgExDoCwJtEf3mFJPGHcXkMfZ3fDGhXFdMLPvlb+z4UxpVmTf3EnP10JUt1Qr91u31/7PHnjQvbnmladNRo0Y1gqEpk08zp546XGf597UHHzarVt9v6Ll1a9eYY8aM7uoq/vSnf2cumXWFeW/f++bCC843S5dc39XlReE6R6CX27GG2re/vc0MXbOo8eiqr6x0tm9NOnU/U2aMCb179NFHmTHF/2bPvrh0v3X3qvvMg2sfcaKgvvGYY0ab8eOONVOnfiaYF/qnur2p/9KndrzkxtsaHyGX3XaTOfusKZVXMuTfdmZ7dm2rPH9NgjxBpna9aeNDmleczyxbfod57PGnjEyHGdMLvRDnZFc+4UWKFZevuLPxRlnmCdlmPRryDR4j+m2OkgWqj1/KjefaFUO40HfSNxGL9HFjQNX6kkBbRD/uSGME+21A7TfRjzr4K+dfb955512vKT935mSzYvnNLb/LAbGbhQMutBQ6+s0nY20Qv6cRyA0S03Lp3NO9IvqVGWO07y5ZfJ256MJp2cbQCpOUAX1suPyLl5pDDz1kRH7on7JNMLAvSkHO9RGyCjAp/t0p0U+29TJlkHXldCTjXohzqrB5LI0pU6c3Pp7yX12Cc6wcmt9DvtFJYUVTdjxTDYHceK5dMUS3iX6IRarxO6QCAu0i0FbRj770Lbzqi966jTp4VNu2j/HqsyMOP8y8uHlTLbz7TfSTgS6t7Js8+XRz8KiDzL73P2hZ+WcH01jpV4t7VZ4ob+WkVUer7l7ZtrZYeUXamGBukNjGIpbKqtdEv5wxhm1ov/vz/b8w27e/Yb75/JYmwzKTefvjhzTM3nd/bN4t/ifzovLcd+8dI4Q/fF0v5dID+XJspV8V8VDIv23orh0BZQyjHbtiK/14e19M4Pet9KNV0aEdDZy/6+Nomfp347vyaAgun6beWhton9Oy6faVflXXV8tlkJ7LjefaFUO0U/TT9FWIRQapdaCu/UCgraJfN62akl9ly3zxDTlBP4l+MoDznWvy3DdeNGvWPFCbiNoPDa6b69ArAk83McwNErupDqGy9IpPsB1yxpjYu3KLWpkznVyrg2z2b7291yxZemtzNXVOfXrFt1DO7iFQRTyk8e+6alxVP1V3fz5IK8ZYGKUP62PGHNU4E48E0e3bNgfdQGsD7XNV+Fw32K2d9a2CWS+mkcu4XTFEO0W/bvD5XvQhlBkEupkARL/COhD94i7KKwHoyTKrXeI54YlOEahq4tSp8nci39wgsRNlzcmzV3wiFnRrPs6EBDa5TS13vNCKIvYxCt28JS7Hp/BO9xGA6Ddsk7r780GaSHOfSUcVHHXUx5pn+8VWUWptoH2uitbWDXZrZ32rYNaLaeQy1sQfVcQQEP160atQZhDoHgIQ/SD6qbxRTgowCVUh67mHekXg6SawuUFiN9UhVJZe8QlN0O2rp+ZdrWAXYpmSBs7K6ZUW0h/lhOgH0a9KT6ZdH0tvvLWRJN36/u9/73fM6Wec1/jv2Gpp7Ziqfa6KekH0q4Ji96eR61PtiiEg+nW/D6GEINDNBLpa9JPntNCWAPrve+79WuPWWNomcOEF57Xcikur0V7Y/K3m1ijaVjBhwriWmxf5XAyfUXxn/Nk31tL7tDKEbqz1He5ednsvTfw2Pfms2bFzT+PWPfqjc54mfeqT5uLPz3Ae8s7nMAwtvMJcNm+W4TRoawX9Uf3OPPMM7/s+LmUmofJMP9/WDtrWtn79BrNz5+7mwc8u++U0phzbsZ8wR5kv/0bB7AmFD1D6G594pul3ZKOZM84tdeh/O23PPhNiu/Hx9S03ilJQv2XLy40tO/RH7fH4CWPN9GnnjLjh1eeT7Nd8+7PvhlT7fZqgPvb40402QayXL7tpxG2nOTbn+tvvhvzQbuO5vpBjb25XPIniNkQ2ITYxrlxfO2/53ns/2Re9vZdWpm34+hNm66vfbbaBkD9wvvTeA199yGwtysuHvcf6N5+PaoLuMu/yV3rN9jRfPimiH6UxfealTZ4vv/R0S38f6p/IB3fvftO8XVy4JC9d0vSnLlu66iPHyZRxmnztteKcRDrDkMZx/ov5i+3rlOemTc82+h/yda7bddfOb3LyjX1XD13pNJHdr9vxBI0xoqvqAAAgAElEQVT3084/u3nzLbN6/vmXmv5LbfHSSy9OPg+17vrJ4zl43CIIufGQC2Cqf8s0cuOW1LGLn5fCk9zF4Gu7cnVaqg+7zraz83GddZfTr9pt0eejrnE6J7byvbN4yS2N80llPyFtZfdnWhvsL85ZXbX6/mBRpa3sdsVH0NB4Q2VbsODyZnt2+QZnZIt+dt8SG2tDaXMerjhZy8Weg+TE03X6jq//sQ3pG9eqKpuLC/UF3B7qFP00MUROHBgSpKm+m4s58a4iHnjrrb3NeSRxd81fc/qqUCwiY+rXXnu9ZS6riUdyxwXbr3LaQ1XxdZX9KtICgbIEulr0k0ITBapDVy8a0WmtK/7dniDZUGTgkRrkam6s9R24Xkb046DJZ2DfZQs8ANANffv2fdByMLxMy1fmkEPJ5ek+scX1fmwVgTwzSxN0a52+btvRisf1D23w3masObTaVZd22z514sRn9fjsYAuE0icpaH/s8aecr+b6tNxuXsbm9O4Ni77UIkbIgrrKx22ctjDtKyYSLIJqJnX8TK69uV1x8LZ8xZ1JXOnhUNuj+n6u+EDA9nJt66cg0e6XNXWnIGzO3AUt/bl8L7Xt1Cn6yXEotVyyTqmiiGxnNnvf2KKZJPramabtcH3kmKodpzUTCkrftf1P6+s8rpGY7OtnfDZkprF+nco3evTvm6XF2YvyZlJmk3MRUt31863YTY2HQmNvqn+72kZq3JI6drkmyJo2wz6Z48Oad2yfzO1XY21RMo9ts9XGWa7n2K9oXFy65PrGI3KssfPW2iBV9Iu1K3mTdUg8kb+NH3eseXDtI0ljrWaloCtO1nKRol9uPF2n72h3DPjGtSrKFmtT5Ats19QbzmPxhyaGyI0DQ74V69/JiWXfk9NXhea52pjC1xdVMZ/NbQ+xvqPMeF+mb8W7IFCGQFtFv9DNikccefiI1Tqyo6RAmr7oUwdFq+voxlgKAGg1mxwY5cos/spBK1A2bXyohVNMiOKHebUFTXLmzPmCOf20SY2VBNSZPfPsC2btukeb5Vqx/OaWPHJFP57s8WrGqVM/02Rjf6m0bx7mTpJ5cRrjxh7bYCZXpKUObK5Bk+0Ruo0vxFpuA6G0pk8/p7lKQq7sJLC2mBRz/Lptx4zZNw4/7CONFSzsE1S+1PMPO2l7TWAmgwKyF6+sofbw8itbzbqiPaxa9eWWtuzySRKTTp54oqEbUuWKQddKW/t9yZtWDc0oVlUeM2Z0wx3K2FxOIFlII5tSu6F60QTf3prEbVyKIdRPaH2hjL25XbEfcgBH/aPN1XVenbSl7Cfsd7luti9L4c5eBUW/PVGsfmXhxQ7qmDXlu/y2G5urQ3kFF+Vp96eh9s52SB1jKE1fwM7jB68qpbKuW7tmxDgV64f491RRRI5rNj/f2EIBLvnqpGL1ArUv7pd5xQ9Palxb7HjSQfUcWnh5c6Uy9Qur7/lq4+MG8bXHUu04zf5CeU8synbSicc3V+VRuVetfqC5QtVeEe7ydRIUqI72uEb9A7VVe+zj9H39MjPl9sQrtqktUz/Dvky/0x/FI+z3dIs9rcpn0T/1Apa66xfr27XxUMjXNbf3jjp4lHMVZNm4JVY/uw367BNb6VPGh6kMGvGnTL/qaovSR20/fuapR5w7RrR9mus5OcmWq0qpD+Itvq5+hNOK2SDlObtdyT6BYrXDirZ99llTGklqRD/OOzRehmKYUL8Qa4MaLmXi6Tp9R9s+NaIf988pfk2+d8msK5ofaXjeQvaUbYLtmzo3KhtDlIkDQ35LCzXoEp2TTz7JHHfc2GbsIsd0qrNsp9q+UtMO5W4FGVMz928Wq+R5F5vr2Kiy40KZ9lA2vi7Th+JdEKiLQFtFv1AlXIOhHCjo3djXgJRAOzbAUn4cvIQme3JiZotSOaIfBXwzL5jdQOU7O09O1m0mMvB2rcajwe/c8y9pbo20J3AxR7OFOH6e2F81/zJnQB9iLQ975i/CsgxysE5ZZdMO21E5pfDF5ZZ+K790x9h22vaawEzTbux62j553713jJhoSMEt5tOu98u2V1l335lDJIo0BMBfrS6mPKXol+oLZe0tbWGLZ3bgRv9tb6mSzF3iNAVMK1be1QzK7GdYJApN4DgPeyKkmcDE2ov83RZfXe/GJvqh/KiOixddm7xtU6aZKvpJn7QnIbn85GoC+0KSUJohX9WO0zF7SrHA9rWYr8vyUT6u1XaxfjnWlu2VGK7xSNrYbm+h+tddv1jfntOvh/r5UF1dF+GUjVti9bP7w1hfkDrp5/RDPkzPaES/Mv2q3RZdx5PUfT6zr8+n+ssxx/cRV9u3aZ6z29Wqu1d6+3Ct6OfbJaOJYeoW/crE03X6jrZ9akQ/8qNUv5bzNFfbpnkNxTp8HEZq+9fEH74YomwcqOlTXP2xzNdVX226oQ+QvPvEN3eTc9mQWE7lz5nPlmkPsTFZ9ueu+DoW7+B3EOgEga4R/VwTbc2SaIImzw955OH7VV8uNUEud3ohsUl+vbRFuhzRj8vlO1uQnYS/oNiiEpeZ3vexCE38tE5Itnno4T8bsRUytDWL0pYBv7RvaBUffwULiQu+CUidtgsdSM2DTY4Q3SnbawIz31f8kN9ofFIGILbN5Nc+TdCeY3O5lTLki1ROXlVIdeY2nuMLZdu67MNcX2qpfKFJqKbs8kupb4tpaJuYfF+KINw+Yoe6a/sjTdDtyyv2blVl7AbRLzTuMQff6mTNhCzlw4xt21D/o/F1ydfXHkL9cqw9aD4MxEQfnz/XXb9Y366Jh2JtUfL3PUtirOtcX80YEYpbYvXj8sQmshohKcQhVo5Y/nJMyelXZf4uYYTSj032Y3YO/S7jYdcHT9k+fOXT2kDznPTr2HZmjegXiqs1MUydol/ZeLpO34m1C/YpzRiT49cyhvSdKy59t2rRLxRDlI0DNX2Kr82G2pA2XV8aPEelPj+0oljG3va4XWZcKNseNGNy7nhfpo/FuyBQhkBbRb8UAYQqpR0o5HP2NlxNkO368iyDLy3glNUYvo5SEzjL8thMNR11FQE+l8El/tnipy8/+e9axj5b2e/HJvL281XYTqapsYNdhk7bXtPe5EpR1/Zzlx21LPj8kRyfLtteuYwpwrLMMxQk+upf1t6aduyzqSbAD/XB9qoATfuVYpIsu701WJOWr72njjHShnJrMK3ofHHLK82PGj4xK3SmmB3op4p+kpH2TL8YO43o55oca1f6pR5nIMurFf18Y4CmPYT6Io2IEHtG04e6bKQpu+YZX/1i5dKkHfOtVP9OHS9DZYzVj/OKjUUx+8YYxMoRy79svxrLn8tftp4+DrGPgjJ+8H3c1JZN81yKX2tEv9j4UiaGiZU1Vt+y8XSdvlM27bLvxz7olG0XnH5ODFE2Doz1KaE+q07Rj9OOfQgMxaKautU1v4y1xxSNIjZu4HcQaBeBvhD9CJY8E4jhhc6b0zToVOGoipV+qQOAb6VfmS+KOc4nv8LbwVxVnXKKINMJ26VOYsqKflXbXhtY0ZJ8+xD70E3WmoGbWMTEsVjAXcbmOSsz2y362fbW9GEa0S8k1Gje1/QXriMS7Ath6Bk661Ge0ahJW9oh5iOu9NhvXO9KUc913EKdol/ORR5cPxoP6ba8n7z3vveiIVs805zp5/pqr+03uGz0PAmqJKzKG3ylbULbeyH6ta6Y14w7MRtp+pJYWxwk0S/Hh0NjnGwbQ9csiqFu/m73qzE7lxU3YgWTZ+ra503zuzJWdK3IjYlbKXVI8esqRL8yMUysrDEuqaKfHU/X6Ttl0y77foxdik9VHUPUPefj85XpDEv7Bl+uS9Xbe1NWE0vb2uXQzB3qml/G2iOx0/plrN/E7yDQLgJ9I/oRMPqKSJdrbNz4dMuteq5tBpoGrR0ofMYKvR9b6ZczedUElfSMpu45DigPbZUTM02nrF3Bpy1XJ2ynmXyFyq8Z4Mq+X8VqCS4DCQtyNRT9O/nt7Su/1LLFXluvMgEz5V3G5r4v9DF/0+RZtl6+MmjasUa0Kyv6lVndxQGpPNDZvkgiZgNp+5x+MyT6lT0D1dUn0L9p+jtffxrydSrvlfOv9wp9sjx2GeRWbB9z1yrAlMA3dkMh5wvRb6QFNO0dK/3Cl2fFxiJNf57rw5r4LKUtudqo9n1NPTX9rnzGPldT874rNteWTfOcps1wOftJ9NOML7Z96vSdsmmXfV/jK2ViyDIxRKxPirWj0Puam2sp/apFP3lWX2yrdDtEv5z2oOk7tH4ZsyF+B4F2Eegr0U9Co8bINw7Sv2u3nMo0tEvCfcYqI/r5zr6JOYZmANF0ZrF8XL+ninvyed8ZTDnlkIN37nlcObaTZdXYwa4bv9Mp2+cOYBTsr1nzQPPmypwViMSizNaYsjZn9imrSbVBYkz0y7W3ph1rRD/fGTlUv7Lvp7Rf+wbXlJtyQ0F3rAyxd+Ukv4zAmbISSnJ39WGxj0YcyNOtfScUQjz/hXyGV7tSkL5r95vNVXi0cnvChHFm9uyLnTcXa/sNmTfVafq0c5q3C4d8jX7T+LrmGWzvdYtiGnaxdpTi376xL3eHgtYHY+NyTBwo48NU51j+oa1uMf6xNuSKbWMTck2e/Iy8LEH7nmuLb8wGnLbmuRS/rkL0KxPDxMoaq2/ZeFrbhmLlcNm+bNpl39fO5XLqJuNAX/8ViiHqivslM4prZ196sTnpxONbPsiH6hvrq2LtkNNO2d5rz9M1ZdDMO3Pml7H2mNLfavtDPAcCdRPoW9GPwMlVGnZwo2nQmq0KIQPlCEfaCwV8+ZbpJMs6my/o97GWK0tihyynlq0TtpNl1NjBrlOnba8NrFJ9TyOoyS+DuaJhGZvLoCznIo+cM/3K2lvTh/lsKg+tDgVlciInBS/t+6ntNtcHY8Kdpp/2BezSN2MBbCifFFFErvJzCY2+sYX/3XdreKwvThW9UwLfWD8Qsr3G1zXPQPSD6EdbynNv7y3jwxrRr2y/qu0/c8WNUP/GHw1iF5FRGnK8TTkWJ1W41PQJnKZG9Av1j5oYJsRGxgOulUkxm5WNp+v0HZm2L9YPXaRRtmya2DBldZrdDmLxRyiGKBsH+vxW+r7vJvk6RT9tfxCKvTXzqFhMQ7bKmV9q+g6tX6bGwXgeBOoi0NeiH0GTqxeuHrqyyVHTIcpnQqthfMbJEf1iKzxijlCmk4wFdGcW521d/PkZztuRQ+X2dZ72oc7am5djDOj3TtiurOjXadvL/F3nl8W48+Dtu4iD3qeg+b577xjhQ1IQ8d3gFdu6WcbmchuEb3Uo1Y/OIVv34JomilggHprolbV32aBECkuuL6H21hBbfArZLOYrvt/lFrGUVXWxoDtUHs27kpUvgI7VWSP6UZ94y623N1fNxm4cTrmAiMonzyD0HcGQwp3S1Aa+sbHJJzDb/TnO9Kv3TL86/dvXRmK+EfMB7dgVyycmmsfeD/mwHAtC4lGZflXbFjXjVqw/k7+HBC9XOrKc9oeUmA04Pc1zmjGS09OIfvSs6wgTaVv6/+3xNHQ+q+3b9N8h0c/3QadsPF2n70hBzxXHkf+sWHlX81gKe1wrWzbJ3zWXo/yHrl5k9u/f33CH1BWwZWKIsnGgRvRz+VNM5Ix94LDbYWhhjY+nLIPLL2L9bWhcKNseNH1HyC8plp0zd0HDp3L0g5T+F8+CgJZAW0U/ebORq4CjDh7VshVJ29GTsEfbj6ZMPq25XYga3Pr1G8w3n9/SyMqeyNiTfNpq9PP9vzB79rxpli65vvGO7DR4IJDbpSiP739/T+PA9P2/+GWLGEDP54h+dvBgb4OiMr3+xg6zffsbjYmhff18mU4y5DS8bYEP2x879lhz8KiDGsyoLMyZfl9190r1ljLZsbqWoJMPvFakv7Wo6+JF17ZsBwuVt1O20wSQoXLLgL/dtpeCC9uCbEzn9l137fyGUEeiAf1Nnnx6c6sAn6W5avX9zoBJ1okeIB+ZO+cLZvRRH2v4z5NPPdfcSpg78FfRXqWwwxeTHH7YRxpC38YnnmkEpHb5NJMn7WQi1d5lgxK5MsBnE/p3DoTtPlT2z3wO33HHjW1uAaWAbteuH5gXNn/LTPrUJw1/dOGLYOgjguxPZeDvujAi1G7YDqljjOynQ6KyHC9yAzjZDoil/CMf211sqaU+nXn7BPLQ2MIfuYgf9ZdnnzWlkQ3ZWrYz+jc5EZC2tDnT6pQjP3qEGXXQbzbsddGF01oe0Y7T8os+MTz3nM82+hSy+6ZNzzbHENd4rfF1zTNY6ede6aeJh0Ltz45bbP+23z311FNa/qls3KIZu2QZfW1dtp+hhZcb6v93FzHhuCLeoTKX8WHKX75PE2FKl9r+/mIcvGzerAaT3H7Vfjck3ofGLRZINCv22Ig5q5UkaxnHxmzAeWqe0/QJnJ52nM6JYWybXnjBeU3bc2whG4RLpEmtb2o8re3HNTGPq6+Q4x+1v2nnn92YQ1B8/9jjT7W8UrXoJwUYyoiE05MnntjIk+JbOX+h8bcO0S8UQ9QR98v8SFjn4zmIxeYiJnvs8aeDIqemrwrFIvYcTMbUmnmjpr+mZ0JtvMz8UtN3aHcnxBYsxMZW/A4CVRFoq+inKbRvIqIJYHzpu7Zk2R0Sv2ufr+W6qdSVj6tR54p+VLYbFn3Je7NhKDgoGzz7GGrOayF2y2+7cYQwF+s87Vs8fWVIXYHSCdtpAshQO+i07W2BjsvKX659v/NzLqFC+iRNojjAsjnEVgFqBs4yNo+96xK0NQFwqE2WsXesXRHfWCAfOpSeJn3Llt1k5s5b0DCVq/25bk13+bcMokMCE7+buh2D7ZA6xsigNeRf9ldj382UofxjbUe+61vNwc/4/C52GQeNhdz+fLf3xhjanGI+xunZEy9X+6d/I3EdF3mMtIKmvfv6mpiNtPFQVf7tWzWce6YflSs2dslnfPlIxrKuLPSX8WG7P5bp2yt6c/pVTX8f6z9sjtoD8FmQSjkeQLKW/X3MBlwHzXOaNsPpaUQ/6pdJoE2NYSiP0FhL3GbOONcsX3Fnozgu7pr60ru58XSsj9D4Tqh/sFfT2c9SGyMBkLbfVy36UV6hSy34oyVfTFeH6BeKIcrEgSG/lR+ybd5U5+MnjG18aHTV1xen2X1VKAaO2ZzK5IqrNW3S1Q+42k1ue9D0HRD9Qi0ev3UjgbaIftrJjktw4wln6CBOanjUWb9dTBZowsAdCXVotCKJVzvYBqAO6aGHNjS3UtEkd+bM85pfXPl5XsnEAxL/Oz0/ZsxRZty4TzRXLcg8eHWca2VI6DdOgwYpWkW4Y+ee5hcZYnTMMaPN+HHHmqlTPzPiYHXevhW6wIIFPJt3zEHl1e80MPMfBdD01YxXbtjpaPJjG+7cubvl5mVKm1aEUfr26oBYeen3TtlOY4dQ+Ttle+J15133NlcckY+QL61YfnOjuDEf4NUKsm52UEJ1k1+3KeCllWC+reOpLHNtzv6y4etPmK2vfrfZl1A7921t17RjTflz7K1pV3L7hK8PtVeB2fXlOvreZ5/YWax65v6XWJJdxxT/G1f0VfbqMK7v22+/22zvfGHE9OnntKwU1rTz3DGG0ubAOHbpT85qFll236SNnuHVdNTPfapoC8eMGR2sdsjvqC/d9OSzLeOGXEVK79KfvUqcJ6X2RzJqTz/84V820qQJAv3JSYLGx7gyvAJf9vM84SUf4bZi+5rG1zXPhNqipi3HnklhIQ2sKbvmGV/9NOXSxkM+xwz5t/2ObV9NHxmrf2zsojJo8qF6PP/8S81+idrOggWXN9tkrg8zA+pv1xdxJ/eVvDrZjm9y+lWNnakcIT+WfalG9JN5pnyskQKq3efEbMAsY8/FfEb6Zcg3+DeO5VNjGM7H9R6JfdT3McdQXB6rL+eTE09X4TuxsZrbDq9o5/iSV6HZnDm9qsrGfRzPqbT5x+pVVQyREweG/Jb6xFA8+8yzLxjaoePbvaDpq2JjIpdBXg5GPGluR/NYX9yv7a81bTynPWjSDfkltvfGWg1+7wSBtoh+nagY8gQBEOgOAprVp91RUpQCBAaTAAe4sS19PLnRrLodTJKoNQj0NgFetRf7CNLbtUTpQQAEQAAEQGCwCED0Gyx7o7Yg0HYCEP3ajhwZgkASAd+FV3YiaMtJWPEwCPQUAd4CSSug1q1dE11x3FOVQ2FBAARAAARAYIAJQPQbYOOj6iDQDgIQCtpBGXmAQD4BPpfHdf4tpyrPJIqdOZhfErwJAiDQKQJa8b9T5UO+IAACIAACIAACeQQg+uVxw1sgAAJKAhD9lKDwGAh0iACfC0TZk/Anz1Ukse/lV7aadesebZxzhlVAHTISsgWBGgnwJUApl3HUWBwkDQIgAAIgAAIgUCEBiH4VwkRSIAACIwlA9INXgEB3E9Dcskc1IMFv8aJrvZdjdXctUToQAAEfARL+6YKDVXevTL5ICVRBAARAAARAAAS6mwBEv+62D0oHAj1PQHNjYs9XEhUAgR4nIG+9fuutvc0b46lasRvae7zqKD4IgAAIgAAIgAAIgAAI9C0BiH59a1pUDARAAARAAARAAARAAARAAARAAARAAARAYFAJQPQbVMuj3iAAAiAAAiAAAiAAAiAAAiAAAiAAAiAAAn1LAKJf35oWFQMBEAABEAABEAABEAABEAABEAABEAABEBhUAhD9BtXyqDcIgAAIgAAIgAAIgAAIgAAIgAAIgAAIgEDfEoDo17emRcVAAARAAARAAARAAARAAARAAARAAARAAAQGlQBEv0G1POoNAiAAAiAAAiAAAiAAAiAAAiAAAiAAAiDQtwQg+vWtaVExEAABEAABEAABEAABEAABEAABEAABEACBQSUA0W9QLY96gwAIgAAIgAAIgAAIgAAIgAAIgAAIgAAI9C0BiH59a1pUDARAAARAAARAAARAAARAAARAAARAAARAYFAJQPQbVMuj3iAAAiAAAiAAAiAAAiAAAiAAAiAAAiAAAn1LAKJf35oWFQMBEAABEAABEAABEAABEAABEAABEAABEBhUAhD9BtXyqDcIgAAIgAAIgAAIgAAIgAAIgAAIgAAIgEDfEoDo17emRcVAAARAAARAAARAAARAAARAAARAAARAAAQGlQBEv0G1POoNAiAAAiAAAiAAAiAAAiAAAiAAAiAAAiDQtwQg+vWtaVExEAABEAABEAABEAABEAABEAABEAABEACBQSUA0W9QLY96gwAIgAAIgAAIgAAIgAAIgAAIgAAIgAAI9C0BiH59a1pUDARAAARAAARAAARAAARAAARAAARAAARAYFAJQPQbVMuj3iAAAiAAAiAAAiAAAiAAAiAAAiAAAiAAAn1LAKJf35oWFQMBEAABEAABEAABEAABEAABEAABEAABEBhUAhD9BtXyqDcIgAAIgAAIgAAIgAAIgAAIgAAIgAAIgEDfEoDo17emRcVAAARAAARAAARAAARAAARAAARAAARAAAQGlQBEv0G1POoNAiAAAiAAAiAAAiAAAiAAAiAAAiAAAiDQtwQg+vWtaVExEAABEAABEAABEAABEAABEAABEAABEACBQSUA0W+ALL9w6Abzna3bzacnTTSrV90+QDXvnqp+7cGHzarV95tRo0aZ7ds2d0/BlCWZeMpUs3//fjO08Apz2bxZyrfwmJbA93bsMnPnLWg8vvbBNeaE48drX8VzfUoAPtGnhkW1QAAEQAAEQAAEQAAEQKANBCD6WZDnFBPuHcXEO/Z3fDEZX1dMyrvtj4W9o48+ymza+FBL8bhu3Vr2bmNZR3nuXnWfeXDtI42k9+zalpyFFA3XrV1jjhkzOjmNMi+MHX9K4/V5cy8xVw9dWSapnnj3rbf3mjlzF7RN6Pz2t7eZoWsWNdis+spKc+qpw7zxN7gE4BODa3vUHARAAARAAARAAARAAATKEoDoZxFkUSMGtluFM1l+W1SC6Bezav2/lxX9pCjdCVFo0EQ/Kbi0Q+iEwFN/G+y1HOATvWYxlBcEQAAEQAAEQAAEQAAEuocARD+P6Ecr5RZe9UWvpUYdPKort97VvdKPt3cuWXyduejCad3jyT1SkrKiH1b6tdfQEP3ay7tXc6uzX4yJftwnHHH4YebFzZt6FSHKDQIgAAIgAAIgAAIgAAIgUAMBiH4e0a9bV/KV8YEqVvoN2kqvMrxd75YV/aouT2p6g2Z/iH6pHjKYz9fZLmKiX6/3KYPpMag1CIAACIAACIAACIAACLSHAEQ/iH5Jnlbn5DapID36cK9P0AfN/hD9erShtbnYdbYLiH5tNiayAwEQAAEQAAEQAAEQAIE+ItAW0Y8Ow1+z5oHGzbH0R7fHLlhwedsvIdDYjSdvWOnnplXn5FZjn15/BqJfb1kQol9v2atTpa2zX4To1ymrIl8QAAEQAAEQAAEQAAEQ6H0CtYt+P/3p35lzz7+kcful/Bs1apR55qlHzKGHHtJVFMuKfnS+0gubv2XeeefdRr3onKUJE8aZ2bMvThY5abK36clnzY6de0bwk9Dk+Xp8ph8Jq6tX3d7C1t7ey+mzGEs2offssvKZUSFDxc74+15xI/Lc4mZk+htaeIW5bN4sb3JcTlcdXEzo/MVJn/qkufjzM5z+xEw4XxLeHnv86QZTenf5spuatqFybtr0bEOgZp8lAXjK5NO8ZxiSqL1+/Qazc+du896+9xv18r1ji378LufnswHDkmf6bd+22cmQ2tyGrz9htr763aYfUrrHTxhrpk87J3gjrKsuZAd+TyNu/NljT5oXt7zScgt2jKFtI9s3qR2deeYZXhszCFf5y7ZBvk039SKPHDvYAs/HP/4HDVs+//xLTd+S9rAdgNsZ2Zv8g/77nnu/1rAF/duFF5zXuHWZefNzvsYoy7O2uK38hKIt8F9O/bTlozwo79e2v2H2vvvjFl+K+TK3Ee4/UtsY5U11e+CrD7sG9OgAACAASURBVJmtRT/AbdruZ1L7RSrH5mJs2LX7zf+fvXcN1qo6833H5xZ7f4lBs3ftfbIl2HWiLIRUacDQHi+AqNwvCYEtl4iUAYxS5UZQKxVlQXuO2i6IFU24lYS0XAVbRIxWQpRoVUOA2FVbhM6njmh6nw/bZffZ3877TPPMft6xxuWZc8z53tZ/VXV15J1zXH7jGc8Y4z+fMYb58MMLTT491D98oh+fI+hrO/uMP34+5H9D40cVfdTVP13lv3PaZLOp//Gmn8r0bdve2Ga1/amjJicoDAiAAAiAAAiAAAiAAAiUIFC76PfI+h+Z144edxZtwfxZZsP6tSWKXd8rKaLfnHn35CKLXcKih6yTcNK/6RlVRaXgFjq3T/42tu9as237bmf6tKgeeG5zvsAvurj1FXrK1DnZApoWzwf27XI+FhIHQ7ZEidnl5gy43iTaXLr06RB75FtwX/37N8yGR5/wMncJm9ROA1te9Iqy9uJVin4bn3zMbNr8rPNdX11ikYLEb80D64IisWtBTZWOvUv82GZcAhgtqFfev9bbBygPavufPP/0EHE21kbcKL736XdNn4mJ03bjl430i7GkfFztIPMjcUZ+QLDL5qqLLdLZtsARzJIV2eHdd01x2r1PHKyifiQi+son/UDICboYcB9hIc3nR319jMSlpctWRft0Ub8YE+k0NiFv7I6lZ485GsFeM374/Gisj2pshtOw+0bZvh3rD9K2ivoG1eCMh0AABEAABEAABEAABECgzQRqF/14EeGqZyduoeWFUej23qu+cuWQqD25AJSRFBzdQVFXPqHLZkPvzJu/JPtnuRWaoxRYeHEt1jWLNs6PI3/6xlxrPhv83Bw//la+BdsnUmoWjj6b3tj/dCPC7lD28769O52Rj/KZt958JReH+N+5zFOn3pa/T2IdbR8nQdFVbmZC71L0Hj2zdOl3zZUjv5xFEs2dOyNLixfRdvQfpX/w0KtDov2kMEFp39mIRJs44YasfhTpxmK3jJCSop1c4FIkod0Grv4REv2kWEHvzp51dy7m0G/79x/O+dsLXLKtRYvvy6OaaNFNZaI/YsTtxmV2iX4sejPfW2+ZlLUfpX34yOtm+46fZ/xdYpfdRtI2L33yqdnXKDtHz7ryloItpT9nzvRctJbRbiHbc9ltGdEvpR1kflwebsvLR1zW1BauaGn5Pts7tyVxHGz0c4qypTa59faZWRY+EVg+Iz/QVFW/UPk4D/J/Exp96sYbxue+QArtrkhF7iOcPtdR28ek0Nn/5KN5ZCxHAVN6dhSaxi/SR4/Ro682EyfeaK6/fkzuv6jNtvz4p7l92xGVVW3v1ZRRM34w16J9VH70Wf39e3Ousj1dHwJT+rarPxTpT22enyF7EAABEAABEAABEAABEEgmANHPQsgLoxBZlxhTxc24nKdctLq2QHPEmytiTrNoo3x8EVO84KVnXJEPmoWjj50UM31RnrwwlFt75Xu+qCQpwNnllsKzr96xhbWrTjJde6FOz3NkixQOpGhHi2b5G+ch05XCJ/0eEv1CdsFpc/va4qgUrV2iGtWFohJ9whtH4lCddmzf6hR0ZR626Gu3kdxyTWUnAYqPCXDZPduNz66kqOkTuVxtXEb0S2kHW/RzbcW0o0VllJ79fih6SUbO2nZGLGR0lbTvKutXNrpKlk1Gv9l9pEwfK+Pjyrwj7U36OLv/xXxTLPqX89GUscj4UaSPxuog29O2xZS+ndqfkmdYSAAEQAAEQAAEQAAEQAAE2kygdtFPRm7Zde3k7b2hdnGdNccLYRJTdr/0QtJZhXJ72o7GFjj7L7TI0yzaQmWUi0+XOKJZOIbYyWiwN44daHpUCndS3OP6xrZIc9q2XckoMrlt2bfojp05yCJULFKKniOeFEXIf7LtXEKhLbaEBI1zZ95p4sdtExJSZNSMXFxLRqGzArnOtjDB74cENRk5Zou3/H7INqVIJesuF/a+CFICxb4otL3ctt0yol9KO9jbe11nX2oFopi4KW3BZTMsENu8qqpfrHwhPxISkVL7mOvDQ2ycTvWLlL4vjZhg1mrRL7WP2n6L6u6rY2rfTu1PsXbH7yAAAiAAAiAAAiAAAiDQ6QRqF/1khI6E4dqa1gmwyp7pJxcX9vbGovWKiVypkX6xbdW8zdX1XOri1hc9RIy4XvaWvdAWcRdbu9zaKEyZj71FNCQGhc5Es9/TLNC1goZP+NLamxQUuV1dgrZMz9f+mghZmY5PNAzZpo+da8t0jIFLeHC9U1T0c23PjZVFtkNM4OG0ygpEdll8ApcUFqUI3qr6xZiV6SMyTe379jZ5X7lS/SKlW7ZNNT4llL6sk+ajUZk+GhPvfJF+qX07tT/F7BC/gwAIgAAIgAAIgAAIgECnE6hd9CMAtICkM9f4llh5Tl2nASor+lE9XJc68HlaN998k7qq2jP9XNswUxdtVMhQGqmL29BZYiw2+iL1tAB978fETirbw+t+2HRTKAm48+bNNDOm39EUvRnaXhgqp2aBrhUkUkQ/exuutl2rEv18kX5lBIWiwkCdkX5FRTG7HVJFCu37bKO+czblVmwZEdqq+nH5KD86H5POI6QbiF1/RaJhZbp8K7P9Pj1jR6jzmZ18/qddDm3/4bM16UZi+wZfTrPTt/eW6aNUN82ZfnbaqX1b2x+07acdg/AcCIAACIAACIAACIAACHQKgZaIfp1SWU05UkQ/Sp8vLdi375X8UgT696JbmUM3AVN6sVtQU84drFP0o7K7bgSVWw3tba/aSD1f+xZ9n4UGees0iX8bNz7mvNHYJRr4ytIK0a9Iebic2kVvTPRzCdGafqdpI02knzaCT1MmeiYl0q9MO6SKFNr3uf6+27LZ/9iRn0XTtzkXeT92WzenXYfoR2mzQPfa0Tfzm3xJ/FuzeoX59oLZTVXT9B/NDbSUaK+KfqGjPqjexNY+fkHjL0N9WWtvmvbT+gw8BwIgAAIgAAIgAAIgAAKdRACin9UaqaKfTI4WHPJWRu02UF4cknBHN8yePn02FxDp3+gWSnvRyflWEelX5/ZeKqcU+JiJZsuy66ZOTWfSCEqudEjA3fOL/YZvS5YRYnIxqW1XykOziE2N9NOcSWjXt6rtvbHtwb720rSRRvTznZOosRPXMymiX5l2SBUptO/LurLAx/YdujhHc0ZaFSKMbGuyqTmzp+e3vVL6ZfqI7ZtDkX52Hewbg+3LamKikSwvcV5yz8KmG4kpv17e3ss2xTf+0m32fCkQ8Zj0rW+ahd+ZO+QsXM35jFXYW6z9yvoPvAcCIAACIAACIAACIAAC7SYA0c9qgSpFP0panmmojYLiRXgRMYmroRH9QtsbZeSPKzqxqsURC4t8mD//t0so8W1B1HYejaAUSsslNsUuPOH0qP3p74orvpT9/7pEv9C2aQ2n0AUr/L60DduWNe+HyqFpIx+72IUUmvr7nikq+qW2g1a0KysQuepp36r8m4YgM7DlhSzyyr7UpVX1Y3vw+apWi37ELZRnzC9K23XdlEzpl21TjU+R6YcuUOF+XDZS3FcW9uFFI95T+3Zqf0rxHXgXBEAABEAABEAABEAABDqBAEQ/qxWqFv0oeT7LSCv6yairxx97uNBNwBrRj8pEi7qnNv9wSNryMgtX1BSXrejizTZ2KeSR0EciA/25FsRy4VYmkkwjKIU6o9yWJ7ePcrvSuy5WJJKteWCd6X/y0TxKSbNALytoxNouVEe7PexbY7kug4ODWTK2Lct6lYlw07SRj50U1qu4PVtyKir60bsp7ZAqUmjfl3WUQh716xMnTmaRxb4+3or6xexBCpV1be+1+4sU+u08Y34x1u9DgnqsTTWCItWFBT3XJVpkAz964qn83N2qRT95O/fAwN803Wge8kupfTvGjvMOiba+re6dMIFDGUAABEAABEAABEAABEAgRgCin0WIJ/8UYbL6+/d6+Y24fER+vhs9RALQuHF92dZbvrSDFok7d+4xfDac9oyv0G21tBijv1FXf9W4DpXXin6UBi3+li39bpbWZ4Ofm4OHXs0Py/cd1s5CF59tRduPz577wPSNubZp+13M8OQil9IiMSkk6Ekm9nY/Whi+9/4pc/Lk+9mi1Y5OigkIVFYSEV4/9kszb+4Mc/31Y/JFKUWabNr8bFY+m4mMQuGD/idOuCGr+ruNsry891D2v2W7xxb/9HxZ0U++x+0j60LMz5z5fVZP2k73wJqVeTORrS5dtio/u4wEH64LXaTANsxtZYt+9i3d9PvEiTfmfYTS/93vzpl3333PDH7+r2bHtq1NJqJpoxA7+Ztr+ySxoTYhQeuRdQ+qbVUy5Ut5XLYt/UFKO6SKFNr37TrIczZZ2PVtlW5F/eR5fiQi80U6ZMMHDhzJ7dHuX/TfKX2M0t+w4QkzbdrtTfZL/05+gLakukSzmF+UHw7IjpYsWZj5GOoXxxr98eW9r+R9r+iZfjJt9o3kz881/PKG9WvzppZc+IZ58t90qcj2HT/P86cXqhb9QhdyUH/9y7+8PDvKQo6fXPCUvq3tD5ooSypP1WeGxsZJ/A4CIAACIAACIAACIAACqQQg+lkEefKvASsXALH3Qluq7LzsqCpfWWjxSQLG3XdNyR/RiH4k6Aw2FoXyogqZh++SEHtBLd8pE91lX1ay/pGHvGcVum7W9XGxF2ZFBSWnqOM4ZJ6eix1Ob7d7iiChETRcN0i76uOKOg1dNMAiIgmAdIuq630WTChKLPRXtaDAecXagp/Tiu/0vBQNYj5B2l3ZdqhSpChSTylgUz1JFHrj2AFvleuuny1C2wUhH0V/JMJVGemnaW+Xn/KJWtIvhi5nov41ftyY7KNFUdHPFtyZlb09m55bef/a/Cw9myn5qhEjLss+VlTdR2N5y7K4fEvZvl1lf6IyQvSLeUH8DgIgAAIgAAIgAAIg0GkEIPpZLRKKspOP2gsqWlyQIHK+sQjlA8p5ITd58q1NwlzMCFj0o+fs2wzptwsX/qmxHfbFLDLDjjrhiB1X1Bz/xgtRWrjv239YdaC6LDMtcI82brRkcYfyWrVqhXrLFqclhYaYyMDvUJkpWuzU6XNNN2pec80oM7bvWjN16m1DyhFiwunSovTwkdezaLAPP7yQp03iwrhG5N+Ke+/xbrOmtj9w8EhTmVyXD1BevC3RdV4al0VGQdrRVpr3+dbR043IOrZFSpvqMrrxf30NTr6LYCjvXbv25HWhclJdODLJtiHbliVHEgf5j9p39GjK+7o8aku+q2kjTd25H8rLbygfEjEoopWiFzkSN9YP6XefoGK/62rPMu0QanuZp+8MTO37rrpLUSokwPO7ddaP8uBIadmWZMMUjUv2yzZTpo+EOLGPOX/+Yu7jyH4pknvOnOlNEd5F/CLZEl0MJC+xoHQpqpAusSD/Q8cc2B9QNG3K/ZZEQ/qjdOfNm2nsbfpcBtt/80Up3MdC40coItvXR6XoZ9sWtTOx3tnwO+yvXIJ1mb6tYUe8QmfKYnuvxlPiGRAAARAAARAAARAAgU4lANGvw1qGFkeLFt+XLTZDC28pmBWJ6Omw6qI4IAACIAACPU6ABdpQxDuNfbfePjMjoT3/tsexoXogAAIgAAIgAAIgAAIgkEwAol8ywmoT8F0aYeei3bZUbemQGgiAAAiAAAjoCYQuQLFTid2CrM8VT4IACIAACIAACIAACIAACBABiH4dZgfybKh9e3d6t8xqb2zssOqhOCAAAiAAAsOIgPxAFYpel89tfPKxQkdiDCOcqCoIgAAIgAAIgAAIgAAIFCIA0a8QrvoflmcQ8Q2Lt94yKT9Pzr69ki7lkDc01l9C5AACIAACIAACegJ8Zh6dfblg/syms1ftG4zp3MYD+3bpE8eTIAACIAACIAACIAACIAACXgIQ/TrQOB5Z/yPvzbqyuHSg+uOPPey9YKIDq4YigQAIgAAIDDMCoZvBJQoS/OhG+m80Lt7BHwiAAAiAAAiAAAiAAAiAQDoBiH7pDGtJwXUbMGXEt0hOmXxLoVtIaykkEgUBEAABEAABBQG+7fnCxT8YebM333I/ceKN3lvFFcnjERAAARAAARAAARAAARAAAQcBiH4wCxAAARAAARAAARAAARAAARAAARAAARAAARDoMQIQ/XqsQVEdEAABEAABEAABEAABEAABEAABEAABEAABEIDoBxsAARAAARAAARAAARAAARAAARAAARAAARAAgR4jANGvxxoU1QEBEAABEAABEAABEAABEAABEAABEAABEAABiH6wARAAARAAARAAARAAARAAARAAARAAARAAARDoMQIQ/XqsQVEdEAABEAABEAABEAABEAABEAABEAABEAABEIDoBxsAARAAARAAARAAARAAARAAARAAARAAARAAgR4jANGvxxoU1QEBEAABEAABEAABEAABEAABEAABEAABEAABiH6wARAAARAAARAAARAAARAAARAAARAAARAAARDoMQIQ/XqsQVEdEAABEAABEAABEAABEAABEAABEAABEAABEIDoBxsAARAAARAAARAAARAAARAAARAAARAAARAAgR4jANGvxxoU1QEBEAABEAABEAABEAABEAABEAABEAABEAABiH6wARAAARAAARAAARAAARAAARAAARAAARAAARDoMQIQ/XqsQVEdEAABEAABEAABEAABEAABEAABEAABEAABEIDoBxsAARAAARAAARAAARAAARAAARAAARAAARAAgR4jANGvxxoU1QEBEAABEAABEAABEAABEAABEAABEAABEAABiH6wARAAARAAARAAARAAARAAARAAARAAARAAARDoMQIQ/XqsQVEdEAABEAABEAABEAABEAABEAABEAABEAABEIDoBxsAARAAARAAARAAARAAARAAARAAARAAARAAgR4jANGvxxoU1QEBEAABEAABEAABEAABEAABEAABEAABEAABiH6wARAAARAAARAAARAAARAAARAAARAAARAAARDoMQIQ/XqsQVEdEAABEAABEAABEAABEAABEAABEAABEAABEIDoBxsAARAAARAAARAAARAAARAAARAAARAAARAAgR4jANGvxxqUqvOzbS+ZgS0vmBEjRpiT7xzrwRrWW6V/OHXGLFu+Kstk+7at5hvjx9abYZemPuGmqWZwcNCsWX2f+d7yxV1aCxQbBEAABEAABEAABEAABEAABEAABHqTAEQ/R7t+eP6C2blzjzl9+qz5+NIn2RNf+9rV5o6pt5kZ0+8wV1zxpY62hucGfmK2bd+dlfHcmXeayioFwR3bt5prRo/q6Lq0o3C/+tU7Zs0P1mVZD/ztZnPzzTe1oxjBPKmM6x99MhPdNj75mLn7riktL+OYsV9wWb5skXlgzUpV/u0s95Spc7L+/NeTJpgtA085y/t3Lx80/ZueyX6DmKlqUjxUkMCf/vQvZtHi+zJbXDB/ltmwfm3BFP798SrTKl0IvAgCIAACIAACIAACIAACINCxBCD6WU0jF/2uVqPouYHnNnd09FdI9FvaiGA71Yhko79OFbTa3Vu6QfSTbVxEdKuSbRnRr53l5vKOb0Ru7mhEcNp/FOG55oF1mZB61ZUjze6XXuh4gb/K9kRarSEg/YvPFrUlqTItbZ54DgRAAARAAARAAARAAARAoHsIQPQTbSUXUCTuLVv6XTPq6q9mT7x78n3z2tE3M0HAJbLwltBOEAUR6ZfWAbtB9GtnxBzTLSP6tbPcIdFPRkx1Qh9Os2C83ckEqozOqzKtFGadNP6l1APvggAIgAAIgAAIgAAIgECvEYDoJ1p09ZqHza9PnMz+xXWWGy2wfvTEU6av77ohZ5h1klAUEv16zYDrqE8ntWUd9asqzTKiX1V5l0knJPrJCNh2bZcuUye8AwKdQAA+sxNaAWUAARAAARAAARAAARAAgaEEIPoJJnwxQZktV5206IHol9bVO6kt02pS79u9Ivq1c8txvS2E1EGgNQTgM1vDGbmAAAiAAAiAAAiAAAiAQFECLRH96GKMrVtfzKPo6CD9VatWdNwlEixi0KUdB/btKsSykxY9EP0KNd2QhzupLdNqUu/bvSD6vfr3b5gNjz6Rgbpz2mSzqf/xeqEhdRDoQQLwmT3YqKgSCIAACIAACIAACIBATxCoXfSjLbEzZi3KzsKTf3Ru1uFDuzvqoPwyl1zILcE+i9i3d2cucPLzoRtE5Q27J9855kyWLhx54/jb+aUcdPHAtGm3m4XfmWv2/GK/6vZeX9qu24sp/XHj+sySJQudYq0804nSpf/+8fM/y8pHbb1g/swhN7zSQvHAwSPm1OlzuX2Q4DrpW9/M6uG6JZnZMD8uK23LJhujvOg3XzkZpp23fO/jP16K3t5Ldk2cT/zmt+ajjy5myVIa48eNMXNmTy914y+l+eJPd5kTjbrIW6NdPJg35WtvRbfbgst6tHEmJadLjGLldNmBfK+M6NeKcvv6ob29V17cQXb3k+ef9vqj1H7L7/ONwCTMv7z3lcxmKe/+jY/l/YrKdeDAkewjCftNij6eMvkW8+0Fs53VK2uPHN3MNkR+Zd/+w7lNU9nmzZ3hzVczClJfI18lb0PX9JUizFz1d5WN/Ngbxw5kP5F9Hzv2S3Pm7Afmww8vNI1RMd6p3Ph93w3R5Odeb5SNfUvI/8bSorqW8bUa/vJjnmb809gLngEBEAABEAABEAABEAABEKiOQO2i3yPrf9S4AOO4s8QL5s8yG9avra42iSnZN/f6FmQym6KiHwuLoS3EsUi9EFNapH/lqpF5VOW5M+80UYmlHbu9mBJb/8hDQ0QAGelBAgLfgsqZ2/UN1YHe8V2mwOXnRXn/pmecrR66jCFUR3rvzoZ4+vLeQ1m6rhuOpVjkM7miUWMkQCxdtmqIOM7p2+mFImtibSHL7GpL+j1WR7rMZtv23VlSRW4PrrvcIRcgRb+nNv/QrLx/bSaqaD5ApPZbfp9YXbr06RCfyHYmIw9ddXG1V6ytKB2fPTITOsdw5649uchk513Unvn9WD8PlU3LjAQ/bsvYECBFPxbLQu/UxS0kmM+Zd4+3HWT5udwx8T3WBj5fqeFPH234HFwfR/nRK9Y++B0EQAAEQAAEQAAEQAAEQKBaArWLfjJ6zi56mbPzqq3+0NTsBRItsubNm2lmTL8jGJWo3d6UKh5wpBuVnMq2tHHD8JUjv2wuffJpU4QO16yI6GdvdZwzZ7r5RiPCiP5k5B79t72Qs28+pgglWjBTdBKVbXDw8/zyk439T2eiGkcATp16Wx7lRGWg6BGKSHMtcFn0o3c5Corz+ayRx/Hjb+WLUJd9yUgzzr9vzLXGfpf52aKfFOco/dmz7jZ33zUle5x+29+IkmLB0CeouWyYxWMqU/+Tj+aRghz1Re/Irada8Yw5cVkvH3FZdhM1l9EleMkbQSlf5kv/W77L9ahD9CtT7phvkKIf9Rn6GKG9qTe13/L7XC/Zd4np3EY03TWjRxkWouzoP+oXBw+9OiTaL9UemYmrXBcu/sFs3/HzvJ+5BPAQc+7n7KvIj/Jt6JT2vn2v5JGnrg9AWmbss6kOa1avyD9IUB/Z8uOfZgKa68iGKVPnmNGjrzYTJ95orr9+TO6D5HtUdtelTqncfEKd9O/yoxNHJVJksX30REj0S/G1Wv7ESDv+xfoofgcBEAABEAABEAABEAABEKiWAEQ/B0+59Y5/9m1R5d+1i55U8YBFAV90kozko7IVEf1oEUximy8CU4pBocgzytcneNHidd78JRk23y2pUpiz05H1swUybgspNL/15itNYq2MzHSJGCSubNr8rFfoYIEhdO4j5+ESLX3dNxatY7+nFf3oPVfEquRot4MUHlyCHrUPMeKth3WIfmXKHXONtlBDz2s/PKT2W2mTvq3EWh8i65lqj8yE0qQ+/dCD9zf1F1mmIpHZsp/76muLy/aHBA0zKneo72j8jctu5Hsu+07l5iuzxs7s8vrS0tQ95Gu1/Kk8ZWw31l/xOwiAAAiAAAiAAAiAAAiAQDqB2kU/Ge1hF7fIIjK9qsVS4DOi+Nwtfjt1wa5Z1Pm24MqFVWjrsWSuFf1k2qHtWJy2LXrJ90NbAbluMUGMt7jZNiLZuCJwqJ3k9l1b2OMFcuhMRRnx6Hs/FMUn37dFR58VsuAaKpd8Vyv6+ewkJGrICB/fuY/UP269fWZWpDpEvzLljvVwGek34rK/yCNCNdv4U/otlUsyHXhucx5BK8ss20RTJnqX61TWHjX9gW1TK5BSuaQPCkUIyr5i11nDTDLw5VNUUOc2Cb2Xys2XNou45B93v/SC6sxbX1qpvlbLn3hB9It5H/wOAiAAAiAAAiAAAiAAAu0hULvoR+JAt1zk4WoCl/jnivLSLnpSxAON4EV1CJ3b5/vNjhDUmKMUFIvWX5M+PWMLDbEzCUMLUK1o6quL/Hdt+bVbImW97G3Drry0ol8of59YoBE0pNhSh+hXptyxNrHP9Fu0+L58e6lPQOY0U/otpaF5Xz5H/5vEc7nF3q5fFfaoEcS0ZZfl43di4r60I1vw1uYbEj410W4+u9GIfiHbD5Xfl7ZsU94Cfustk4LiXyxqMNYv+Hfb12r5h3yuNm88BwIgAAIgAAIgAAIgAAIgUA+B2kU/KjYtvOQtf7S4W7VqhfMW2HqqmZ6qfVi+HVlTVPQqc5GHRvCimrZC9AtF+oUEm9AZj65WCkX62VGM/L5GtAuVUfO+xqJo+/GO7VvVdm5HxfKlInzem8yzFaJfTMzTCEYhocpuA20fKpOvFJe478mtjbHbezUCSKjfad6nMtJHhofX/TC/lZv+zXeuaFHRz2WPGpbassu2LhIdKMXYHY1LgPhPm6/mTD/fcQh8DiedMWjf4MvlCG3vrVr0ozwpUnlgy4tNl/rwuZo333zTENdTlehn+1otfyqQtu9q/CaeAQEQAAEQAAEQPBMh7AAAIABJREFUAAEQAAEQqI5AS0S/6orb3pTkVjR7sadd9GgWUppoPJ/gRYRSRb9Q2r4WqLL+oVbWCJ8a0S5V9NNG8BW1WBYhXjv6Zr7oty8oiC2ytW0Ri/TrddHP7iuhbekp/Zby0bwvbYXa8I3jbzfd8kvi38aNj+Vbg7XtHLLBukQ/PntUsyU4VfSL3XhM9Xdtf9bcVE7vtlr0ozxJ/D185PWmy07o311HYsREP00buGykiM1WYYtFfSWeBwEQAAEQAAEQAAEQAAEQiBOA6Bdn1PSEZluWJtItNdIvtB0xVfSLbXV0IdMu+jTnxYWapCrRL3RmmkY01J65VtC8mh6XET92lFYrIv1i5wtqBCO7/nWWO8Y6Ji75xCH6d40AUkWkn10HPl5g2/bd2U8ywla7XT3ERdOGmrrbeZTZ3ls20oyjCkmcO3P2gzxKkkTSceP6zJIlC4dE20p2xHTJPQvNjTeMb9pG247tvT7fyrcQ0+/2xTsx0Y98h+9szpBtFGl3rf+P9VH8DgIgAAIgAAIgAAIgAAIgUC0BiH4FeMqFTWqkX+isK99FHDKiJXRwv7yhVnuRhzZtHy7tok/WLXRhiC+fFNFPXj4RiuqSt9dKAVf7fgGTij6qESCr3ibLl6iEbFRujY1FBMpKdqLoJ88dJYHEddGGRsQKXaBTREBxGYXL7quwx7pEP95yS3UJ9XMZbWf7NA0z9luh27RjPH2X7XSK6EfllzZq9zdfOVN9rYY/s9X6/6jDwwMgAAIgAAIgAAIgAAIgAAKVEoDo92ectPjct/+wWf39e43r3CR6TJ5HZ0fDyUWPHYkhWyx2q6V9oYYU7eQi33e7o1xsU75a0U8uKovcHFl00Sc5xSLJYov1omf6UXosaNH/dkU02lv+bEEtZAOV9sw/JyYvIpBlqVM8kzbqimi0z7fsdtGPUEvR23W+X0q/lb6j7FZLaZfS7lPtsS7RT9qnr87kc/gyFdeZexrRSfrLIlvuYx8PYqJ2KjfN+7Y/kRGND6xZmf+siT4v42s1/F3+PzT+cT+j9u5/8lHvWFuHL0WaIAACIAACIAACIAACIDAcCUD0+3Ory+guWqROnHCDGXX1V7Nf6ZD3ffteyW/6dEWJSXGGt4tdPuKy7Fyuhx68P982JhfDtPBZMH+m6Rtzrbn0yaeZ6PjRRxeb7NAWtqT4QPnMmzvDXDnyy9n7O3b8PCsjpTs4OJiloxX96Fm5EHZteaOyv3vyfXPixEnzyLoHmxZsRSI9pFBBi9E5s6fnaZEQ8N77p8zJRj6/buRjb0uLLdapHqGySHGHOC1b+t2snT8b/NwcPPRqtjVQ8gtF0fFZe9dfPybfPkhiwZkzvzevH/ulmfStbxq5OPc5GHpnw4YnzLRpt5uJE2/Mz2yjf9+0+dnMJmxRpE7Rj2x56bJVuQ3RtkvqD/Qnz5ljTr0g+lHdZN+y+3hqv9UIKOSDyG6oT0ubIpslO6A+bQtodrnWrF7R9G7MHjXik6bsLtuW/ZwvI2GfSn5EnlvpilzW5Bu6zITy/Mp/vMqMuOwvsn717QWz82JKEZXamrcAk+0fa7TBy3tfye2/lWf6kbBHW5KnTL4l94lUpp079+TnO9o+KdSGKb5Ww5+Basc/WZ4ifmM4Ts5QZxAAARAAARAAARAAARCoggBEvz9TpEXL+obwYotuNmRaIEoRT/7uu5nWjiizo/FkGizk9W96xinakSi28v613nKSKDB71t1mw6NPON+PiWb2DbI+Iyu7pZTSc91Q6suniGjJacQEyBB/vixh2fJVWXKu6CHX7Zqu8msXtSHhgtMtclt0rP6cZkgsCF1ywGInCYAkkmrrSfnWKVbGHKLvTD/5nowEtSOWUvqtRkCxo3zt+vi2HqfYY52iX8xX+Wyb/13DjJ4NtYtkaAumsq1drMePG5N9eGil6Mft4bNl1wenUBum+Fotf7u97LLL8Q+iX8xL4XcQAAEQAAEQAAEQAAEQqJYARD+LJy2g3333PXP+/MU8so8PhJfRF65moAXWM88+ny0UKSqHFukUybap//Ehj/N2YhYZWeyjaBTeWhY6gJ0EghO/+W0u/mnf54jGUNp8c+jp02dzBlQBWjRTpA5FfdlboOV2OO1FIMz61OlzTTfVXnPNKDO271ozdeptQw7g15RfUxaKnuLIPqobtTFF2i38ztwsKpNvH/XVhW/ZPf27c00CLLXD6Mb/9TXKLyOLYt02ZHdz5kzPo/84nVAdNfWndLiOvktJKJ1du/YYbh+2Z46K4rMji1xq0opy+1izyBPa6ii3LrueK9tvmVUob/IfdGMrRcF9+OGFvE+QTY1rRJOuuPeeposmZD3L2mPMBigPTdlD9k3MSCC260T9xHXJBqelzZdFP1sQI57/+I//wxw4eCTzyfQnBTz6fc8v9jf5UekHqC0GtrxgXPadys33Pvve843oXh4bqN+RADl58q3m7rumDEGtKUsZX6vlzwXSjH/Y3hsbCfA7CIAACIAACIAACIAACFRLAKJftTyRGgiAAAiAQIsI8EeA0KUzVBQWfMueqdii6iAbEAABEAABEAABEAABEAABEKiUAES/SnEiMRAAARAAgVYR8F1uYedfdKtqq8qPfEAABEAABEAABEAABEAABECgTgIQ/eqki7RBAARAAARqI8Dn2bnOuuNM5c3kdCnNhvVraysPEgYBEAABEAABEAABEAABEACBTiIA0a+TWgNlAQEQAAEQUBPgc+foBRL+5PmXJPa99faJplvNd2zfOuScUHVmeBAEQAAEQAAEQAAEQAAEQAAEuowARL8uazAUFwRAAARA4AsC8uKVEBO6DOORdQ86L8IASxAAARAAARAAARAAARAAARDoVQIQ/Xq1ZVEvEAABEBgGBHy3HlPV6eIOum18xvQ7vDcfDwNEqCIIgAAIgAAIgAAIgAAIgMAwJQDRb5g2PKoNAiAAAiAAAiAAAiAAAiAAAiAAAiAAAiDQuwQg+vVu26JmIAACIAACIAACIAACIAACIAACIAACIAACw5QARL9h2vCoNgiAAAiAAAiAAAiAAAiAAAiAAAiAAAiAQO8SgOjXu22LmoEACIAACIAACIAACIAACIAACIAACIAACAxTAhD9hmnDo9ogAAIgAAIgAAIgAAIgAAIgAAIgAAIgAAK9SwCiX++2LWoGAiAAAiAAAiAAAiAAAiAAAiAAAiAAAiAwTAlA9BumDY9qgwAIgAAIgAAIgAAIgAAIgAAIgAAIgAAI9C4BiH6927aoGQiAAAiAAAiAAAiAAAiAAAiAAAiAAAiAwDAlANFvmDY8qg0CIAACIAACIAACIAACIAACIAACIAACINC7BCD69W7bomYgAAIgAAIgAAIgAAIgAAIgAAIgAAIgAALDlABEv2Ha8Kg2CIAACIAACIAACIAACIAACIAACIAACIBA7xKA6Ne7bYuagQAIgAAIgAAIgAAIgAAIgAAIgAAIgAAIDFMCEP2GacOj2iAAAiAAAiAAAiAAAiAAAiAAAiAAAiAAAr1LAKJf77YtagYCIAACIAACIAACIAACIAACIAACIAACIDBMCUD0G6YNj2qDAAiAAAiAAAiAAAiAAAiAAAiAAAiAAAj0LgGIfr3btqgZCIAACIAACIAACIAACIAACIAACIAACIDAMCUA0W+YNjyqDQIgAAIgAAIgAAIgAAIgAAIgAAIgAAIg0LsEIPr1btuiZiAAAiAAAiAAAiAAAiAAAiAAAiAAAiAAAsOUAES/YdrwqDYIgAAIgAAIgAAIgAAIgAAIgAAIgAAIgEDvEoDo17tti5qBAAiAAAiAAAiAAAiAAAiAAAiAAAiAAAgMUwIQ/YZpw6PaIAACIAACIAACIAACIAACIAACIAACIAACvUsAol/vti1qBgIgAAIgAAIgAAIgAAIgAAIgAAIgAAIgMEwJQPQbpg2PaoMACIAACIAACIAACIAACIAACIAACIAACPQuAYh+vdu2qBkIgAAIgAAIgAAIgAAIgAAIgAAIgAAIgMAwJQDRrwsbfvWah82vT5w0fz1pgtky8FQX1qB3izzhpqlmcHDQrFl9n/ne8sW9W1HUTE0ANqFG1bIH/+HUGbNs+aosv+3btppvjB/bsryREQgMBwI/2/aSGdjyghkxYoQ5+c6xrqsy/HbXNRkKPEwItHP87na/NkxMxFtNtN9wt4DhXX+Iflb7P7L+R+a1o8ezf6XJ6prVK8y3F8wuZCV2Gv1PPmpuvvmmQmmEHl7aWKyeaixaxzcWqjsaC1b8+QnMmXeP+eijiy0TSMeM/aKdly9bZB5YsxJNAwIGNtF5RvCrX71j1vxgXVawgb/dXMg/f3j+glm67AvBUPp29jUL5s8yG9av7bxKo0Qg0EICzw38xGzbvjvL8dyZdwrnLBdnO7ZvNdeMHlU4jZQX4LeL0fvTn/7FzJi1KPvo6fr72teuNqMb/9fXd23hOXWxkuDpXieQMn6nskn1a6n54/00Ami/NH54u7sJQPSz2o8nevzPRb9Sy8GI06haAILop+903J6tEkixUNC3zXB5EjbReS2dsmiQ70rf3mpf03lUUSIQ+HcCqYsrnudQikWF+SraAX67GEXX3NeXwlVXjjSPrHuw0MeWYqXB071MIGX8TuWS6tdS88f7aQTQfmn88HZ3E4Do5xH9SOzjL5brH3lI/WWSt97K9yH6ta+TtHohjoVC+9q6bM7cZ++cNtls6n+8bDLe90I2wdtUyF8MPLcZ20wrp+9OMGXRQG225oEvogQR6deiBkM2XUcgdXGFSL/uanLpU2ksnTL5lrwCnw1+bv7pn/5gjh5903x86ZP834vMrbuLhr60mAPoWfGTKeN38dya34j5tbrnk6nlH+7vx9pvuPNB/XubAEQ/j+hHkWF//OePswmKNkqMtn3Nm78kS5G2eL2891D2vyH6ta8TQfRrH/tuybnuyNmQ6NfOyWu3tE8d5QT3OqgiTRD4dwLdvrjCB7xi1uyLgLZTYTGX/70dUZzFalbv0xiLivNtJ7OYX6t7PlmcFt6QBGLtB1og0MsEIPoFRL+JE27IDqKmv317d0bPlGFnwlsX+MwoiH7t60IQ/drHvltyrnuSBtGv8yyhnYuGzqOBEoFA9QS6fXEF0a+YTWhFP0r1714+aPo3PZNlQGf9Hdi3q1hmPfQ0xqLijdlOZjG/Vvd8sjgtvAHRDzYAAl8QaInoRxFwW7e+mN04S3906+yqVSuiIlo7GkmKROv++w+aIvdih7NPmToniwwkka9vzLX5QfEQ/drRkl/kCdGvfey7Jee6J2kQ/TrPEtq5aOg8GigRCFRPILY4rj7HalOE6FeMZxHRj1Ju95mNxWpX39MYi4qzbSezmF+rez5ZnBbekARi7QdaINDLBGoX/Xw3etEZVocP7TZXXPGljuJri0TyjL6T7xzzllV+uaSowI//eEkl+tHgdeDgEXPq9Ln8DEH68jnpW980C78z18nHHlQ4DRZVKdJw2rTbve9zndasvs98b/liQ07w5b2vZPlT3v0bHxsiyFL93jj+dnZrMP/Rtmc6t8V3u/GEm6ZmaW5v3DD8X/7zfzLPPPt8fjMyCb9bBp5q4km2sucX+82J3/w2u3GX/shOxo8bY+bMnl7q0OcU0a9Mne2FAqWxb//hvD7Ed97cGUnM5PYYYvuNRju4/mTf47aWz5Wpn7ZNSeg/duyX5szZD8yHH15outEvZDfyfBvqb2wT8iwgsp2YPRCj1xv5sx1Rnxg3rs8sWbIws23OJ+R85Bl/VI7DR143Z8/+3pw/f7HpXKJYf3UtHrkPhvKX0cX8vKvfcBryDCzbV9l9vqjPoDxc/dNVfmL9xrEDyX27KltwlTG2aNjY/3R+PIPr3CnqO++++16T37ZtzJWv7D/Ub1P8Q5n3uUxlxh22L7ZB6uM7d+7JPuaRnydfTb9xH9MM7LIfunyUTIPHPVcfoPrQ+HT69Nm8b2rGjir6hV3PqvxzmTYqMrYT+wMHjuTtR/WIjenc5pKz7x17cVXUXkL+jJmnzBlcdZFji0b0KzOGVmVzrvLHfFAdfVj6lCK7W179+zfMhkefyF733XjO4+67J99vmnuGxlx5zI7PB/nG0Sr6nHZsLToHSPHdVdmcj6fLFl3Pus5NLtOH7fH761//q2ztUGSeSH33bGN+er6x1uB5IpU51odcolHR+SSzKdOH65oXPbL+R9n6LHR5JdtRKDqX03Edi1Wmre360n//+PmfZf6Ayrpg/kzzwJqVTeZm+2W5JiY7id0qX6Zd6vStmrkUngEBDYHaRT92AK7C+AZ6TcHresYWieTEJHTosL0g0Xz1DLGh+vkO95ei39i+a3MHZjMhx/yT558eIhzy+xSBeOnSp7kQx+/LM1bISa+8f23ToKjNh1lufPIxs3PXniFpnDvzTp4UH47Pl6doJwwxOygj+lVRZ7LtS42oTxZi7XL6Lo3QMLPPjvRFoPoWn1XUL9amLG6E2sfFQPYbEjTpwgSfTfj645x593jtlQWpopM0zQTd19+qEP00X49DXzBjfZ7byVcHjc1wGrboV7ZvV2ELPvsLiX7yA45to1oOPtuM9W8ub1n/EHuffi877rB9scjD2/NsxkUvpeEI+dBCIiQOxupD5fPxTO0XLvtK9c8pbRSrD4/tcl7jqoNP6B7Y8qLXH9uMpT+i8WLT5med7/rsJRaRUdavUH1j79LciBeGrp0aGj9Qdv4V88X0u/RRPh/nasO6+jCVQTPnlWUlhrfePjP7J5dAEGsjes9lO5qx3ZVfzI/E5uO++bSvPTVzCvtYoVaXMTa/1vQlmYbtIzRtHJsn0sci+YHXLrOrH9jnSrrqWcQvaWzOrkfZPlzXvEiWx3XOpuyvxMt35BXP/e31fRVt7VoT2H051EfIJ3/lqpH5ukyuQdkGyrZLnb5V0w/xDAhoCNQu+skQfrtA2gsyNBWp6hmXSMROzPd1UE7yaXJ7911TohMgjiThLxVTp96WR9fRhJy2Q9NWYVfUjM2U06AtxZc++bQpssw1YeX36T0SVCiPpUu/a64c+WVDX1TnNiLRKBqK/lhA4WduvWVSJiLyF9jtO36epeEamJkl50PtPXvW3Vm65859YFisIn5Ll63K0uFniCH90W/7G5FyfClK0dveyoh+VdSZ7VGyvXDxD4Z50e+ugVXLTJbRjqrivPkZezFdRf1ibUoL+dGjrzYTJ95orr9+TG5PNGHZ8uOf5qKcHakoJzR2HpePuCyzT7YF+t2OFpaTORk5xJGHFEVqnx+kEdRoIkFfhO9o9NOxY6/Loyvtowtc0UpVbO/VlFEj+jHToj5DfgVes3pFHqkq29Ml2qT07VRbCI0JPtEvJPhJf0j/m8Uv8pv0R7b5WuN2ShapeSyQ5bD7d6p/KPp+yrjD9sU2RPXiWzrpds7jx9/KJ9NFxnYZVelbSMhn3nrzlfxDlvx3YjFv3kwz6uqvZsjJ3+7b90oe+ef6yGiPhUX7hc/GUvxzShtpx3ae09iR/TT3OHjo1SER/HJRS4zubOwkoDOP6Y8iLClChP6kP5f+iDkVsZeQP0vxKzR3WbT4vtwu5E2zcnzhMrvmUCljaKrNScGWyj5nzvR8PJJRMFR+uz/V1Ycpr6KiH73DdmjPc2X7sp+Z0LA3mgOQrzmZ+dovbI7sccf2rU27U6gs9h+9x5GF9ny1yj5X1IfEos65Hu0so8/P0b/Ljzarv39vviOHxlL+SODyvSl9WDLjsvHaQTNPpLLtaKxdJjUi08mP3XzzTVkyHInGgr9rzRf7GKGZq6X04brmRbGPVfaHItdcVz4j5z9VtTXPPdhn03p3sNGvacca/cn5v5wb2etithlb9Etplzp9a6j/4TcQKEIAop9FyyUSxRYl/LucuIQmQC6R0G40Ocm2hS4p+rm249LANWPWony7rk/koDx9X6PpN14AuyZVXF7pZO0JJrPkSdum/sedtsmCQijSg7+KukTQkMEXFf2qrvNDD97fFGkp7cI1EdIyk+KES1yQNiYH56rr52vTUJvIstkLKnsy55pY2BEkLBBTnpoJl122Mu/YafDE1yV2dJLox33e3sIf8xmhOoT8WUrfTrWFkA26FloxwS/2O+Un/bbLV9n9O9U/FHk/ddyR/Y7GhP4nHx1y5IIcm6Q4p/UHvuh/7l9yESbrE4pQlQKPPUaljqW+epX1z6ltZNfHFemvFRlk3WS6riMlOIpD2kSqvYQW1yl+Rc5ZXIIe1YWiEnnLn/1M6hiaanPcF0JbYtnmQ9GXVfZhspUyop9kIRfgMlrH96FXtqMvklfasDyqR34srLrPFR1bNf2x3WX0+blY2aUftMeDlD5c59yA6irtzxaGqhD9UvpwnXUPfayyI+hc6zXfFuEq2zoU+MEfEVwBAdSu9ocou21T2iV1vCsi3OBZEChLoHbRTwpmdiG7YXsvlTkkUtDv7Gjk5DA0AZK3/PqitChddsA2J54o0aJy90svOM/9Cw1a8kvzwHObvWfC8XOhCZUM+bbFJ17ghoRFqic/F3Lm8guMdjEp09ZGnlRV59DZaxqBKMZMcne1j5wQS15V1S9WvphD8olIst/4zvgK9Ue2+1DfqEP0CwmHnST6lfUZXAdXdKrsZ/YCOaVvp9pCEdGPvgTzdlWfv2N/7JtQcn5yzLMFEuaR6h/KvJ867shJre8s0dgWIV+bhBYbUkiVY4zk7LNLyk+OHbZPSR1LffUp659T20gztvs+CJWtC79H6fIOAXuBVcZeQovrFL8iGfnOaZbtZ/u01DE0xeakT/RFxRJ77hv2wrzOPlyV6CfZx+Zt0ieHztyW8yF7nlpVnys7tsaEM9mXYh+961oz+HyDLLtrq2Sobil9uM65ge27qhb9UvtwnXUPnUcrP7zxsUW2D+Jn7DlUVW0dWotquEjfSP9btm1qu9TpW2PrKfwOAloCtYt+MoJEFiq2cNJWoOrnfJFhvkWJfYEHT3pDE6DQlmdXfeyJjyYySbPVLzahklEpGs6+BX/o9mJXmH4sr9ACz363aKRfK+pcViCy6xY6eNcVGSPFmRhj/r1Mm2rS1oh+oXbWvG9vSfeVS9OfYnUq26aaCT/lrSljap8vu8j2RSGk9m0tm5Coqlms0EcV3jIemlRyPrGoktDkU1PWsrbEdfW9nzruxCIcKH9tm9ntIsdRWyDy+TkpnoQ+nkm/Z4ulqf0q5BfK+OfUNtLUR/oT+t/2FlG7TrJNXVHlPgap9uJ7P9WvaIR3aTO+MTA2JvjGUE0b+eru2jIdK4dc2Ka2SSivMqKfa34m04kd56JZaMutha6PJa3ocyHuGp/Z7jJqxlGXCO2L9EvtwxpmoT4c6zOh9or1oVj/Tu3Dddbdt8VXfnijdp43f0mGUPZP38e5VrW1xhdQmbvRt8bsFb+DgJZA7aIfFcQ+94oG3lWrVgy5IVZb6Dqf84lEvu06LAbak4kqRT9fpF9ItEsVAOSAqeXti/SrUvQLbTV2lbNu0a9MnVMX9VxP3yUzvsG3VW3K5ePzGOlsLfsGX9+CqIoJjTxLhvPhM0D47BZpK7FJGj/L51jSuU9//OePm27w5Wc6fXtvWZ+hOdPP/pBTdLJn9+0qbEGzWCEmfCu5L/o8Fu0t8wn5/m4S/WwWscUOMdC2md0uocg438HgoYhpO33fOKDp+5p6u+ysjH8uurgvMzegshLvh9f9sOlGVD4Tccb0O5p2D5SN3tRwC9lLVaKf7Vc0fVCOlaminz1HSLG5ooJBKNLPFZmV0oeLin6+iL4i9iZ5+D4Syg/2rp0xrehzrRb9yvgFTX91+TnNmX72vKNT5gZka++++57548efeC9/qzrSL7UPa8dYrZ+z29R1FjhHAHI7uta98sxJGXXbqrbW2m9Vol8rfat2DY7nQCBGoCWiX6wQnfS7b3EgIxZZ4AuJKxrRLxZp5+OSMmmkNDXvhya92vbSDDraAUybp3ax50tPU+ZQWTTvVyX6UTlcl8z4Bt9WtSnlo7kBi54LnelXJtKP24YFOnmQP/0WOsw/1B81N49R+r0q+sVu+6S621EZqX1b+76mz9l91k77wMEj+SUUrugS6etDHzEon04X/cqOO5pJtbbNXD5UnrnFiwZpd3YEIPs+TX3aIfqV8c/asTllbiDfpfaSF3HQbyT+bdz4WH7sh9zyVSTKPtVeNKJfkfJwvbX+wvec9v2UNtIsTH2iXWh+ktomobSLin6yb0ufWsTeYqJf7HeqTyv6XFWin8bXudpIU0eNbbjSDh3hRM+T6G4fI5QyTthjbJl5Is0PV96/1iv0yXrWKfqV6cNadmX9lOucdrYf7qeu44NYCLR3QmjL6/Mt2ve19tuNvjXkd/EbCBQhANHPohWKDJPn5FGI886de7IbxFznbGhEPxoMQ+eQ1DFpLDLJ0W6D8ZVTM+hITr4z3IoYtP1s2Ui/0JlZofJo6lyl6Oe61TJ0GG2r25S+hi25Z6G58YbxTdEjmu25ZSZzrrYhG5M3BheNvJCCP/VZur1W3kgc61Mhm9BOaFIn7anvs03RpO/M2Q/yCCHyfePG9ZklSxYOidxO7dtaNpo+Z9uFnfbXv/5X+Y2erkUKvV9me287IoFj23vLjjuaSbW2zVz91HXzX+gA8DLbe1sZAUN1LOqfuU5l20jTz13sycft+cV+w7dWyigG2aadtr23zJxBOwbGRL+ycwRNG2kWpr5zErtF9JMRdrIu0t6KbO+1z3qWH2pC54e3os9VJfrV6Rc0/t22LY6Ap3ItmD/TnPjNb3MhjXzIpG990yz8ztwh5463e24gbY/mNBMn3th0tnmrtveW6cPaMbbMvIjaV/Yb8q8U+X3r7TOzpufy2hdN0nyYt/zaY0Sr2rrK7b1l2kXTf7Rtl7LmxbsgECIA0a+A6Cc7LE0iXjv6ZnZDrivyIyT6xW4DjplsyqQxJlDh18scAAAgAElEQVTIvEOHq8fKKBfJociY2IHnmnw0Ipz2C2kr6lyl6GcPvqNG/VezbPmqpgG61W0qBz/fpSutFP2o/lK48x3M7rMRzaK3bJtqJwEagUP6FfsLcorPYDEmdLu2T0jgyWLsHDzX+1o2ZSa3rrRlNKfrUHYWPmOHqdsfh+TlBpqylrUlZuh7P3XcacWklqP32F74v13iToiztCcZdWyLCCn9QjM2FfXPqW2kqU9RUUhubY9d6kVpX3HFl7IsUu3F937qnEEzxociezXvhxhr2shXd9+WcY0tVtEmoXyKRPrJetjjrtbeqCw+nywjuWKXjrWiz6WKfu0uo6/duVxFL2VM7cOpcwMeh33lrlP0S+3DqXXX+Aq5ZZs+2m949IksYlMGqchLO66++qtmYMsLWdL23LNVba3lyjsK7LJq3/fxSx3vNO2CZ0AglQBEP4tgLDKMHZ18zXWAbWgCJH8r87U4ZdJI5da8b08QU76ox7bD+b74pho3vR9rTzsP6bjrqnPqot4uszyDY3Tj6ypFn/oEmlbULzb4hRZUdU5oZLTaA2tW5hi5PXzMYmWiSc2ixfdlZ/ylbO8NRdHEbiq1z4mpUvTTbJHy9dWUvh3jznlqhDS7fL60pUBkt6Xk4PNp0raL2gKXMdU/+N5PHXdi/ZrKr22z2CKSfif/ywsJ18cDmZdPsJd903V5mGYs1NQ7NFYV8c+pbaSpT6is0v6lD5HzHlcUBAvm/U8+avjcVA23kL2E3k/xK9KXusZ4+ygHu6+njqGaNgoJnjNmLco+Nhe5oZ7bPLVNQrajFf1ocb1p87NZHejPZU+yfX0R/3KLod1GoRvUQ2NBO+bjmo+KrfALGtuw2cmPkQMDf1PonPaUPqwdZ2LRur5x3CcM2esi1/bc2HxSfoAu04dT665ZV8n+Q32Cbuu1P/jIY4SuumpkFuHp6z+taGspLvq4yg+FxEG2X2q7aPpPqO3khUNl1p6adsUzIADRz7KBmEgkJxr0qs/JxSZA0glSGnNmT88ny+R83nv/lDnZuDCAnK29BThl0khl1rxPz0knSP9th8GTk/rd785lB+EOfv6vZse2rU00tYtxycq1fZIm4WfO/N68fuyX2XYBKdjEujCXgQSd1d+/1/s4L1RaUefURb1dCWmTxI8m075BoxX1kwtHmijw1k+yl2ONNnx57yv5hL/qM/1ocUrbTadMviXvT5Qvb8UndvYiQk4EqDx9Y641lz75tFHGz833li/OLiLirQtkR4+sezDbCkIs33r7hNmx4+f5pR5FhR47bfqqevmIy7Jzth568P48asbuI7SVhsu5b//hIWfTVCn6ybxt26PJ1Vf+41VmxGV/kW2R+faC2U2PpPTtOie3obTlhFdGAth9h9qa7OzKkV82nzVshfw1Ce70F9siHPoQkuofQu+njDupk9qYr6bfpWjKviy0EJf14YsoRjWiDuiPLtzhaHz6b9dWQc1YqKl3qG5F/LMcn3l+UfXcgMpDY+m8uTOajimQYoztx2QUBLXLndNuNxMn3JBz5tuvpW/VcCsr+qX4Fbm4ogpQH+e6yPMN2f7svpo6hqbanOTqOj6D2JDtn2jMHWmskpdXpbZJyM5lm/DFWfL5s+c+aNr+6euT9O/2mEPpTWjYG42NNDZTO/HlS3YknxxTeW7tKrfkkuIXU9tTOwdoZxl97W5/bJTPUbv85V9eno2Pcj7Gz6T04dS5AX/EoD5OfeTuu6ZkxSI/d/DQq00XHBU90y82n6R8Uvpwat2LjsP8fOjMZt8zrWxrykvO3cj+aIwj+yOfwfN09uv0fKhtW+1bpU1od6Zp2hLPgIAkANHPsoeY6CcH6MzJPPlYPmDIpGKiH00c7dvzfKZZ5QKe8tBMUrgstAjbsOEJ502lsrxFxQ67rq4bV108YlGD9jvcnrFuLxcrddc5dVFv10V+4eLfXNGnrWxTjm5xcadBd/y4MZmgXbXoF2tv1/Y0n6glxYbYYdWULgk+ZfqBnMxLXnYEhP2VUj7LE5z+Tc9k/1y1zwjlHfMDZft2nZPbWNqyTeRkV3Ohi0/wI06aDyGp/iH0fsq4U6dgIG3I9h2hc73kNr6Qj/eloRkLNfUO5V3UP6e0UdH6+PyzffB+Ntfpf7rxweaQt6q2b9VwKyv6USHK+hV+l32lXSH+8MjCkmvOkTJHKNpGrmiiWFtwnewPXKltErLz0Mch+z37shhXuprLwFxbd0NClMxHsmllnwtFh9kc5Byg3WV0tZHW/9K7rn5Utg/Hxm8uq2+8jV1MxvM511wq1oc080mNP/X14dS6h/qw/M3e1eaKtufjN/g933E+Kf5aW1/KI2aPND+fPevubLuyq21T2iVmF5S2dryD6Ke1UjxXlABEP4sYO7HQGRWhw8U5Ofk1ObRo4SvjT50+l0c/0aTzmmtGmbF915qpU28bEjLPoeehCAiOLqC07EhBzfsSCznSw0dez74e89dV+p0mbqNHX236+q7LDnvls3z43dB5TC5DJWb7G1FLpxvRgxQqzn80saNtq30NHnYkUczgfYJKaHLFg0dddQ7xL8qM6yEXAZrz0+puU0qfDoaXBzuTvUxrRIjQwc7Elrbu2RGJMtIndJiujxMNqrRYO9+wH7YhFhknT77VKdATQ5oE7ty1p+kQaooMldEA1FdlhAGlS32QIhk/+2wwO0vR1SdjbUqsnnn2+UwEpShNTndT/+NDzJvKICP7WOyjfsHsyvb5kM9gn2fbFpX9H//xfxh5+61rcl+mb6faQsg3xNKWk0f7DD+2bXmhCeVFEzXy2a6Dy4v4xFT/oPHvZcadkH1w/WJcY/6a+yJPymPnJ3J63Dc//PBCPo7yuOG6ZIbf07DS1DtWr6L+mdIr00aa+kjfb/Ma1ziQfcW99wwZy7l+5F+pr8v5ir1TgZ/VcAvZi+b9Mn5F2uquhs/nukh/TudwMstQ1HyZOYKmjTR157Hu9OmzTR9lyQ9RtCtFL8rxi+qtSbdsH7YjIO0+QeWiqBuK2OPIqli/4Sh9ezyn+TFFj7nmgzFBh/N0zS/q6nMx7kXnALS7ppVrBl87yXHSXudQ250/f7FpXuXaql2mD2ttNDT3ivkyepf+7PVTrC2180l6rkwfrqLusX5Hv2siz+xtwFsGngomXWdby4yp7PalMhT1F5sny3GO5vqt9K3Y3quxSjyTSgCiXypBvA8CIAACPUyAJ7kxAYYjtPCVsoeNAVUDARAAARAAgQYBFrBjF/zwhV5Fd+oAMgiAAAiAQHUEIPpVxxIpgQAIgEDPEfBdgGJXVLNtrefgoEIgAAIgAAIgMMwIyKOOfJetMBLNsRbDDB+qCwIgAAItJwDRr+XIkSEIgAAIdA8BnrDHvubzrZKhoxG6p9YoKQiAAAiAAAiAgIuAPJ8sdISRfM53BjoIgwAIgAAI1E8Aol/9jJEDCIAACHQtAd7CQxUg4W/OnOnZ7cX0R2f6yBuM6VysHdu3DjmHtGsrj4KDAAiAAAiAAAgMIcBn5tG4v2D+zKYzyCkS8FjjlvCX976SnbNKZ6we2LcLFEEABEAABNpEAKJfm8AjWxAAARDoBgKaG2upHjTxf2Tdg+pD2ruh7igjCIAACIAACIDAUAKaG5bpLRL8aG7AHwvBEgRAAARAoPUEIPq1njlyBAEQAIGuIuC78ZMqQRd30E2Rrhu8u6qSKCwIgAAIgAAIgICaAN/IeuHiH8ypU2fy9+gj4PhxY8zEiTc6b1lWZ4AHQQAEQAAEKiEA0a8SjEgEBEAABEAABEAABEAABEAABEAABEAABEAABDqHAES/zmkLlAQEQAAEQAAEQAAEQAAEQAAEQAAEQAAEQAAEKiEA0a8SjEgEBEAABEAABEAABEAABEAABEAABEAABEAABDqHAES/zmkLlAQEQAAEQAAEQAAEQAAEQAAEQAAEQAAEQAAEKiEA0a8SjEgEBEAABEAABEAABEAABEAABEAABEAABEAABDqHAES/zmkLlAQEQAAEQAAEQAAEQAAEQAAEQAAEQAAEQAAEKiEA0a8SjEgEBEAABEAABEAABEAABEAABEAABEAABEAABDqHAES/zmkLlAQEQAAEQAAEQAAEQAAEQAAEQAAEQAAEQAAEKiEA0a8SjEgEBEAABEAABEAABEAABEAABEAABEAABEAABDqHAES/zmkLlAQEQAAEQAAEQAAEQAAEQAAEQAAEQAAEQAAEKiEA0a8SjEgEBEAABEAABEAABEAABEAABEAABEAABEAABDqHAES/zmkLlAQEQAAEQAAEQAAEQAAEQAAEQAAEQAAEQAAEKiEA0a8SjEgEBEAABEAABEAABEAABEAABEAABEAABEAABDqHAES/zmkLlAQEQAAEQAAEQAAEQAAEQAAEQAAEQAAEQAAEKiEA0a8SjEgEBEAABEAABEAABEAABEAABEAABEAABEAABDqHAES/zmkLlAQEQAAEQAAEQAAEQAAEQAAEQAAEQAAEQAAEKiEA0a8SjEgEBEAABEAABEAABEAABEAABEAABEAABEAABDqHAES/zmkLlAQEQAAEQAAEQAAEQAAEQAAEQAAEQAAEQAAEKiEA0a8SjEgEBEAABEAABEAABEAABEAABEAABEAABEAABDqHAES/zmkLlAQEQAAEQAAEQAAEQAAEQAAEQAAEQAAEQAAEKiEA0a8SjEgEBEAABEAABEAABEAABEAABEAABEAABEAABDqHAES/zmkLlAQEQAAEQAAEQAAEQAAEQAAEQAAEQAAEQAAEKiEA0a8SjEgEBEAABEAABEAABEAABEAABEAABEAABEAABDqHAES/zmkLlKQggZ9te8kMbHnBjBgxwpx851jBt/E4CBQjAHsrxqubnl695mHz6xMnzV9PmmC2DDzVTUVHWWsigP5eE9guTxZ20eUNiOKDAAiAAAiAwDAkANHPavQpU+eYjy99Elz8/d3LB03/pmeyN9esvs98b/niYWg67a/ycwM/Mdu2784Kcu7MO+0vEErQ0wRgb61r3o39T5uX9x5qmaC/dPkqc+rUGTN+/FizY9vW1lUUOXUsAfT3jm2a2gsmhb0d27eaa0aPyvOEXdSOHxmAAAiAAAiAAAhUTACinwV0zNibsn/xLf7+obEwXPPAOjM4OGiuunKk2f3SC+aKK75UcbMgOQ0BTL41lPBMVQRgb1WRjKfDIhw92QpBH6JfvE2G2xPo78Otxf+9vtL/DPztZnPzzV/MC+kPdjF87QI1BwEQAAEQAIFuJQDRz2q5kOj3pz/9i1m0+L4sEpC2lA48t9l8oxEZgr/2EMDkuz3ch2uusLfWtTxEv9ax7tacOBqLPr69cexA5dWI9fcJN03NPv6tf+Qh8+0FsyvPHwn6CdTNHpF+sD4QAAEQAAEQAIFeIgDRr4DoJxeiG598zNx915ResoWuq0tsUdZ1FUKBO5oA7K11zQPRr3WsuzWnuvtjLH3+QLh82SLzwJqV3YqxK8vdTvYxu+hKoCg0CIAACIAACIBATxOA6KcU/eRED5P8zugTmHx3RjsMl1LA3lrX0hD9Wse6W3Oquz/G0m+n8NStbVZVudvJPmYXVdUR6YAACIAACIAACIBAVQRaIvp9eP6C2br1xex2RPqjGxJXrVrRdDhyVRVKTce1vffVv3/DbHj0iSzpO6dNNpv6H0/NBu9XQACT7wogIgk1AdibGlXygxD9khH2fAJ198dY+u0Unnq+cSMVbCf7mF0M97ZB/UEABEAABEAABDqPQO2iH52DN2PWouzsG/lHZ+IdPrS74y7BsEU/eXHH1752tfnJ8097yyzPgTn5zjFna1N6yxo3RdLf9sYtkfJMQH6fRNEtA08ZEhtJLKUzBOncIhJKeUsxcX3xp7vMiYaQSr/TH5Vv0re+aRZ+Z663jHTz8BvH385uquQ/urRkyuRbSp1LxGfrcF0o/X37D5uPPrqYl2ne3BnRtH/1q3fMgYNHzKnT53JbidXHnnyTuLxz555MXCZ7IxsjlkuWLHQKzDZvapsDB47k7xPzceP6zEMP3p/z5HKygE3PTJt2e3R7V5n6rV7zcFYWviHal3eovX0uh1gdO/ZLc+bsB+bDDy809c+QPbD9EluycbLDPb/Yb44efTO3Q2I+Z/b0psPPNa7Plba0ccpz/Lgx5p57Fub9xtfmss1cefN7p0+fzcvN7e2zl1R7s+tH//3j53+W9UWq24L5M4fYURV2Q+V+ee8rWRtTn+rf+NiQ/lDGL1TV913tkyL6lWFmX+RRtK9pfPdVV43MfX/s1ncuD48FklGZ+mnKR2ML9efDR143Z8/+3pw/fzHvG5rxpQp/RWPe8eNv5R8Iuc9Lf8J25/Mp9hl/ZNtnG37ufGNM4nGJ3i3a3+kd5hjyZ/KMv9B4L9PgOtl2UZW/dfVvVx327d1ZiW+owhbs8hVlz++X8fWhuRxEP81ojmdAAARAAARAAAQ6iUDtot8j639kXjt63FnnBfNnmQ3r13YSDyNFv6c2/9CsvH9ttlDQiJSaySAt2Nb8YF1WZ9+tcCy69G96pokNbyumSezSZauGCKn8sCsakRZzXBcf8Jio6XqPedEZhzt37WlaVMnnQxGSIRuhNHyXpkjelP+mzc86mcTe9/Hm8jMXEqBe3nvIia+O+vHCn9r90qVPvf2oTLvFFs5USVedpP2S0Ms3WbugFD3gXps2t+eFC/9kBra86GzzEBNaANt9yy6/q+yp9harn31jeNl+EbMb6XdS/EIVfd/ni8qKfqnMqA3G9l1rtm3f7Syaz67YNmK+e8rUOZmQRukc2LfLmYcUimwRqGz9tOVjsSY0KPsYxOzO9qf2rfcb+5/2+ld6lwWpmO+Sop9GKIqND5Q33yCtSU/6jtB4Lxn7ItdiPkOm4fO3MZuRaUjRL8U3pNqCy/6Ksqc0qvD19u3hmnleR01qURgQAAEQAAEQAIFhT6B20U8u3mza9iK3E1pDin5XjvxyJrRob+rVTAY1oh/lx5FqFP3TN+Zac+HiH8zIRnkoGoMXZvRc/5OP5hFVHKlGHO0tyHPm3ZMJcrQgWrr0u+bWWyZl0Wsc2bF9x8+zPItuX2ZeXGZOn9hRmTldKpMtctK/8UKPI52mTr0tjzSwIx3tGxolb7YdKj9FLX42+HlTxIjL1vh9LjulQUL0xAk3mEuffNoUsUj14lubuU3oGSk6VV0/7jsue7DLV/ScSRIfRo++2kyceKO5/voxOXOyzy0//mku3trRqNJ+uVzEdvasu83lIy4z7558P1+4a4Ry2eddaVOk0+TJt2aPyQggbg/6d9nmUnh2MbG36s+ZMz2PGpSRd5SuHfWSam+u+nHZqT0HGzb7veWLs7qm9AvbbmSfpPaZ24i8vWb0qCyfFL+Q2vdD/r6M6FcFMy4T+yPyvZq+ZvsS+b703VLYckVVyban//3Wm6/kUcYp9dOWjwQiioi7o+GHx469rimiVh7R4YpUTPFXUuikPsGRujQ+vfX2CbOjMT4NDPxNUxSaZrwl0YfendTwI+TXb775pqyJOUKZxV1XRGUsfc0W0ypFvzL+Vope5A85KlweuULp7ti+dUiEX4pvSLEFzTxQw74qXw/RT9MieAYEQAAEQAAEQKCTCUD0s1rHXsjSz1pxMrZIoLQ0oh89FxIaNRNeWS2e+Psm9/Ss/IruW4y6DJnLQr/JxRo/K+trR3bSwmPe/CXZo77bkOVi0I5kkLxtAZTzl+KBXEDT77H3Zfl8bVJn/WTZXdsyaeHKW+dDkUNFHZCsty2cyfpSuq7Fvx0Rp73lWpM2R0pxnWybiDHh931RxvT+osX3ZQKvLYDH7IXKFLI3u36+yJzUfmHbje9IglS/kNL3YzZZVPSrmpm9BTpmV7ZtDDy3uenoBq6vLKfPBtlGpRCVWj9t+WLtwmVzjYkp/kozdtplK/OOnYaMgisq7mjG4SpFvzL+1t62btff5w9TfUOKLcRskH7XsK/K1xe1C0358QwIgAAIgAAIgAAItJJA7aJfaMtOp2/vHXHZX+RnC8XOYLJFJHuiyI2qFf1CWyNdi8KQ0fAEPBTFR4vaW2+fmSXjE+BcefDk2xUpwc/7Foq8aLPPYLLz4YgD217kos+OSOM0ZKSDbzs1Pet7Xy5efM/UVT/Om/jsfukF5zmNoUVriiPRbDfz9YmQaBgqk+wbvrRlm/ue8TGR6YeEbfZZtpCaam8y/1BfTO0XMsrGJz5RO6T6hZS+H7PNoqJfVczK9jVpG7Ft7TKCyo5elh85pB9OrV+R8mnGkpDoV4ah9NM+P2uXqwrRL5RGLH2N8FSl6FfG38pttg+sWTmkaX2iYKpvqHvsirGv0tdD9It5a/wOAiAAAiAAAiDQ6QRqF/1khISEUXTrX6tA2mf6cdRPSBjissUWCfScVvTziYaUhsyHt1aGoqlkRI6GY5GtorHJtxQX7IViaOu3q5z2+63grckjtnDSMKdnfHxCkaaa8mnzl89pRD/XdmZOQ2MXdrk0C2TNMz4mru25MTayH2pYh8qnKbvsL7Gy8e9l7IbeTfULmjaORRr56lhU9Ev1JZpypghEsp4hgYsFaxof5WVQqfXT2K7G3kKcUhjKeYLrqAdX2aqoU0qbauxf2+fr8rcx8c4XDZfqG1JsQWOHMfZ1+voq7E5TRzwDAiAAAiAAAiAAAlURqF30o4LK82PovykqjG6i5XOlqqpMFem4bu/l23ZjFyZoJoNViH5UTzuCkhZKdzZukZXnddkCjJZPmUi/kFBYlSgWivRLjaz0va9p07rqV/fCifrl/sZNy3TmmH2DL9tKaHtvr4t+oUi/MvamFQCKCjx2v9DYTRnRz/YLsYW3FDC1RySw3dUt+pVhliIQSd8ro6rtiE++pMJXPq0PL+MrOW0+55XOf/zjP3/cdIMvPxOK9Cv7kYKiHDdseKIpv9BN4hrfzOUlofXdd98zf/z4E+9lU0UjujT2r+3zdYl+mjP9iJHty4uKfrZv0PigIu1n232MfVHRr4ivTym3tv/iORAAARAAARAAARCokkBLRL8qC1x3WrboR/nJSZ5mWx69U0YUKDqZZNHmtaNv5jeYkvi3ZvUK8+0Fs3NUsQlyClNN2jFRrKggwOXV8EoVWTV51FW/OhdOmlsNiXOvin6hSFpff9DYQpWRfmX7hcZuqI6avhvyDZr3tWWx8ykr+tXJrCrRj+oqL2PiiD558YC9xbUsxyK+kp4l4S10IzenV4fox2mTb3rj+NvmVKMsMr+nNv+w6YgDTX8kATN2az3n0YuinxSYfX3ZNafR9O2Qb9DYq6b9fHnEypeStj3nK2oXKfMpvAsCIAACIAACIAACdRCA6GdRdYl+9IhchPrObNJMNFNFKJ8R0EKJb5K1L+zQnL1V1rhik2/JzrcN0d7Kpi1LK3hr8oiJfmXrV9fCSdogRTgsuWehufGG8U0L6roiT0Jtq4mK0Tyj2d6rPTdMlldjC1WKfnXaDdUr1S+k9P1YHy8r+tXJrErRTwp8HCXFW3tdl/Iwj7L109iuvcWWPh7Jm71Dvjz2G7e3phz8rL1DoEz0orQj+oBBt5V/o3HbuKY8sbJq7F/jr2RfrPojC9sUCXuDg4Pm1Olz2f8nOxo/boyZM3t6fqOx7JOpvqGusYvLGGMv265qXx+zi5hvw+8gAAIgAAIgAAIg0GoCEP2Uop+9IHIdkC8ng76LAuRiL3SxRJlIJN8CI3RwfKrBxSbfocWg3KJc5MZgzYKNn0kVWTUTfN8CJ7V+dS2cZJ3sG41ji6rURWw7RT/Z92KXLbjKqbGFKkS/VtgN1S/VL6T0/ZjfKSr6tYJZlaIf1Z+38nKkFf+368KG1PoVtV3fEQ91nekXsgdfnpo6sY36Lg1LaVON/Ut/4PM5MhqvStFPpuvz8z7uqb6hrrErNj7x73X6eo3dxfwbfgcBEAABEAABEACBVhKA6KcU/egxOZF0ne8nf3edcUe/b9r8bL4Vt2rRT96aKtOWk1TNLcRFDFCz8PEtAOSCKHT7r688msl3O0W/1PrVtXCKcZM3iFa5CI3ZlUZQ1Dzjq58U7kM3jNZlb5qyU96tsBvKJ9UvpPT9mC0UFf1awSxFIHLVVwp55JcHtryQPeYSaFLrF+vztt25zuuk/sMXW9W5vddmxdFqoYucin684Dx4mzX9d9FtnDFBkdKUwpuLGflamhN89NHFrEhV+ltpM0Uu56rCN9Q1dnG7xdjX6etDfYnmYEuXrcrmeFXPtWI+E7+DAAiAAAiAAAiAgI8ARD+LjG97Lz8mF2r2WTj2TcX0+5TJt5jPBj83x4+/ZX594mRTbmVEPz7sfFrj0g65VUkuHuybke1y2ducaKL6u9+dyw46H/z8X82ObVvVPSZ14S8X9yT8ye1GVO733j9lTjYOlCd28jZLe2FS1xmKmsWyJvqFylu0fnUtnOR5fmSjS5YszC7VITs4duyX5uW9r+TCdJWL0JhRaUQxzTNacca1tZnSpwsMTjTs7ZF1DzZtfdPYQhWRfsQppV9o7IYFiRmzFjW1tfQpMb+Q2vdD9iDrT37S9/f1r/9Vvi29bmZau9JGaUtxnXw2CQWhjx8p9dPYrvxoRH2D7J+2wpIffuvtE2bHjp/nl2xULfqR+EZ/kyffmh81wBeKsBhq+yLpx9i30lh77twHZsP6tVl6fDst8aX68C339AHu4KFXm84NLCr6ybRpK/SVI79szjby7htzbZPfkO1G3GbPuttcPuKyzM+8vPdQk2lX6W/tcV9mRDyuuWZU9k8TJ9xgZky/o+l4h9Q5g8YHaWzS1+817GX6Vfp6rR8oe75obJzE7yAAAiAAAiAAAiBQlABEP4tYTPSjx3nrC/1vextU6IIEmmj3P/moWfODdVmuZUQ/KSr4Gtu1jch1M6Lr/aIT1dSFPy0uHl73w6bFl69eRRdllE47I/0o/5T61blwki3XWusAACAASURBVDZs8+bznkhorXIRGnNOGkFP80xsMWnffO0rV2r/tN/XlJ3LUrfdcD4pfiG174fsQQoloeekfdbNTLvY14p+9lhC/x3adp5Sv1ifYMaxvkEfCV47etxULfrF2tsVWe8TteS5hzL63mVHXB/6rej4IpnKtO0Ir9jlKPQ8CYB0cUnV/lZ7YRNFPg8M/E328acK31Dn2EXl07KP2TPXtYiv1/qBonOp2PiI30EABEAABEAABECgLAGIfhY5FkNCERdyEu96jhb3Bw4eySP7aEJNkXkLvzM3+5rOZzfZB0z/bNtL2Rav2GHtNJGnqLzz5y/mkReUx7hxfWbOnOlNB5XL6nHkBC8w+Dd6d/Toq01f33VDvvjHDCt0DhW/y1uoQky5TnzQOL3L0Qhj+641U6fe1rQgod81vGQ0TRnemjzqqp8mXU35XG1ItrDnF/vNid/8Nt9aJu308JHXM1t0LWCXLV+VJRk6IF1jF3a5Qm0lF6Kx/DVMqI/SDaGnT5/N+xDlQQu1UVd/NYt+ufnmm5qKqEk3VAdN/WwmZfqFxm6q8AuaNi5aFi6Xb1Fv83FtoauLWaj9Nbbh6odSlKL+98axAzGXa8rUr0j57NtzyQ+T76aI4M8+GzTU/1y+XNPWvnLwTfQXLv5hyK291Be/t3yxkwv1qV279jSNtfPmzWx6nsdjObbIqGuyY/qzI8k1zMhOjx59M/chlO6qVSuGjFVUv507vygnX6TBTEloY3ZV+1sW/VyiKXGhyMRt23dn9XeJVGXnDCm2EO0Af35Ay75qXx+yC2zv1bYengMBEAABEAABEGglAYh+raSNvEAABEAABEAABECgZgLyI0PooiwZDVckSrXm4iN5EAABEAABEAABEACBighA9KsIJJIBARAAARAAARAAgU4g4LsAxS6bdut3J9QJZQABEAABEAABEAABEChOAKJfcWZ4AwRAAARAAARAAAQ6lgCfqxfbNs7P0RbgA/t2dWx9UDAQAAEQAAEQAAEQAIFyBCD6leOGt0AABEAABEAABECgIwnw2XNUOL41mG8vpn+zbzC2LyXryEqhUCAAAiAAAiAAAiAAAoUJQPQrjAwvgAAIgAAIgAAIgEDnEqBLOFbevza/qClUUvvW4M6tFUoGAiAAAiAAAiAAAiBQlABEv6LE8DwIgAAIgAAIgAAIdAEBvu35/PmLTTeV03becdePMXPnzhhy23AXVAtFBAEQAAEQAAEQAAEQUBKA6KcEhcdAAARAAARAAARAAARAAARAAARAAARAAARAoFsIQPTrlpZCOUEABEAABEAABEAABEAABEAABEAABEAABEBASQCinxIUHgMBEAABEAABEAABEAABEAABEAABEAABEACBbiEA0a9bWgrlBAEQAAEQAAEQAAEQAAEQAAEQAAEQAAEQAAElAYh+SlB4DARAAARAAARAAARAAARAAARAAARAAARAAAS6hQBEv25pKZQTBEAABEAABEAABEAABEAABEAABEAABEAABJQEIPopQeExEAABEAABEAABEAABEAABEAABEAABEAABEOgWAhD9uqWlUE4QAAEQAAEQAAEQAAEQAAEQAAEQAAEQAAEQUBKA6KcEhcdAAARAAARAAARAAARAAARAAARAAARAAARAoFsIQPTrlpZCOUEABEAABEAABEAABEAABEAABEAABEAABEBASQCinxIUHgMBEAABEAABEAABEAABEAABEAABEAABEACBbiEA0a9bWgrlBAEQAAEQAAEQAAEQAAEQAAEQAAEQAAEQAAElAYh+SlB4DARAAARAAARAAARAAARAAARAAARAAARAAAS6hQBEv25pKZQTBEAABEAABEAABEAABEAABEAABEAABEAABJQEIPopQeExEAABEAABEAABEAABEAABEAABEAABEAABEOgWAhD9uqWlUE4QAAEQAAEQAAEQAAEQAAEQAAEQAAEQAAEQUBKA6KcEhcdAAARAAARAAARAAARAAARAAARAAARAAARAoFsIQPTrlpZCOUEABEAABEAABEAABEAABEAABEAABEAABEBASQCinxIUHgMBEAABEAABEAABEAABEAABEAABEAABEACBbiEA0a9bWgrlBAEQAAEQAAEQAAEQAAEQAAEQAAEQAAEQAAElAYh+SlB4DARAAARAAARAAARAAARAAARAAARAAARAAAS6hQBEv25pKZQTBEAABEAABEAABEAABEAABEAABEAABEAABJQEIPopQeExEAABEAABEAABEAABEAABEAABEAABEAABEOgWAhD9uqWlCpTzZ9teMgNbXjAjRowwJ985VuBNPEoE/uHUGbNs+aoMxvZtW803xo+tHUw78uRKwV5qb15k0EYCE26aagYHB82a1feZ7y1fXHtJVq952Pz6xEnz15MmmC0DT9WeHzIAARAAARAAARAAARAAARAAAR8BiH4OMh+ev2B27txjTp8+az6+9En2xNe+drW5Y+ptZsb0O8wVV3ypoy3quYGfmG3bd2dlPHfmnaaySoFnx/at5prRozq6Lu0o3K9+9Y5Z84N1WdYDf7vZ3HzzTbUXox15cqVC9lJ7xTs4AxZvqO8f2Lerg0vaXLQpU+fkfuuqK0eajRsfKyRc/+lP/2JW3r/WfPTRxSxhSmP3Sy90rN+j8i5afF9W5wXzZ5kN69c2ARkz9ov+u3zZIvPAmpW1t+PSxgeDU40PB+MbHwt2ND4ayL+/e/mg6d/0TM411jbt/BjA9XABI5sYPfpq09d3XVeMibU3OjIwNIatf/TJTGDf+ORj5u67pnQFFTn2ugpM/XjU1V81Eyfc0JK5QFdA65JCdpO/7RKkKCYIgAAIgECXEoDoZzWcnCS42pSi5wae21xoEd1q2wiJOHIh1ypBq9X1T82vHQJcO/JkThD93BbDYhH9aovnqTZW1/uuBWzRiDNpD1zOTvYVss4uoa2TRD9bSHOVV9pGO/2CtP+QvdKYuGzpd1sSRVlXv0G66QSk32iVwJ5eamNc/s6XLvXXdf/9B/hYWgX4FqTRTf62BTiQBQiAAAiAwDAmANFPNL5cYPFChr7w0t+7J983rx19M/uK7ZrQckRGJ4iCiPRL69HtWGi3I0+IfmE76cZIP9uHkb+iv317d6oXqrwdlnwZv1+l6Fe1r+ymSD9X9FwoKqqdfoFFP4p0Xf39e5s6y9lzH5gzZz/IIhr5785pk82m/sfTnG8PvM39Z/0jD5lvL5jdAzXSVaFbI/3kfImOAOA5H9X60iefmosX/5DP/ejfOmGOp2uRep/i8bGT+303+dt6WwupgwAIgAAIDHcCEP2EBfAkhv7JdZYbLS5/9MRT2ZYm+2yodi7ObCNG5FZat25HW7YjT4h+aXbSiW9LO6LF2GtHj2fF1EbeyEhn2ir78t5D2ftVin6ttvVOjPSjiKEPP7yQiaq0VfaNYwec5tRqVrIQzC0UjSiFniJ21ol9p6oytdreqir3cE1Hzpd8fo7mfs88+3zuT0n4O3xod8ceedCKtgwdY9CK/DV5yDJ2ur/V1AfPgAAIgAAIgEBZAhD9BDn+Qh/bcuWC3c7FGUS/subvfq8dbdmOPCH6VWs3nZCatCMS+i5c+KfsUomQsCTLzYskEgyvvPLL+dmgEP30rRtaDMvfxvZdm/P1RYW10y9oRD+iQpGbax5YlwmYJIYM97NiIfrp+0onPKkR/bicj6z/US78uc4P7YT6tKoM3Sb6dbq/bVW7IR8QAAEQAIHhSaAloh9djLF164vZ4pP+6IypVatWqLebtapp5Hamogf3t3NxBtGvWgtpR1u2I0+IftXaTSekZot+I0d+Ob84Ina4PvnpefOXZNUgkY+2cPKFQBD99K2rFf3okg++dMUXOdROv6AV/YhMt57npm9V/ZMQ/fSsOuHJIqIfRfzNmLUoF7iHc7Rft4l+ne5vO6EvoAwgAAIgAAK9S6B20U9OkiTGTtweUeaSC7kl2Gcm8jwtfj50uL68YffkO8ecydI2vDeOv52fqUSRPNOm3W4Wfmeu2fOL/arbe31pu24vpvTHjeszS5YsdIq18pwuSpf++8fP/ywrH7X1gvkzh9ycSQvaAwePmFOnz+Vnh9H5UZO+9c2sHq5bkpkN8+OykqDMkSb0m6+cDNPOm8rI7338x0vR23vJronzid/8Nr/llNIYP26MmTN7euFb/uzF/de//ldZ+kcb50jyDdJUvlDaZBNnG+dsnW/cuso3r1J9Y21nbwe3mbJQH6tXGSa23XAaReqtcc92f6F3KKJ3yuRbvOduhfoqRwXzMQCU/r79h3PuZMfz5s6InulVpq+F6muLfnRbLZc1dqEHR7FwVGBoMUztdPjI6w17+705f/5ibqNUNl8fLusr6ZwtOk6ByvPy3leyfk559DduJebbx7mO/KxkFBJhqN0GtryYpek6m6qM3RQR/eR2atcW7JjoJ+3wv/zn/9S0BTHW3rF+U0T0I3u49faZWZKh266pvu+++16Tzw/5JylE+8rrq2crxxcel0JMXdGcZfp/VWNgqKwpvpzStY9HqdLPl+mToboWEf0onY39T+fHHvg+pJDt0fzs9OmzuW+MzQ9kFKGvvL5jZ4rORcq2h7xN3FdGlx8tY0+Ufuo4a/viFH9bZo4b87H4HQRAAARAAARaRaB20S80kem07RH2zb2uBaTdMEUXspqvo7Ez+UJMacH1latG5lGV9q2jsbRjtxdT/V2LF7k4pYkpb/diXvaW6dgE13dYNpefBZv+Tc84+0rosO1QHem9OxviaegsM7mdrcjEN9SpJT+yu9eP/bJJuJPvuvhrFp0xptmC5snHzKbNz+YirF1m3zbEskxidhOrd8xR0mJj5f1rvSzpfeozP3n+6SEic6ivsiBCvHbu2uNNP3TIedm+prUjFpHkItV3oYf8OCNFNl+kn8bv2Vw178jyMX+qx6VLn+bb6rj+MvowJOz5fpM2a5e1Lrtx2VQo2i8m+sXsMOXW6SKiH7XJnHn35P3AzlfD0zW2aEQG13EcrR5fNP7X9p1l+38VY2DIh1Thy+3I4Cr8vMaGfL48VN+iot+rf/+G2fDoE1mSLqE+Znv0nmtc0PhHm2sVbeWar/nGXU1/tOtWtoxUhph/43L6xtkq/W3MhsscCxSbv+B3EAABEAABEKiKQO2in+v2LC58Jw6S9oSNohDmzZtpZky/I3hoc2xxxnVOFf3k4oLKtnTpd82VjS18dMucjDTi/IqIfnIyS5OoOXOmm280oqHoT0bu0X/b4oGsP9/6SWlQJBWVbXDw8/zyExYhOAJw6tTb8ogdKgNtBafoNtc5ZDxB5zx4Ak35fNbI4/jxt3LB02VfctLK+feNuXbIuy5hgf6NIjOWLluViWKU/uxZd5u775qSPU6/7W9Ee7FgWOT2RslP9g9K//IRl2W3R3O6rihZWkDu2PFzM6kRDThxwg15pCF/YWfxxhUVIxc9chJNTOlP5u1q+xQmLrthrpp6xxwhCxHcV269ZVLWjzlSbXuDmS/KSyP6sR3Kvnihcdsjp0vlc22NTelroTq7Iv2kzfs+ZEgB4q03X8kYhRbD5CcpovSORt8dO/a63E/YRzm48ivqK12MySbnNiIpOdKvqOgXEvyIb11247IpycNevMZYcb2ZEfcdqsO5xvbsDevXxrqI9/eiop8ULezxQQqC/MGGxi32L681Ipr5pmg7eooY2H/k61l4sZm1c3yhcmq296b0/9QxMGQQVfnykOhn26rWz6f0yVCdi4p+0p/6bI/y47kj3wZM48K+fa/kkX/2R29iT7sM7D/aDcFH48h+VVVblW0PzVw2pYyyL5UdZ6v0t0XmuKWdLl4EARAAARAAgZoIQPRzgJXbyPhnFohou5zrL7Y443c0E6VQNB5vd3AJP5SHLeAUEf044sQXgUlCyaLF92WT1tDilMrhE7zkdi3f1hg5qbbTkfUjBv1PPjpkK60UmlnAYP5yYeoTY2Skm/0Mi8KhLWych/byBCqbLfq5xBJZ99j5bLaNSjE7ZBO+aEApNtttn8KkznqzkEV18l0uIOtlCxUa0Y84E4+HHry/6aOArJerP6X0tdBY4BL96Hm5YHbdFMu/y7YtuhiW5eL6uYT3or6S0o1F8BQR/WKCX51247Mp6bOkHcZYcb3ZDjf1P17ZVKGo6OezFyko+yJypM/X+E32sfY42O7xRQoVoRuzU/p/6hgYMpCqfHlI9KP8i45vqX0yVOcyfs7VN6Tt+fyVnENRmXyR11xe2S9se6qqrcq0B72jmcumlFH2pbLjbJX+1p6rFPmoW5lTRkIgAAIgAAIgUJJA7aKf3Fpml7HTtvfK8nGEFJ8hxb/5JnOxxRm/r5ko+UQ/ewsonXPl+pPMtaKfTDs0EeW0bdErFK0iy8h1iy3sWISwbUSycZ1vQ3nJRaa9+ODJeui8KxmF4Xs/NOGT79uio6+fatpWLipCC0pXHiEhWcOU0uSFqt12zLQMkzrrLW+i9Ykh1M/5LDJbSNWIfiE78glfqX0t5Ot9ol+oT8iFpbT3MothjZ8r6itDW/U5P63oN3HijfnRA7Ft3aGt2WXtxmdTkom0qRgrefmUa4t6yXlB9lpVoh/7ct+HKi6jHLd8vp2elUK93WfbPb5Ibj4fndr/Nf461N9DNlGVLw+Jfr5o49D4lurLQ3Uu4+dcfUPab+jiIzk/CB0hIwVC10fGqtqqTHsQT81cNqWMsi+VGWdDZSzjb7Vz3BSfi3dBAARAAARAoC4CtYt+8qwoWYnYAqCuChdN1yX+uSZgscWZZjHMz/gEGs1kn9LQCjxSEHRt8Yyxku8XrX8sbf7djhSKnUlI7/nKohGYtO9ry6+99VTLT7N1zFW2MjZhpyOjJLnt7a/fGi6SSZ31llFQmnLZi3SN6BcSX33vp/a1UF18op8UqXyRmraYW2YxrPFz2jbXLCo5P43oR/XmC39CkYN12k2oTjIal/tIjFVZf6DpD0VFPxmtKMcGTickotp+NyRE8PEKLiEgdJyIq85Vji8aW7THZ0070DO+sdp3ZmPMblz51unLteXx2XNqnwxxLurnfD6WbS/2QZPKovn4GBLB62wrySrkX2L+ObWMklOZcZber9Lfam1Y26fxHAiAAAiAAAi0kkDtoh9Vxj7niSbrq1atcN4C28rKF8nLPozYjmrSTghiEyV7UVB0sh96X5u2hkso0i8kdBVdlIUi/YoueLRtpBENNYxC20rt97Vliy3y+XbMP378ifdyCW30p11Gl3BYdGJvM6mq3q72KLpQLBPpV2YxUlT0C20lD9mRbzsYvcMRqFIMtIWW2GKYz0Wk8/X++M8fN93gy+WqYnuv5uxXjehH6dBt4vQXYlqn3YT8v4x04jrH+kfMH2j8lO+ZoqKf6yKPItHJPjFFlk9uU9/90gvey3e09a5yfOE8Y22S2v9TPnyFuNTpy2N2HGOX2idD9Y75Oftd30UeoSMN7DRifSsWDVhnW8mytlL0c82XYn2JyhryqVX6W60Na30PngMBEAABEACBVhJoiejXygrVmVfo1jbthKAbRL8yNz5WWX/tBL2dop82gk9rj1p+vkkwCTCxW2q5LHWJfmWYpNY7xFezYAi934pIvzJ9Tbtwt0U/V6Sr3Cppb0UPLYY1NzJSOTtJ9CMel112mRnY8kKG0Bd5VqfdxPy/vUWQyrnmB+uy8rr6V2pZNf1HI7pK8Vg+HzqTzM47JvppxJkY35g/rkJQi7WJJo+6xkCt76jal6f6+RjTWLtqeWrq7dvGy+cta/pLSPSTu2N8aWl5+uqtfb8q0U/D1VVWTbuXFf0ovyL+VsssxRbxLgiAAAiAAAjURQCiX0GyvkmIdkKgWZS0e3tv6Dyl1Ekk15++6p5851hB+uGty5yYJlIvdJZO6vuFK9V4QWs/PvuTEZQkbtDZZXzzMpWnFdt7Q0xT7UYz+bfz0GyhCrVVK0S/Mn1Nu3B3RSHa5zLyf7sEMJ/IIhel1I/XrF5hrr9+TFPkdoid1tY1vpJZaCL9mIfcpu46h7JOu4nVyV7w37P4210h+klbsf1Ame29dtStFA9DZwG3c3zR2KLti8v0f41oqO1j0pe4PgoUGctCeWrLE9veGzrbrUhZ5bMaMZmft32fnMOU2d7rsmV5SY3vAqo620qyqUr0KzM3oHJoxv0U0a+Iv9XacFk7xHsgAAIgAAIgUCcBiH4F6IYiEbQTAs3E0HcRh4w0DF2a4Dp7javpWzBo004Vb2TdYjfXufJKWfCEzjWTecnoJ/mFWvt+AZPKH9XaT2xR5FsQa0W/0MUjHMkgt0amMkmtd4h17MbaWDvVJfql9rUU0U/aAYlg27bvzpJzRWL4FsOyzXy3SHey6GdHxdrCS512ExP9bFEo1kaaRXHMzn2/x7Yg8nu0hZfP2XOd1eu7AMjOV55pKMcG2V6xW5zbOb5wfWJtktr/U8bAkC3U6ctT/XxqnwzVu4joJ+0rdHxCaG4jL1mx53Gh32Qd6mwrmU+K6JdaRipHrC/RMymiXxF/q7Xhsv4W74EACIAACIBAnQQg+v2ZLk229u0/bFZ//15z8803OZnLaCp7oahZCFOisRve7PN+5PY/OYmiw6JdZxrJhRPlp93KKb94+tIOGaJ2QiSfK/PVPnXBI8+dckVZyEm3SwwJ2UBKR9Xyi4l+vjPmtEIwtf3GjY81RQnaE2P7q30Kk9R6axdzZSIN6hL9Uvuath+6bEGescbp+A6e14h+LrFQ3joZ297rEw1jizmbQZFIP3pXbk+2hapQ1Jqmj6cuQiU/Ktvg4GCWbSdu7yWOmzY/m58f6upnttD8wJqVQzDKSD7bZrS3+lKi7R5fqAxsi74PMKn9P3UMDNlwXb481c+n9kntOBHahirL4JojyTr6tuXaffvwod35uZRSPNfMjepqK8lKI/qFzkdNKaPsS2XOztWOIVp/G7Nh2X5l5huasQXPgAAIgAAIgEBZAhD9/kxORnfRhG3ihBvMqKu/mv164eIfzL59r+QH1bu2wsnFNE2Cltyz0Fw+4jLzxvG3zUMP3p9P7OTEgRZ0C+bPNH1jrjWXPvk0Ex0/+uhiU1vaop1cAFE+8+bOMFeO/HL2/o4dP8/KKBeKWtGPMpWTWq7DjTeMbyo7Hdp/4sRJ88i6B5vE0diESFZKTgRpcjtn9vQ8LZqAvff+KXOykQ/dtGlvAU5d8MgoC+K0bOl3s3b+bPBzc/DQq9lB/6GFtt1+9tZGWryeOfN78/qxX5pJ3/qmcS1wXZ1Vy883CedoGio7tc3dd03JsqH6cr0435BN8DO0YKU+QH9kw68dPZ79b1ckTwqT1HqHHJ9cXNNz9rZn6rO/+9058+6775nBz//V7Ni2tSm5ukS/1L4WqnMoGpnfkwIw/ZtvgeIT/WxfR/ZGW8mJ91tvn8j9EKXtWvxqfaUmKo7rVFT0476x4dEnsiTs6NUZsxblYluVdqOtk/3xgcpYRvSTC9FQdLjLppgpsaGPYfKPxsSzZ3+f+Wj+852RaPdDsokpk2/Jxi3yu+TrpX8ZeG5z/tFB2gqPFa6yyg917RxfqGzSF9P4QPU8e+6DbJzncqaMtaljoNZ/kK8vMr7Vub031ZeH6mwLijzvo3fIPs812o7mPDS3oj/iIm1Upi1tj4TBefNm5vNImju9dvTN3K/Y/VF+sKWPITR/tP+u+sqV+TEK7R53ZXnJR/I8drDB7HvLF2dFTykjvd+KSD/KR+NvY3MVaUeacx1DNonfQAAEQAAEQKBqAhD9/kyUFhfrNzzhvfFULmykiOeb8Ml/tyPK7Gg8+SwLef2bnsn+2RZo7K1ptkHQZGP2rLsNL2aLiH6UlhQVQ8ZmL0BjEyKZFtXh4XU/zG/SDOVTtPz2RNO1UA7x50i3ZctXZcVyvU8TxIEtL+aTd1/5Q1+n7Xe0/HyTYClmuspDC3JeWPuYstjNFx3Y6YQWO2WZpNY75hBJhN3Q6Ne8YPM975qk1yn6pfS1UJ01op+9wPFt6Q5te4v5CbY33+JHLo59vlIrkNH7ZUQ/ek/WUYpWddlNkTrJqGSfL4otijX24LMnTjvWx1gc+vaC2d5HNRe/uPyLHfnuy8A+hqGd44uvzLa4HutDXFd7DKpT9KM86/DlVfj5lD4ZsmGtjVEa5M+e2vzDIbdGc/qx+Rk/FzpLNFRW25/W0VYy/5B/kW0q37GjFMuWMebXOc/UyGpOJ+ZvYzYM0S82UuB3EAABEACBdhKA6GfRpwkKRf6cP38xFwpICBo3ri+LTvBt/aVkaML3zLPPZ9EPtCWLFjE0AdrU//iQNubtxBzZx2IfLZx4qxO977vsgiYYJ37z21yk1L7PEY2htGlyQ9Fdp0+fbRJLaMJJX8EpAszmILdnaQ8nZ9anTp/LBTQq1zXXjDJj+641U6fe1nQ5AEHUlF9TFjsCjtp42rTbzcLvzM0m9Hx+na8uJBLvb0Rmnm5EisnoTGqH0Y3/62uUP7QItg1CU2Z6h8vlis6idjtw8IiRPGUkJb1Lf7ZNMVOerHM6HMXD9r9kycIh7SHrUYZJFfWOOVDql4ePvG4o0oIiOfmP6jV6NLXVdWbG9DuGLOQ4Is611SrUDpx+6H1+pkxfC9WXeN674gEzshFd9P37v5dHfNrv/Ld7VpozZz9oRBrPMhvWr3UmyULyf/gP/8E8v/X/Ntdd9382PUf9l/wERbZSfv/rf32W+buljejZ//3//W/z3cUrsv/eMvDUkPT/5//8f83/8/TWzFf+27/9m/mvX/0/sraQvpL5/V+N4xae+9vNwWaeM/ce89GFi86oxW/99Z3/f3v3ExpHFQYA/KNeiqeiBUnTSIWIrUYx0tCLetCLSK2C8VBDQQ9akZYKghKqYCVeip4Uijf/QD204p9DraC3gqIBKSWitx76Dymkp9pDD74364RNd7PdbheyffsbWqrxLAAABlhJREFUCGTI7ux8v/fNm8m3b96kp/beHtPP71gagdK8sXfenUt97sk4d+58XDuXXM6bX379Pc6ePV/9PS8bRzfE1NRkjI1tbJs3+9LTdv9O5497x+9piT0Xeo5+/X3seOapOPDebMeY6iLHPyl/H5zYEh99ONeSozkPs9/bb+1r29/cTNFvpcJs3uncz20Yuat6YNCTTzy+YhGkOcB8HB7+6miVd83HYT6v5P6+7nub33O9LzPq1640VUM+l6/G+SWfn4+lUV31lw35ONiz59WW/rOX479f58BOydfvvrxf/XyvfXmnWHMbvD93MC5f/rf6ycv69XdUv69Zc1vjeiSN0nwsteEj6YFF3Szffncsjv/4cxoluFBd2+TtjYyMxN1jo7HSeXRm1+44dWph2edfuz9TWydb+pTcVsd/+Cl+m/9j2fvrz2t3LXIy7dfu196oYux0vVaf53L/MvPiCy2h5+Pzs88Px+LiYrWt0dQ3tpsiJ48M/ibdSZHv4sjXS7Vvfn2+Xtq2bWs89+zTLdu/3ufnN+TzxMKff8Xkww9VfWTzUhfW850PefRkpyVfy83OHqiO2fu33BeffHww7eedS2/Jf3/p5der9S+/+DSNbHxg2ebc3tvNkeE1BAgQILBaAop+qyXvcwkQINAvgTzvWyqYV8vVqxFnzkRs2mR9WD0uXcqVi2W3rXX7ZUy/UtJ2CAyswP/zZC71mRcuNPrPug+1zuNG8qH5/DuwSW/HCBAgQGCYBRT9hrn1xU6AQBkCr6Q5195MI/bGxyN2pfmUTp+ONLme9WH12L8/YmJiaX65TiM6yzgAREHgBgQuXmz0k0eORBqKF7FzZ8TatdZ59JYPe/c2csdCgAABAgQGVEDRb0Abxm4RIECga4E8MiX/47puXcTMTMSj6Qnk1ofXY3p6aZRfu4fvdJ1XXkigVIETJ9Ikxh9EXLkScehQRC4EWufRaz5s3lzqkSIuAgQIEChAQNGvgEYUAgECBCIX/ubnI7Zvb2BYH2qPemL6PJdV/TRvRwkBAk0CufCXboOPumBjncfN5IODiwABAgQIDKiAot+ANozdIkCAAAECvQjUD05ofiJxL9vxHgIECBAgQIAAAQIEbm0BRb9bu/3sPQECBAgQIECAAAECBAgQIECAAIEWAUU/SUGAAAECBAgQIECAAAECBAgQIECgMAFFv8IaVDgECBAgQIAAAQIECBAgQIAAAQIEFP3kAAECBAgQIECAAAECBAgQIECAAIHCBBT9CmtQ4RAgQIAAAQIECBAgQIAAAQIECBBQ9JMDBAgQIECAAAECBAgQIECAAAECBAoTUPQrrEGFQ4AAAQIECBAgQIAAAQIECBAgQEDRTw4QIECAAAECBAgQIECAAAECBAgQKExA0a+wBhUOAQIECBAgQIAAAQIECBAgQIAAAUU/OUCAAAECBAgQIECAAAECBAgQIECgMAFFv8IaVDgECBAgQIAAAQIECBAgQIAAAQIEFP3kAAECBAgQIECAAAECBAgQIECAAIHCBBT9CmtQ4RAgQIAAAQIECBAgQIAAAQIECBBQ9JMDBAgQIECAAAECBAgQIECAAAECBAoTUPQrrEGFQ4AAAQIECBAgQIAAAQIECBAgQEDRTw4QIECAAAECBAgQIECAAAECBAgQKExA0a+wBhUOAQIECBAgQIAAAQIECBAgQIAAAUU/OUCAAAECBAgQIECAAAECBAgQIECgMAFFv8IaVDgECBAgQIAAAQIECBAgQIAAAQIEFP3kAAECBAgQIECAAAECBAgQIECAAIHCBBT9CmtQ4RAgQIAAAQIECBAgQIAAAQIECBBQ9JMDBAgQIECAAAECBAgQIECAAAECBAoTUPQrrEGFQ4AAAQIECBAgQIAAAQIECBAgQEDRTw4QIECAAAECBAgQIECAAAECBAgQKExA0a+wBhUOAQIECBAgQIAAAQIECBAgQIAAAUU/OUCAAAECBAgQIECAAAECBAgQIECgMAFFv8IaVDgECBAgQIAAAQIECBAgQIAAAQIEFP3kAAECBAgQIECAAAECBAgQIECAAIHCBBT9CmtQ4RAgQIAAAQIECBAgQIAAAQIECBBQ9JMDBAgQIECAAAECBAgQIECAAAECBAoTUPQrrEGFQ4AAAQIECBAgQIAAAQIECBAgQOA/Q6A95yyNOYkAAAAASUVORK5CYII=;" parent="1" vertex="1">
          <mxGeometry x="138" y="50" width="637" height="231.96" as="geometry" />
        </mxCell>
      </root>
    </mxGraphModel>
  </diagram>
</mxfile>
